%TF.GenerationSoftware,KiCad,Pcbnew,(6.0.1)*%
%TF.CreationDate,2022-03-24T22:12:31-07:00*%
%TF.ProjectId,CStick,43537469-636b-42e6-9b69-6361645f7063,rev?*%
%TF.SameCoordinates,Original*%
%TF.FileFunction,Legend,Top*%
%TF.FilePolarity,Positive*%
%FSLAX46Y46*%
G04 Gerber Fmt 4.6, Leading zero omitted, Abs format (unit mm)*
G04 Created by KiCad (PCBNEW (6.0.1)) date 2022-03-24 22:12:31*
%MOMM*%
%LPD*%
G01*
G04 APERTURE LIST*
%ADD10C,0.150000*%
%ADD11C,0.120000*%
%ADD12C,0.100000*%
G04 APERTURE END LIST*
D10*
%TO.C,H1*%
X151238095Y-85952380D02*
X151238095Y-84952380D01*
X151238095Y-85428571D02*
X151809523Y-85428571D01*
X151809523Y-85952380D02*
X151809523Y-84952380D01*
X152809523Y-85952380D02*
X152238095Y-85952380D01*
X152523809Y-85952380D02*
X152523809Y-84952380D01*
X152428571Y-85095238D01*
X152333333Y-85190476D01*
X152238095Y-85238095D01*
%TO.C,H2*%
X161738095Y-94452380D02*
X161738095Y-93452380D01*
X161738095Y-93928571D02*
X162309523Y-93928571D01*
X162309523Y-94452380D02*
X162309523Y-93452380D01*
X162738095Y-93547619D02*
X162785714Y-93500000D01*
X162880952Y-93452380D01*
X163119047Y-93452380D01*
X163214285Y-93500000D01*
X163261904Y-93547619D01*
X163309523Y-93642857D01*
X163309523Y-93738095D01*
X163261904Y-93880952D01*
X162690476Y-94452380D01*
X163309523Y-94452380D01*
%TO.C,J1*%
X169466666Y-84052380D02*
X169466666Y-84766666D01*
X169419047Y-84909523D01*
X169323809Y-85004761D01*
X169180952Y-85052380D01*
X169085714Y-85052380D01*
X170466666Y-85052380D02*
X169895238Y-85052380D01*
X170180952Y-85052380D02*
X170180952Y-84052380D01*
X170085714Y-84195238D01*
X169990476Y-84290476D01*
X169895238Y-84338095D01*
%TO.C,U1*%
X139963095Y-107702380D02*
X139963095Y-108511904D01*
X140010714Y-108607142D01*
X140058333Y-108654761D01*
X140153571Y-108702380D01*
X140344047Y-108702380D01*
X140439285Y-108654761D01*
X140486904Y-108607142D01*
X140534523Y-108511904D01*
X140534523Y-107702380D01*
X141534523Y-108702380D02*
X140963095Y-108702380D01*
X141248809Y-108702380D02*
X141248809Y-107702380D01*
X141153571Y-107845238D01*
X141058333Y-107940476D01*
X140963095Y-107988095D01*
D11*
%TO.C,J1*%
X173160000Y-83940000D02*
X171040000Y-83940000D01*
X171040000Y-90000000D02*
X171040000Y-83940000D01*
X173160000Y-90000000D02*
X173160000Y-83940000D01*
X173160000Y-90000000D02*
X171040000Y-90000000D01*
X173160000Y-91000000D02*
X173160000Y-92060000D01*
X173160000Y-92060000D02*
X172100000Y-92060000D01*
D12*
%TO.C,U1*%
X143000000Y-107000000D02*
X143000000Y-93000000D01*
X157000000Y-93000000D02*
X143000000Y-93000000D01*
X157000000Y-107000000D02*
X157000000Y-93000000D01*
X157000000Y-107000000D02*
X143000000Y-107000000D01*
%TD*%
M02*
