%TF.GenerationSoftware,KiCad,Pcbnew,(6.0.1)*%
%TF.CreationDate,2022-03-24T20:43:30-07:00*%
%TF.ProjectId,PhobGCC,50686f62-4743-4432-9e6b-696361645f70,rev?*%
%TF.SameCoordinates,Original*%
%TF.FileFunction,Legend,Top*%
%TF.FilePolarity,Positive*%
%FSLAX46Y46*%
G04 Gerber Fmt 4.6, Leading zero omitted, Abs format (unit mm)*
G04 Created by KiCad (PCBNEW (6.0.1)) date 2022-03-24 20:43:30*
%MOMM*%
%LPD*%
G01*
G04 APERTURE LIST*
G04 Aperture macros list*
%AMRoundRect*
0 Rectangle with rounded corners*
0 $1 Rounding radius*
0 $2 $3 $4 $5 $6 $7 $8 $9 X,Y pos of 4 corners*
0 Add a 4 corners polygon primitive as box body*
4,1,4,$2,$3,$4,$5,$6,$7,$8,$9,$2,$3,0*
0 Add four circle primitives for the rounded corners*
1,1,$1+$1,$2,$3*
1,1,$1+$1,$4,$5*
1,1,$1+$1,$6,$7*
1,1,$1+$1,$8,$9*
0 Add four rect primitives between the rounded corners*
20,1,$1+$1,$2,$3,$4,$5,0*
20,1,$1+$1,$4,$5,$6,$7,0*
20,1,$1+$1,$6,$7,$8,$9,0*
20,1,$1+$1,$8,$9,$2,$3,0*%
%AMHorizOval*
0 Thick line with rounded ends*
0 $1 width*
0 $2 $3 position (X,Y) of the first rounded end (center of the circle)*
0 $4 $5 position (X,Y) of the second rounded end (center of the circle)*
0 Add line between two ends*
20,1,$1,$2,$3,$4,$5,0*
0 Add two circle primitives to create the rounded ends*
1,1,$1,$2,$3*
1,1,$1,$4,$5*%
%AMFreePoly0*
4,1,175,0.155291,0.579555,0.300000,0.519615,0.424264,0.424264,0.519615,0.300000,0.579555,0.155291,0.600000,0.000000,0.579555,-0.155291,0.519615,-0.300000,0.493377,-0.334194,0.502024,-0.569707,0.680699,-0.618838,0.680812,-0.618926,0.680955,-0.618916,0.820128,-0.665337,0.820275,-0.665464,0.820471,-0.665465,0.978527,-0.731380,0.978630,-0.731484,0.978774,-0.731492,1.141505,-0.809990,
1.141599,-0.810095,1.141740,-0.810111,1.294939,-0.894281,1.295052,-0.894421,1.295228,-0.894453,1.424686,-0.977385,1.424769,-0.977504,1.424910,-0.977537,1.438978,-0.987664,1.439075,-0.987820,1.439249,-0.987874,1.692796,-1.198206,1.692954,-1.198505,1.693259,-1.198644,1.913133,-1.434386,1.913254,-1.434710,1.913547,-1.434893,2.100356,-1.696852,2.100433,-1.697183,2.100695,-1.697399,
2.255053,-1.986383,2.255078,-1.986637,2.255258,-1.986816,2.328043,-2.161522,2.328043,-2.161686,2.328153,-2.161810,2.355053,-2.239565,2.355047,-2.239658,2.355108,-2.239731,2.384228,-2.334520,2.384222,-2.334583,2.384262,-2.334634,2.412657,-2.435453,2.412650,-2.435512,2.412686,-2.435560,2.437410,-2.531403,2.437399,-2.531482,2.437444,-2.531546,2.455550,-2.611405,2.455522,-2.611569,
2.455610,-2.611712,2.464152,-2.664581,2.464083,-2.664873,2.464211,-2.665145,2.464514,-2.671642,2.464224,-2.672447,2.464313,-2.673298,2.463600,-2.674177,2.463216,-2.675242,2.462440,-2.675607,2.461902,-2.676270,2.454210,-2.680442,2.453335,-2.680534,2.452583,-2.680989,2.428175,-2.684727,2.427981,-2.684680,2.427803,-2.684770,2.384760,-2.688095,2.384682,-2.688069,2.384606,-2.688105,
2.321008,-2.691038,2.320967,-2.691023,2.320927,-2.691041,2.234856,-2.693602,2.234831,-2.693593,2.234807,-2.693603,2.124341,-2.695813,2.124326,-2.695807,2.124310,-2.695814,1.987531,-2.697694,1.987520,-2.697689,1.987509,-2.697694,1.822497,-2.699263,1.822489,-2.699260,1.822482,-2.699263,1.627317,-2.700543,1.627311,-2.700541,1.627306,-2.700543,1.400067,-2.701554,1.400063,-2.701553,
1.400060,-2.701554,1.138828,-2.702318,1.138825,-2.702317,1.138822,-2.702318,0.841677,-2.702853,0.841675,-2.702852,0.841673,-2.702853,0.506697,-2.703182,0.506695,-2.703181,0.506694,-2.703182,0.131965,-2.703324,0.131963,-2.703324,-0.006653,-2.703334,-2.472973,-2.703334,-2.473476,-2.703126,-2.474012,-2.703225,-2.475189,-2.702416,-2.476509,-2.701870,-2.476717,-2.701367,-2.477167,-2.701058,
-2.477428,-2.699652,-2.477973,-2.698334,-2.477765,-2.697831,-2.477864,-2.697295,-2.467742,-2.649669,-2.467690,-2.649594,-2.467704,-2.649504,-2.393038,-2.348902,-2.392906,-2.348724,-2.392921,-2.348503,-2.302471,-2.081505,-2.302293,-2.081301,-2.302283,-2.081033,-2.192527,-1.840726,-2.192308,-1.840522,-2.192264,-1.840227,-2.059679,-1.619696,-2.059442,-1.619520,-2.059365,-1.619233,-1.900428,-1.411562,
-1.900225,-1.411444,-1.900144,-1.411222,-1.757629,-1.255770,-1.757406,-1.255666,-1.757301,-1.255445,-1.587492,-1.101500,-1.587243,-1.101411,-1.587108,-1.101186,-1.392497,-0.957162,-1.392274,-0.957106,-1.392138,-0.956919,-1.182180,-0.828103,-1.181956,-0.828067,-1.181808,-0.827896,-0.965959,-0.719577,-0.965709,-0.719559,-0.965528,-0.719386,-0.753244,-0.636853,-0.752939,-0.636860,-0.752697,-0.636676,
-0.561814,-0.586761,-0.561628,-0.586787,-0.561471,-0.586684,-0.493291,-0.573893,-0.486952,-0.342568,-0.519615,-0.300000,-0.579555,-0.155291,-0.600000,0.000000,-0.579555,0.155291,-0.519615,0.300000,-0.424264,0.424264,-0.300000,0.519615,-0.155291,0.579555,0.000000,0.600000,0.155291,0.579555,0.155291,0.579555,$1*%
%AMFreePoly1*
4,1,174,-0.019208,2.667285,-0.019207,2.667285,0.299634,2.666361,0.299636,2.666360,0.299638,2.666361,0.606649,2.665242,0.606651,2.665241,0.606653,2.665242,0.899182,2.663949,0.899184,2.663948,0.899186,2.663949,1.174582,2.662504,1.174584,2.662503,1.174587,2.662504,1.430197,2.660927,1.430199,2.660926,1.430202,2.660927,1.663376,2.659242,1.663379,2.659241,1.663383,2.659242,
1.871468,2.657470,1.871472,2.657468,1.871476,2.657470,2.051821,2.655631,2.051827,2.655629,2.051833,2.655631,2.201786,2.653749,2.201796,2.653745,2.201804,2.653748,2.318714,2.651843,2.318731,2.651836,2.318749,2.651843,2.399962,2.649938,2.400013,2.649915,2.400065,2.649934,2.442931,2.648049,2.443182,2.647932,2.443453,2.647999,2.449682,2.647066,2.450911,2.646327,
2.452271,2.645853,2.452504,2.645369,2.452962,2.645094,2.453308,2.643703,2.453934,2.642406,2.455454,2.615763,2.455261,2.615210,2.455391,2.614639,2.445459,2.556273,2.445372,2.556135,2.445399,2.555974,2.426284,2.474209,2.426232,2.474137,2.426244,2.474049,2.400212,2.377211,2.400170,2.377156,2.400177,2.377089,2.369499,2.273503,2.369457,2.273451,2.369462,2.273382,
2.336403,2.171372,2.336347,2.171306,2.336351,2.171219,2.303181,2.079110,2.303131,2.079055,2.303132,2.078978,2.295085,2.058467,2.294946,2.058323,2.294935,2.058125,2.162282,1.782502,2.162028,1.782275,2.161965,1.781939,1.992975,1.522794,1.992707,1.522610,1.992608,1.522300,1.791554,1.284146,1.791270,1.283999,1.791137,1.283708,1.562289,1.071060,1.561985,1.070947,
1.561816,1.070672,1.309446,0.888044,1.309130,0.887969,1.308927,0.887715,1.055251,0.748010,1.054994,0.747981,1.054814,0.747797,0.944796,0.700478,0.944675,0.700476,0.944587,0.700394,0.807393,0.648557,0.807306,0.648560,0.807240,0.648502,0.656931,0.597217,0.656850,0.597222,0.656787,0.597170,0.524683,0.556518,0.515492,0.535464,0.505951,0.473111,0.497340,0.373735,
0.495056,0.332006,0.519615,0.300000,0.579555,0.155291,0.600000,0.000000,0.579555,-0.155291,0.519615,-0.300000,0.424264,-0.424264,0.300000,-0.519615,0.155291,-0.579555,0.000000,-0.600000,-0.155291,-0.579555,-0.300000,-0.519615,-0.424264,-0.424264,-0.519615,-0.300000,-0.579555,-0.155291,-0.600000,0.000000,-0.579555,0.155291,-0.519615,0.300000,-0.490233,0.338292,-0.497945,0.551511,
-0.642508,0.589108,-0.642653,0.589218,-0.642835,0.589205,-0.935946,0.687177,-0.936216,0.687411,-0.936574,0.687435,-1.214879,0.824820,-1.215109,0.825082,-1.215452,0.825151,-1.478167,1.001419,-1.478351,1.001695,-1.478665,1.001801,-1.725011,1.216422,-1.725149,1.216699,-1.725429,1.216831,-1.954623,1.469276,-1.954676,1.469424,-1.954814,1.469499,-1.970792,1.489319,-1.970816,1.489402,
-1.970891,1.489446,-2.080076,1.634214,-2.080124,1.634401,-2.080284,1.634511,-2.171751,1.776072,-2.171793,1.776303,-2.171972,1.776451,-2.249338,1.922991,-2.249360,1.923226,-2.249528,1.923393,-2.316403,2.083097,-2.316404,2.083301,-2.316537,2.083455,-2.376536,2.264509,-2.376525,2.264660,-2.376618,2.264781,-2.433355,2.475371,-2.433344,2.475454,-2.433392,2.475520,-2.464817,2.608216,
-2.464813,2.608238,-2.464827,2.608257,-2.478305,2.667376,-2.478206,2.667956,-2.478430,2.668500,-2.477897,2.669778,-2.477664,2.671149,-2.477183,2.671490,-2.476957,2.672032,-2.475673,2.672560,-2.474541,2.673362,-2.473961,2.673263,-2.473417,2.673487,-0.019208,2.667285,-0.019208,2.667285,$1*%
%AMFreePoly2*
4,1,52,0.073905,0.494508,0.209726,0.453889,0.328688,0.376782,0.421226,0.269385,0.479903,0.140333,0.500000,0.000000,0.499851,-0.012216,0.493270,-0.051334,2.240667,-0.051334,2.244203,-0.052798,2.245667,-0.056334,2.245667,-5.115167,2.244203,-5.118703,2.240667,-5.120167,1.669167,-5.120167,1.665631,-5.118703,1.664167,-5.115167,1.664167,-0.632834,0.213667,-0.632834,0.213667,-5.115167,
0.212203,-5.118703,0.208667,-5.120167,-0.384000,-5.120167,-0.387536,-5.118703,-0.389000,-5.115167,-0.389000,-0.632834,-1.860666,-0.632834,-1.860666,-5.115167,-1.862130,-5.118703,-1.865666,-5.120167,-2.437166,-5.120167,-2.440702,-5.118703,-2.442166,-5.115167,-2.442166,-0.056334,-2.440702,-0.052798,-2.437166,-0.051334,-0.540331,-0.051334,-0.516310,0.048800,-0.516081,0.049116,-0.516084,0.049507,
-0.478875,0.141542,-0.478152,0.146186,-0.469840,0.163891,-0.466788,0.171439,-0.466264,0.171972,-0.466055,0.172692,-0.465216,0.173739,-0.417904,0.274511,-0.324060,0.380769,-0.204165,0.456417,-0.067858,0.495374,0.073905,0.494508,0.073905,0.494508,$1*%
%AMFreePoly3*
4,1,74,2.426383,5.069651,2.428131,5.068968,2.428153,5.068918,2.428203,5.068897,2.428915,5.067177,2.429666,5.065462,2.429646,5.065411,2.429667,5.065361,2.429667,0.026500,2.428203,0.022964,2.424667,0.021500,1.697721,0.021500,1.514570,0.021092,1.334660,0.019937,1.164980,0.018134,1.164978,0.018135,1.012625,0.015785,1.012624,0.015784,0.884489,0.012987,0.884488,0.012987,
0.787775,0.009847,0.749088,0.007927,0.530743,-0.005432,0.508394,-0.088993,0.508170,-0.089285,0.508167,-0.089653,0.458855,-0.205995,0.458401,-0.206442,0.458241,-0.207057,0.434305,-0.238758,0.414519,-0.279596,0.319384,-0.384700,0.198574,-0.458877,0.061801,-0.496166,-0.079941,-0.493568,-0.215256,-0.451293,-0.333266,-0.372738,-0.424486,-0.264219,-0.481581,-0.134460,-0.499963,0.006109,
-0.498457,0.015784,-0.497567,0.021500,-2.253166,0.021500,-2.256702,0.022964,-2.258166,0.026500,-2.258166,5.064166,-2.256702,5.067702,-2.253166,5.069166,-1.681666,5.069166,-1.678130,5.067702,-1.676666,5.064166,-1.676666,0.581833,-0.205000,0.581833,-0.205000,5.064166,-0.203536,5.067702,-0.200000,5.069166,0.371500,5.069166,0.375036,5.067702,0.376500,5.064166,0.376500,0.581833,
1.826819,0.581833,1.832195,2.815220,1.837584,5.053595,1.838292,5.055293,1.838977,5.057047,1.839034,5.057072,1.839057,5.057127,1.840742,5.057820,1.842483,5.058582,2.133524,5.064471,2.424566,5.070360,2.424617,5.070340,2.424667,5.070361,2.426383,5.069651,2.426383,5.069651,$1*%
G04 Aperture macros list end*
%ADD10C,0.100000*%
%ADD11C,0.300000*%
%ADD12C,0.150000*%
%ADD13C,0.120000*%
%ADD14C,0.127000*%
%ADD15C,0.010000*%
%ADD16C,3.560000*%
%ADD17C,3.560001*%
%ADD18RoundRect,0.150000X0.587500X0.150000X-0.587500X0.150000X-0.587500X-0.150000X0.587500X-0.150000X0*%
%ADD19RoundRect,0.237500X0.237500X-0.300000X0.237500X0.300000X-0.237500X0.300000X-0.237500X-0.300000X0*%
%ADD20RoundRect,0.237500X0.300000X0.237500X-0.300000X0.237500X-0.300000X-0.237500X0.300000X-0.237500X0*%
%ADD21RoundRect,0.237500X-0.300000X-0.237500X0.300000X-0.237500X0.300000X0.237500X-0.300000X0.237500X0*%
%ADD22C,1.524000*%
%ADD23C,1.498000*%
%ADD24FreePoly0,0.000000*%
%ADD25FreePoly1,0.000000*%
%ADD26HorizOval,1.600000X-0.026168X-0.499315X0.026168X0.499315X0*%
%ADD27C,1.600000*%
%ADD28C,2.000000*%
%ADD29HorizOval,2.800000X-0.568661X0.191376X0.568661X-0.191376X0*%
%ADD30HorizOval,0.800000X-0.031402X-0.599178X0.031402X0.599178X0*%
%ADD31HorizOval,0.800000X-0.599178X0.031402X0.599178X-0.031402X0*%
%ADD32R,1.200000X0.750000*%
%ADD33FreePoly2,0.000000*%
%ADD34FreePoly3,0.000000*%
%ADD35R,1.700000X1.700000*%
%ADD36C,5.200000*%
%ADD37C,1.800000*%
%ADD38C,2.400000*%
%ADD39C,2.200000*%
%ADD40O,2.800000X2.200000*%
%ADD41R,1.000000X0.700000*%
%ADD42RoundRect,0.237500X0.250000X0.237500X-0.250000X0.237500X-0.250000X-0.237500X0.250000X-0.237500X0*%
%ADD43R,1.100000X1.100000*%
%ADD44RoundRect,0.237500X-0.250000X-0.237500X0.250000X-0.237500X0.250000X0.237500X-0.250000X0.237500X0*%
%ADD45O,1.700000X1.700000*%
%ADD46RoundRect,0.237500X0.237500X-0.250000X0.237500X0.250000X-0.237500X0.250000X-0.237500X-0.250000X0*%
%ADD47O,1.600000X2.500000*%
%ADD48C,1.400000*%
%ADD49R,1.350000X1.350000*%
%ADD50O,1.350000X1.350000*%
%ADD51R,1.400000X1.400000*%
%ADD52O,1.400000X1.400000*%
G04 APERTURE END LIST*
D10*
X63000000Y-105000000D02*
X51500000Y-105000000D01*
X51500000Y-105000000D02*
X51500000Y-99000000D01*
X51500000Y-99000000D02*
X63000000Y-99000000D01*
X63000000Y-99000000D02*
X63000000Y-105000000D01*
G36*
X63000000Y-105000000D02*
G01*
X51500000Y-105000000D01*
X51500000Y-99000000D01*
X63000000Y-99000000D01*
X63000000Y-105000000D01*
G37*
X63000000Y-105000000D02*
X51500000Y-105000000D01*
X51500000Y-99000000D01*
X63000000Y-99000000D01*
X63000000Y-105000000D01*
D11*
X67071428Y-64521428D02*
X67142857Y-64450000D01*
X67285714Y-64378571D01*
X67642857Y-64378571D01*
X67785714Y-64450000D01*
X67857142Y-64521428D01*
X67928571Y-64664285D01*
X67928571Y-64807142D01*
X67857142Y-65021428D01*
X67000000Y-65878571D01*
X67928571Y-65878571D01*
X68857142Y-64378571D02*
X69000000Y-64378571D01*
X69142857Y-64450000D01*
X69214285Y-64521428D01*
X69285714Y-64664285D01*
X69357142Y-64950000D01*
X69357142Y-65307142D01*
X69285714Y-65592857D01*
X69214285Y-65735714D01*
X69142857Y-65807142D01*
X69000000Y-65878571D01*
X68857142Y-65878571D01*
X68714285Y-65807142D01*
X68642857Y-65735714D01*
X68571428Y-65592857D01*
X68500000Y-65307142D01*
X68500000Y-64950000D01*
X68571428Y-64664285D01*
X68642857Y-64521428D01*
X68714285Y-64450000D01*
X68857142Y-64378571D01*
X69928571Y-64521428D02*
X70000000Y-64450000D01*
X70142857Y-64378571D01*
X70500000Y-64378571D01*
X70642857Y-64450000D01*
X70714285Y-64521428D01*
X70785714Y-64664285D01*
X70785714Y-64807142D01*
X70714285Y-65021428D01*
X69857142Y-65878571D01*
X70785714Y-65878571D01*
X71357142Y-64521428D02*
X71428571Y-64450000D01*
X71571428Y-64378571D01*
X71928571Y-64378571D01*
X72071428Y-64450000D01*
X72142857Y-64521428D01*
X72214285Y-64664285D01*
X72214285Y-64807142D01*
X72142857Y-65021428D01*
X71285714Y-65878571D01*
X72214285Y-65878571D01*
X73142857Y-64378571D02*
X73285714Y-64378571D01*
X73428571Y-64450000D01*
X73500000Y-64521428D01*
X73571428Y-64664285D01*
X73642857Y-64950000D01*
X73642857Y-65307142D01*
X73571428Y-65592857D01*
X73500000Y-65735714D01*
X73428571Y-65807142D01*
X73285714Y-65878571D01*
X73142857Y-65878571D01*
X73000000Y-65807142D01*
X72928571Y-65735714D01*
X72857142Y-65592857D01*
X72785714Y-65307142D01*
X72785714Y-64950000D01*
X72857142Y-64664285D01*
X72928571Y-64521428D01*
X73000000Y-64450000D01*
X73142857Y-64378571D01*
X74142857Y-64378571D02*
X75071428Y-64378571D01*
X74571428Y-64950000D01*
X74785714Y-64950000D01*
X74928571Y-65021428D01*
X75000000Y-65092857D01*
X75071428Y-65235714D01*
X75071428Y-65592857D01*
X75000000Y-65735714D01*
X74928571Y-65807142D01*
X74785714Y-65878571D01*
X74357142Y-65878571D01*
X74214285Y-65807142D01*
X74142857Y-65735714D01*
X75642857Y-64521428D02*
X75714285Y-64450000D01*
X75857142Y-64378571D01*
X76214285Y-64378571D01*
X76357142Y-64450000D01*
X76428571Y-64521428D01*
X76500000Y-64664285D01*
X76500000Y-64807142D01*
X76428571Y-65021428D01*
X75571428Y-65878571D01*
X76500000Y-65878571D01*
X77785714Y-64878571D02*
X77785714Y-65878571D01*
X77428571Y-64307142D02*
X77071428Y-65378571D01*
X78000000Y-65378571D01*
X64319047Y-63409523D02*
X64319047Y-59409523D01*
X65080952Y-59409523D01*
X65271428Y-59600000D01*
X65366666Y-59790476D01*
X65461904Y-60171428D01*
X65461904Y-60742857D01*
X65366666Y-61123809D01*
X65271428Y-61314285D01*
X65080952Y-61504761D01*
X64319047Y-61504761D01*
X66319047Y-63409523D02*
X66319047Y-59409523D01*
X67176190Y-63409523D02*
X67176190Y-61314285D01*
X67080952Y-60933333D01*
X66890476Y-60742857D01*
X66604761Y-60742857D01*
X66414285Y-60933333D01*
X66319047Y-61123809D01*
X68414285Y-63409523D02*
X68223809Y-63219047D01*
X68128571Y-63028571D01*
X68033333Y-62647619D01*
X68033333Y-61504761D01*
X68128571Y-61123809D01*
X68223809Y-60933333D01*
X68414285Y-60742857D01*
X68700000Y-60742857D01*
X68890476Y-60933333D01*
X68985714Y-61123809D01*
X69080952Y-61504761D01*
X69080952Y-62647619D01*
X68985714Y-63028571D01*
X68890476Y-63219047D01*
X68700000Y-63409523D01*
X68414285Y-63409523D01*
X69938095Y-63409523D02*
X69938095Y-59409523D01*
X69938095Y-60933333D02*
X70128571Y-60742857D01*
X70509523Y-60742857D01*
X70700000Y-60933333D01*
X70795238Y-61123809D01*
X70890476Y-61504761D01*
X70890476Y-62647619D01*
X70795238Y-63028571D01*
X70700000Y-63219047D01*
X70509523Y-63409523D01*
X70128571Y-63409523D01*
X69938095Y-63219047D01*
X72795238Y-59600000D02*
X72604761Y-59409523D01*
X72319047Y-59409523D01*
X72033333Y-59600000D01*
X71842857Y-59980952D01*
X71747619Y-60361904D01*
X71652380Y-61123809D01*
X71652380Y-61695238D01*
X71747619Y-62457142D01*
X71842857Y-62838095D01*
X72033333Y-63219047D01*
X72319047Y-63409523D01*
X72509523Y-63409523D01*
X72795238Y-63219047D01*
X72890476Y-63028571D01*
X72890476Y-61695238D01*
X72509523Y-61695238D01*
X74890476Y-63028571D02*
X74795238Y-63219047D01*
X74509523Y-63409523D01*
X74319047Y-63409523D01*
X74033333Y-63219047D01*
X73842857Y-62838095D01*
X73747619Y-62457142D01*
X73652380Y-61695238D01*
X73652380Y-61123809D01*
X73747619Y-60361904D01*
X73842857Y-59980952D01*
X74033333Y-59600000D01*
X74319047Y-59409523D01*
X74509523Y-59409523D01*
X74795238Y-59600000D01*
X74890476Y-59790476D01*
X76890476Y-63028571D02*
X76795238Y-63219047D01*
X76509523Y-63409523D01*
X76319047Y-63409523D01*
X76033333Y-63219047D01*
X75842857Y-62838095D01*
X75747619Y-62457142D01*
X75652380Y-61695238D01*
X75652380Y-61123809D01*
X75747619Y-60361904D01*
X75842857Y-59980952D01*
X76033333Y-59600000D01*
X76319047Y-59409523D01*
X76509523Y-59409523D01*
X76795238Y-59600000D01*
X76890476Y-59790476D01*
X80319047Y-63409523D02*
X79176190Y-63409523D01*
X79747619Y-63409523D02*
X79747619Y-59409523D01*
X79557142Y-59980952D01*
X79366666Y-60361904D01*
X79176190Y-60552380D01*
X81176190Y-63028571D02*
X81271428Y-63219047D01*
X81176190Y-63409523D01*
X81080952Y-63219047D01*
X81176190Y-63028571D01*
X81176190Y-63409523D01*
X82033333Y-59790476D02*
X82128571Y-59600000D01*
X82319047Y-59409523D01*
X82795238Y-59409523D01*
X82985714Y-59600000D01*
X83080952Y-59790476D01*
X83176190Y-60171428D01*
X83176190Y-60552380D01*
X83080952Y-61123809D01*
X81938095Y-63409523D01*
X83176190Y-63409523D01*
D12*
X91004761Y-57247619D02*
X90909523Y-57200000D01*
X90814285Y-57104761D01*
X90671428Y-56961904D01*
X90576190Y-56914285D01*
X90480952Y-56914285D01*
X90528571Y-57152380D02*
X90433333Y-57104761D01*
X90338095Y-57009523D01*
X90290476Y-56819047D01*
X90290476Y-56485714D01*
X90338095Y-56295238D01*
X90433333Y-56200000D01*
X90528571Y-56152380D01*
X90719047Y-56152380D01*
X90814285Y-56200000D01*
X90909523Y-56295238D01*
X90957142Y-56485714D01*
X90957142Y-56819047D01*
X90909523Y-57009523D01*
X90814285Y-57104761D01*
X90719047Y-57152380D01*
X90528571Y-57152380D01*
X91909523Y-57152380D02*
X91338095Y-57152380D01*
X91623809Y-57152380D02*
X91623809Y-56152380D01*
X91528571Y-56295238D01*
X91433333Y-56390476D01*
X91338095Y-56438095D01*
X169127142Y-98292857D02*
X169174761Y-98340476D01*
X169222380Y-98483333D01*
X169222380Y-98578571D01*
X169174761Y-98721428D01*
X169079523Y-98816666D01*
X168984285Y-98864285D01*
X168793809Y-98911904D01*
X168650952Y-98911904D01*
X168460476Y-98864285D01*
X168365238Y-98816666D01*
X168270000Y-98721428D01*
X168222380Y-98578571D01*
X168222380Y-98483333D01*
X168270000Y-98340476D01*
X168317619Y-98292857D01*
X169222380Y-97340476D02*
X169222380Y-97911904D01*
X169222380Y-97626190D02*
X168222380Y-97626190D01*
X168365238Y-97721428D01*
X168460476Y-97816666D01*
X168508095Y-97911904D01*
X168317619Y-96959523D02*
X168270000Y-96911904D01*
X168222380Y-96816666D01*
X168222380Y-96578571D01*
X168270000Y-96483333D01*
X168317619Y-96435714D01*
X168412857Y-96388095D01*
X168508095Y-96388095D01*
X168650952Y-96435714D01*
X169222380Y-97007142D01*
X169222380Y-96388095D01*
X53357142Y-86187142D02*
X53309523Y-86234761D01*
X53166666Y-86282380D01*
X53071428Y-86282380D01*
X52928571Y-86234761D01*
X52833333Y-86139523D01*
X52785714Y-86044285D01*
X52738095Y-85853809D01*
X52738095Y-85710952D01*
X52785714Y-85520476D01*
X52833333Y-85425238D01*
X52928571Y-85330000D01*
X53071428Y-85282380D01*
X53166666Y-85282380D01*
X53309523Y-85330000D01*
X53357142Y-85377619D01*
X54309523Y-86282380D02*
X53738095Y-86282380D01*
X54023809Y-86282380D02*
X54023809Y-85282380D01*
X53928571Y-85425238D01*
X53833333Y-85520476D01*
X53738095Y-85568095D01*
X55261904Y-86282380D02*
X54690476Y-86282380D01*
X54976190Y-86282380D02*
X54976190Y-85282380D01*
X54880952Y-85425238D01*
X54785714Y-85520476D01*
X54690476Y-85568095D01*
X144607142Y-79687142D02*
X144559523Y-79734761D01*
X144416666Y-79782380D01*
X144321428Y-79782380D01*
X144178571Y-79734761D01*
X144083333Y-79639523D01*
X144035714Y-79544285D01*
X143988095Y-79353809D01*
X143988095Y-79210952D01*
X144035714Y-79020476D01*
X144083333Y-78925238D01*
X144178571Y-78830000D01*
X144321428Y-78782380D01*
X144416666Y-78782380D01*
X144559523Y-78830000D01*
X144607142Y-78877619D01*
X145559523Y-79782380D02*
X144988095Y-79782380D01*
X145273809Y-79782380D02*
X145273809Y-78782380D01*
X145178571Y-78925238D01*
X145083333Y-79020476D01*
X144988095Y-79068095D01*
X146178571Y-78782380D02*
X146273809Y-78782380D01*
X146369047Y-78830000D01*
X146416666Y-78877619D01*
X146464285Y-78972857D01*
X146511904Y-79163333D01*
X146511904Y-79401428D01*
X146464285Y-79591904D01*
X146416666Y-79687142D01*
X146369047Y-79734761D01*
X146273809Y-79782380D01*
X146178571Y-79782380D01*
X146083333Y-79734761D01*
X146035714Y-79687142D01*
X145988095Y-79591904D01*
X145940476Y-79401428D01*
X145940476Y-79163333D01*
X145988095Y-78972857D01*
X146035714Y-78877619D01*
X146083333Y-78830000D01*
X146178571Y-78782380D01*
X132483333Y-70327142D02*
X132435714Y-70374761D01*
X132292857Y-70422380D01*
X132197619Y-70422380D01*
X132054761Y-70374761D01*
X131959523Y-70279523D01*
X131911904Y-70184285D01*
X131864285Y-69993809D01*
X131864285Y-69850952D01*
X131911904Y-69660476D01*
X131959523Y-69565238D01*
X132054761Y-69470000D01*
X132197619Y-69422380D01*
X132292857Y-69422380D01*
X132435714Y-69470000D01*
X132483333Y-69517619D01*
X133054761Y-69850952D02*
X132959523Y-69803333D01*
X132911904Y-69755714D01*
X132864285Y-69660476D01*
X132864285Y-69612857D01*
X132911904Y-69517619D01*
X132959523Y-69470000D01*
X133054761Y-69422380D01*
X133245238Y-69422380D01*
X133340476Y-69470000D01*
X133388095Y-69517619D01*
X133435714Y-69612857D01*
X133435714Y-69660476D01*
X133388095Y-69755714D01*
X133340476Y-69803333D01*
X133245238Y-69850952D01*
X133054761Y-69850952D01*
X132959523Y-69898571D01*
X132911904Y-69946190D01*
X132864285Y-70041428D01*
X132864285Y-70231904D01*
X132911904Y-70327142D01*
X132959523Y-70374761D01*
X133054761Y-70422380D01*
X133245238Y-70422380D01*
X133340476Y-70374761D01*
X133388095Y-70327142D01*
X133435714Y-70231904D01*
X133435714Y-70041428D01*
X133388095Y-69946190D01*
X133340476Y-69898571D01*
X133245238Y-69850952D01*
X161371144Y-66927597D02*
X161307117Y-66855392D01*
X161174973Y-66779099D01*
X161106857Y-66775011D01*
X161065170Y-66786181D01*
X161008224Y-66823780D01*
X160977707Y-66876637D01*
X160973618Y-66944753D01*
X160984788Y-66986440D01*
X161022387Y-67043386D01*
X161112843Y-67130849D01*
X161150442Y-67187795D01*
X161161612Y-67229483D01*
X161157524Y-67297599D01*
X161127007Y-67350456D01*
X161070061Y-67388055D01*
X161028373Y-67399225D01*
X160960257Y-67395136D01*
X160828114Y-67318843D01*
X160764086Y-67246639D01*
X160563827Y-67166257D02*
X160752114Y-66534961D01*
X160417520Y-66870357D01*
X160540685Y-66412892D01*
X160088110Y-66891602D01*
X159934722Y-66485899D02*
X159972321Y-66542845D01*
X159983491Y-66584532D01*
X159979402Y-66652648D01*
X159964144Y-66679077D01*
X159907198Y-66716676D01*
X159865510Y-66727846D01*
X159797394Y-66723757D01*
X159691679Y-66662723D01*
X159654081Y-66605777D01*
X159642911Y-66564089D01*
X159646999Y-66495973D01*
X159662258Y-66469545D01*
X159719204Y-66431946D01*
X159760891Y-66420776D01*
X159829007Y-66424864D01*
X159934722Y-66485899D01*
X160002838Y-66489987D01*
X160044525Y-66478817D01*
X160101471Y-66441219D01*
X160162506Y-66335504D01*
X160166594Y-66267388D01*
X160155424Y-66225700D01*
X160117825Y-66168754D01*
X160012110Y-66107720D01*
X159943994Y-66103631D01*
X159902307Y-66114802D01*
X159845361Y-66152400D01*
X159784327Y-66258115D01*
X159780238Y-66326231D01*
X159791408Y-66367918D01*
X159829007Y-66424864D01*
X62267799Y-88413256D02*
X62225432Y-89221670D01*
X62268001Y-89319270D01*
X62313063Y-89369316D01*
X62405678Y-89421854D01*
X62595893Y-89431823D01*
X62693493Y-89389254D01*
X62743539Y-89344192D01*
X62796077Y-89251577D01*
X62838445Y-88443162D01*
X63261444Y-88560699D02*
X63311490Y-88515638D01*
X63409090Y-88473068D01*
X63646859Y-88485529D01*
X63739474Y-88538068D01*
X63784536Y-88588114D01*
X63827105Y-88685713D01*
X63822121Y-88780821D01*
X63767091Y-88920990D01*
X63166539Y-89461729D01*
X63784738Y-89494128D01*
X95833333Y-76357142D02*
X95785714Y-76404761D01*
X95642857Y-76452380D01*
X95547619Y-76452380D01*
X95404761Y-76404761D01*
X95309523Y-76309523D01*
X95261904Y-76214285D01*
X95214285Y-76023809D01*
X95214285Y-75880952D01*
X95261904Y-75690476D01*
X95309523Y-75595238D01*
X95404761Y-75500000D01*
X95547619Y-75452380D01*
X95642857Y-75452380D01*
X95785714Y-75500000D01*
X95833333Y-75547619D01*
X96214285Y-75547619D02*
X96261904Y-75500000D01*
X96357142Y-75452380D01*
X96595238Y-75452380D01*
X96690476Y-75500000D01*
X96738095Y-75547619D01*
X96785714Y-75642857D01*
X96785714Y-75738095D01*
X96738095Y-75880952D01*
X96166666Y-76452380D01*
X96785714Y-76452380D01*
X91833333Y-72857142D02*
X91785714Y-72904761D01*
X91642857Y-72952380D01*
X91547619Y-72952380D01*
X91404761Y-72904761D01*
X91309523Y-72809523D01*
X91261904Y-72714285D01*
X91214285Y-72523809D01*
X91214285Y-72380952D01*
X91261904Y-72190476D01*
X91309523Y-72095238D01*
X91404761Y-72000000D01*
X91547619Y-71952380D01*
X91642857Y-71952380D01*
X91785714Y-72000000D01*
X91833333Y-72047619D01*
X92785714Y-72952380D02*
X92214285Y-72952380D01*
X92500000Y-72952380D02*
X92500000Y-71952380D01*
X92404761Y-72095238D01*
X92309523Y-72190476D01*
X92214285Y-72238095D01*
X92333333Y-67357142D02*
X92285714Y-67404761D01*
X92142857Y-67452380D01*
X92047619Y-67452380D01*
X91904761Y-67404761D01*
X91809523Y-67309523D01*
X91761904Y-67214285D01*
X91714285Y-67023809D01*
X91714285Y-66880952D01*
X91761904Y-66690476D01*
X91809523Y-66595238D01*
X91904761Y-66500000D01*
X92047619Y-66452380D01*
X92142857Y-66452380D01*
X92285714Y-66500000D01*
X92333333Y-66547619D01*
X92666666Y-66452380D02*
X93333333Y-66452380D01*
X92904761Y-67452380D01*
X132633333Y-62857142D02*
X132585714Y-62904761D01*
X132442857Y-62952380D01*
X132347619Y-62952380D01*
X132204761Y-62904761D01*
X132109523Y-62809523D01*
X132061904Y-62714285D01*
X132014285Y-62523809D01*
X132014285Y-62380952D01*
X132061904Y-62190476D01*
X132109523Y-62095238D01*
X132204761Y-62000000D01*
X132347619Y-61952380D01*
X132442857Y-61952380D01*
X132585714Y-62000000D01*
X132633333Y-62047619D01*
X132966666Y-61952380D02*
X133585714Y-61952380D01*
X133252380Y-62333333D01*
X133395238Y-62333333D01*
X133490476Y-62380952D01*
X133538095Y-62428571D01*
X133585714Y-62523809D01*
X133585714Y-62761904D01*
X133538095Y-62857142D01*
X133490476Y-62904761D01*
X133395238Y-62952380D01*
X133109523Y-62952380D01*
X133014285Y-62904761D01*
X132966666Y-62857142D01*
X126833333Y-75857142D02*
X126785714Y-75904761D01*
X126642857Y-75952380D01*
X126547619Y-75952380D01*
X126404761Y-75904761D01*
X126309523Y-75809523D01*
X126261904Y-75714285D01*
X126214285Y-75523809D01*
X126214285Y-75380952D01*
X126261904Y-75190476D01*
X126309523Y-75095238D01*
X126404761Y-75000000D01*
X126547619Y-74952380D01*
X126642857Y-74952380D01*
X126785714Y-75000000D01*
X126833333Y-75047619D01*
X127690476Y-75285714D02*
X127690476Y-75952380D01*
X127452380Y-74904761D02*
X127214285Y-75619047D01*
X127833333Y-75619047D01*
X121166666Y-51952380D02*
X121166666Y-52666666D01*
X121119047Y-52809523D01*
X121023809Y-52904761D01*
X120880952Y-52952380D01*
X120785714Y-52952380D01*
X121547619Y-51952380D02*
X122166666Y-51952380D01*
X121833333Y-52333333D01*
X121976190Y-52333333D01*
X122071428Y-52380952D01*
X122119047Y-52428571D01*
X122166666Y-52523809D01*
X122166666Y-52761904D01*
X122119047Y-52857142D01*
X122071428Y-52904761D01*
X121976190Y-52952380D01*
X121690476Y-52952380D01*
X121595238Y-52904761D01*
X121547619Y-52857142D01*
X111848095Y-73382380D02*
X111848095Y-74191904D01*
X111895714Y-74287142D01*
X111943333Y-74334761D01*
X112038571Y-74382380D01*
X112229047Y-74382380D01*
X112324285Y-74334761D01*
X112371904Y-74287142D01*
X112419523Y-74191904D01*
X112419523Y-73382380D01*
X113419523Y-74382380D02*
X112848095Y-74382380D01*
X113133809Y-74382380D02*
X113133809Y-73382380D01*
X113038571Y-73525238D01*
X112943333Y-73620476D01*
X112848095Y-73668095D01*
X111148666Y-65170000D02*
X110448666Y-65170000D01*
X110448666Y-65003333D01*
X110482000Y-64903333D01*
X110548666Y-64836666D01*
X110615333Y-64803333D01*
X110748666Y-64770000D01*
X110848666Y-64770000D01*
X110982000Y-64803333D01*
X111048666Y-64836666D01*
X111115333Y-64903333D01*
X111148666Y-65003333D01*
X111148666Y-65170000D01*
X110448666Y-64570000D02*
X111148666Y-64336666D01*
X110448666Y-64103333D01*
X111148666Y-63536666D02*
X111148666Y-63870000D01*
X110448666Y-63870000D01*
X110448666Y-63003333D02*
X110448666Y-63136666D01*
X110482000Y-63203333D01*
X110515333Y-63236666D01*
X110615333Y-63303333D01*
X110748666Y-63336666D01*
X111015333Y-63336666D01*
X111082000Y-63303333D01*
X111115333Y-63270000D01*
X111148666Y-63203333D01*
X111148666Y-63070000D01*
X111115333Y-63003333D01*
X111082000Y-62970000D01*
X111015333Y-62936666D01*
X110848666Y-62936666D01*
X110782000Y-62970000D01*
X110748666Y-63003333D01*
X110715333Y-63070000D01*
X110715333Y-63203333D01*
X110748666Y-63270000D01*
X110782000Y-63303333D01*
X110848666Y-63336666D01*
X110948666Y-62670000D02*
X110948666Y-62336666D01*
X111148666Y-62736666D02*
X110448666Y-62503333D01*
X111148666Y-62270000D01*
X112672666Y-66853333D02*
X111972666Y-66853333D01*
X112472666Y-66620000D01*
X111972666Y-66386666D01*
X112672666Y-66386666D01*
X112672666Y-66053333D02*
X111972666Y-66053333D01*
X112672666Y-65720000D02*
X111972666Y-65720000D01*
X112472666Y-65486666D01*
X111972666Y-65253333D01*
X112672666Y-65253333D01*
X111972666Y-64986666D02*
X112672666Y-64520000D01*
X111972666Y-64520000D02*
X112672666Y-64986666D01*
X112672666Y-63853333D02*
X112339333Y-64086666D01*
X112672666Y-64253333D02*
X111972666Y-64253333D01*
X111972666Y-63986666D01*
X112006000Y-63920000D01*
X112039333Y-63886666D01*
X112106000Y-63853333D01*
X112206000Y-63853333D01*
X112272666Y-63886666D01*
X112306000Y-63920000D01*
X112339333Y-63986666D01*
X112339333Y-64253333D01*
X111972666Y-63653333D02*
X111972666Y-63253333D01*
X112672666Y-63453333D02*
X111972666Y-63453333D01*
X112672666Y-62653333D02*
X112672666Y-63053333D01*
X112672666Y-62853333D02*
X111972666Y-62853333D01*
X112072666Y-62920000D01*
X112139333Y-62986666D01*
X112172666Y-63053333D01*
X111972666Y-62220000D02*
X111972666Y-62153333D01*
X112006000Y-62086666D01*
X112039333Y-62053333D01*
X112106000Y-62020000D01*
X112239333Y-61986666D01*
X112406000Y-61986666D01*
X112539333Y-62020000D01*
X112606000Y-62053333D01*
X112639333Y-62086666D01*
X112672666Y-62153333D01*
X112672666Y-62220000D01*
X112639333Y-62286666D01*
X112606000Y-62320000D01*
X112539333Y-62353333D01*
X112406000Y-62386666D01*
X112239333Y-62386666D01*
X112106000Y-62353333D01*
X112039333Y-62320000D01*
X112006000Y-62286666D01*
X111972666Y-62220000D01*
X111972666Y-61386666D02*
X111972666Y-61520000D01*
X112006000Y-61586666D01*
X112039333Y-61620000D01*
X112139333Y-61686666D01*
X112272666Y-61720000D01*
X112539333Y-61720000D01*
X112606000Y-61686666D01*
X112639333Y-61653333D01*
X112672666Y-61586666D01*
X112672666Y-61453333D01*
X112639333Y-61386666D01*
X112606000Y-61353333D01*
X112539333Y-61320000D01*
X112372666Y-61320000D01*
X112306000Y-61353333D01*
X112272666Y-61386666D01*
X112239333Y-61453333D01*
X112239333Y-61586666D01*
X112272666Y-61653333D01*
X112306000Y-61686666D01*
X112372666Y-61720000D01*
X112039333Y-61053333D02*
X112006000Y-61020000D01*
X111972666Y-60953333D01*
X111972666Y-60786666D01*
X112006000Y-60720000D01*
X112039333Y-60686666D01*
X112106000Y-60653333D01*
X112172666Y-60653333D01*
X112272666Y-60686666D01*
X112672666Y-61086666D01*
X112672666Y-60653333D01*
X104511904Y-60452380D02*
X104511904Y-59452380D01*
X104750000Y-59452380D01*
X104892857Y-59500000D01*
X104988095Y-59595238D01*
X105035714Y-59690476D01*
X105083333Y-59880952D01*
X105083333Y-60023809D01*
X105035714Y-60214285D01*
X104988095Y-60309523D01*
X104892857Y-60404761D01*
X104750000Y-60452380D01*
X104511904Y-60452380D01*
X106035714Y-60452380D02*
X105464285Y-60452380D01*
X105750000Y-60452380D02*
X105750000Y-59452380D01*
X105654761Y-59595238D01*
X105559523Y-59690476D01*
X105464285Y-59738095D01*
X122333333Y-77357142D02*
X122285714Y-77404761D01*
X122142857Y-77452380D01*
X122047619Y-77452380D01*
X121904761Y-77404761D01*
X121809523Y-77309523D01*
X121761904Y-77214285D01*
X121714285Y-77023809D01*
X121714285Y-76880952D01*
X121761904Y-76690476D01*
X121809523Y-76595238D01*
X121904761Y-76500000D01*
X122047619Y-76452380D01*
X122142857Y-76452380D01*
X122285714Y-76500000D01*
X122333333Y-76547619D01*
X123238095Y-76452380D02*
X122761904Y-76452380D01*
X122714285Y-76928571D01*
X122761904Y-76880952D01*
X122857142Y-76833333D01*
X123095238Y-76833333D01*
X123190476Y-76880952D01*
X123238095Y-76928571D01*
X123285714Y-77023809D01*
X123285714Y-77261904D01*
X123238095Y-77357142D01*
X123190476Y-77404761D01*
X123095238Y-77452380D01*
X122857142Y-77452380D01*
X122761904Y-77404761D01*
X122714285Y-77357142D01*
X92158333Y-79382380D02*
X91825000Y-78906190D01*
X91586904Y-79382380D02*
X91586904Y-78382380D01*
X91967857Y-78382380D01*
X92063095Y-78430000D01*
X92110714Y-78477619D01*
X92158333Y-78572857D01*
X92158333Y-78715714D01*
X92110714Y-78810952D01*
X92063095Y-78858571D01*
X91967857Y-78906190D01*
X91586904Y-78906190D01*
X92539285Y-78477619D02*
X92586904Y-78430000D01*
X92682142Y-78382380D01*
X92920238Y-78382380D01*
X93015476Y-78430000D01*
X93063095Y-78477619D01*
X93110714Y-78572857D01*
X93110714Y-78668095D01*
X93063095Y-78810952D01*
X92491666Y-79382380D01*
X93110714Y-79382380D01*
X86158333Y-71382380D02*
X85825000Y-70906190D01*
X85586904Y-71382380D02*
X85586904Y-70382380D01*
X85967857Y-70382380D01*
X86063095Y-70430000D01*
X86110714Y-70477619D01*
X86158333Y-70572857D01*
X86158333Y-70715714D01*
X86110714Y-70810952D01*
X86063095Y-70858571D01*
X85967857Y-70906190D01*
X85586904Y-70906190D01*
X87110714Y-71382380D02*
X86539285Y-71382380D01*
X86825000Y-71382380D02*
X86825000Y-70382380D01*
X86729761Y-70525238D01*
X86634523Y-70620476D01*
X86539285Y-70668095D01*
X114333333Y-52457142D02*
X114285714Y-52504761D01*
X114142857Y-52552380D01*
X114047619Y-52552380D01*
X113904761Y-52504761D01*
X113809523Y-52409523D01*
X113761904Y-52314285D01*
X113714285Y-52123809D01*
X113714285Y-51980952D01*
X113761904Y-51790476D01*
X113809523Y-51695238D01*
X113904761Y-51600000D01*
X114047619Y-51552380D01*
X114142857Y-51552380D01*
X114285714Y-51600000D01*
X114333333Y-51647619D01*
X115190476Y-51552380D02*
X115000000Y-51552380D01*
X114904761Y-51600000D01*
X114857142Y-51647619D01*
X114761904Y-51790476D01*
X114714285Y-51980952D01*
X114714285Y-52361904D01*
X114761904Y-52457142D01*
X114809523Y-52504761D01*
X114904761Y-52552380D01*
X115095238Y-52552380D01*
X115190476Y-52504761D01*
X115238095Y-52457142D01*
X115285714Y-52361904D01*
X115285714Y-52123809D01*
X115238095Y-52028571D01*
X115190476Y-51980952D01*
X115095238Y-51933333D01*
X114904761Y-51933333D01*
X114809523Y-51980952D01*
X114761904Y-52028571D01*
X114714285Y-52123809D01*
X137333333Y-68952380D02*
X137000000Y-68476190D01*
X136761904Y-68952380D02*
X136761904Y-67952380D01*
X137142857Y-67952380D01*
X137238095Y-68000000D01*
X137285714Y-68047619D01*
X137333333Y-68142857D01*
X137333333Y-68285714D01*
X137285714Y-68380952D01*
X137238095Y-68428571D01*
X137142857Y-68476190D01*
X136761904Y-68476190D01*
X137666666Y-67952380D02*
X138333333Y-67952380D01*
X137904761Y-68952380D01*
X109261904Y-52252380D02*
X109261904Y-51252380D01*
X109500000Y-51252380D01*
X109642857Y-51300000D01*
X109738095Y-51395238D01*
X109785714Y-51490476D01*
X109833333Y-51680952D01*
X109833333Y-51823809D01*
X109785714Y-52014285D01*
X109738095Y-52109523D01*
X109642857Y-52204761D01*
X109500000Y-52252380D01*
X109261904Y-52252380D01*
X110166666Y-51252380D02*
X110785714Y-51252380D01*
X110452380Y-51633333D01*
X110595238Y-51633333D01*
X110690476Y-51680952D01*
X110738095Y-51728571D01*
X110785714Y-51823809D01*
X110785714Y-52061904D01*
X110738095Y-52157142D01*
X110690476Y-52204761D01*
X110595238Y-52252380D01*
X110309523Y-52252380D01*
X110214285Y-52204761D01*
X110166666Y-52157142D01*
X131333333Y-79702380D02*
X131000000Y-79226190D01*
X130761904Y-79702380D02*
X130761904Y-78702380D01*
X131142857Y-78702380D01*
X131238095Y-78750000D01*
X131285714Y-78797619D01*
X131333333Y-78892857D01*
X131333333Y-79035714D01*
X131285714Y-79130952D01*
X131238095Y-79178571D01*
X131142857Y-79226190D01*
X130761904Y-79226190D01*
X131666666Y-78702380D02*
X132285714Y-78702380D01*
X131952380Y-79083333D01*
X132095238Y-79083333D01*
X132190476Y-79130952D01*
X132238095Y-79178571D01*
X132285714Y-79273809D01*
X132285714Y-79511904D01*
X132238095Y-79607142D01*
X132190476Y-79654761D01*
X132095238Y-79702380D01*
X131809523Y-79702380D01*
X131714285Y-79654761D01*
X131666666Y-79607142D01*
X125208333Y-78022380D02*
X124875000Y-77546190D01*
X124636904Y-78022380D02*
X124636904Y-77022380D01*
X125017857Y-77022380D01*
X125113095Y-77070000D01*
X125160714Y-77117619D01*
X125208333Y-77212857D01*
X125208333Y-77355714D01*
X125160714Y-77450952D01*
X125113095Y-77498571D01*
X125017857Y-77546190D01*
X124636904Y-77546190D01*
X126065476Y-77355714D02*
X126065476Y-78022380D01*
X125827380Y-76974761D02*
X125589285Y-77689047D01*
X126208333Y-77689047D01*
X132333333Y-68702380D02*
X132000000Y-68226190D01*
X131761904Y-68702380D02*
X131761904Y-67702380D01*
X132142857Y-67702380D01*
X132238095Y-67750000D01*
X132285714Y-67797619D01*
X132333333Y-67892857D01*
X132333333Y-68035714D01*
X132285714Y-68130952D01*
X132238095Y-68178571D01*
X132142857Y-68226190D01*
X131761904Y-68226190D01*
X132904761Y-68130952D02*
X132809523Y-68083333D01*
X132761904Y-68035714D01*
X132714285Y-67940476D01*
X132714285Y-67892857D01*
X132761904Y-67797619D01*
X132809523Y-67750000D01*
X132904761Y-67702380D01*
X133095238Y-67702380D01*
X133190476Y-67750000D01*
X133238095Y-67797619D01*
X133285714Y-67892857D01*
X133285714Y-67940476D01*
X133238095Y-68035714D01*
X133190476Y-68083333D01*
X133095238Y-68130952D01*
X132904761Y-68130952D01*
X132809523Y-68178571D01*
X132761904Y-68226190D01*
X132714285Y-68321428D01*
X132714285Y-68511904D01*
X132761904Y-68607142D01*
X132809523Y-68654761D01*
X132904761Y-68702380D01*
X133095238Y-68702380D01*
X133190476Y-68654761D01*
X133238095Y-68607142D01*
X133285714Y-68511904D01*
X133285714Y-68321428D01*
X133238095Y-68226190D01*
X133190476Y-68178571D01*
X133095238Y-68130952D01*
X80695833Y-66787142D02*
X80648214Y-66834761D01*
X80505357Y-66882380D01*
X80410119Y-66882380D01*
X80267261Y-66834761D01*
X80172023Y-66739523D01*
X80124404Y-66644285D01*
X80076785Y-66453809D01*
X80076785Y-66310952D01*
X80124404Y-66120476D01*
X80172023Y-66025238D01*
X80267261Y-65930000D01*
X80410119Y-65882380D01*
X80505357Y-65882380D01*
X80648214Y-65930000D01*
X80695833Y-65977619D01*
X81172023Y-66882380D02*
X81362500Y-66882380D01*
X81457738Y-66834761D01*
X81505357Y-66787142D01*
X81600595Y-66644285D01*
X81648214Y-66453809D01*
X81648214Y-66072857D01*
X81600595Y-65977619D01*
X81552976Y-65930000D01*
X81457738Y-65882380D01*
X81267261Y-65882380D01*
X81172023Y-65930000D01*
X81124404Y-65977619D01*
X81076785Y-66072857D01*
X81076785Y-66310952D01*
X81124404Y-66406190D01*
X81172023Y-66453809D01*
X81267261Y-66501428D01*
X81457738Y-66501428D01*
X81552976Y-66453809D01*
X81600595Y-66406190D01*
X81648214Y-66310952D01*
X82833333Y-69952380D02*
X82500000Y-69476190D01*
X82261904Y-69952380D02*
X82261904Y-68952380D01*
X82642857Y-68952380D01*
X82738095Y-69000000D01*
X82785714Y-69047619D01*
X82833333Y-69142857D01*
X82833333Y-69285714D01*
X82785714Y-69380952D01*
X82738095Y-69428571D01*
X82642857Y-69476190D01*
X82261904Y-69476190D01*
X83738095Y-68952380D02*
X83261904Y-68952380D01*
X83214285Y-69428571D01*
X83261904Y-69380952D01*
X83357142Y-69333333D01*
X83595238Y-69333333D01*
X83690476Y-69380952D01*
X83738095Y-69428571D01*
X83785714Y-69523809D01*
X83785714Y-69761904D01*
X83738095Y-69857142D01*
X83690476Y-69904761D01*
X83595238Y-69952380D01*
X83357142Y-69952380D01*
X83261904Y-69904761D01*
X83214285Y-69857142D01*
X85157380Y-96233333D02*
X85871666Y-96233333D01*
X86014523Y-96280952D01*
X86109761Y-96376190D01*
X86157380Y-96519047D01*
X86157380Y-96614285D01*
X85157380Y-95280952D02*
X85157380Y-95757142D01*
X85633571Y-95804761D01*
X85585952Y-95757142D01*
X85538333Y-95661904D01*
X85538333Y-95423809D01*
X85585952Y-95328571D01*
X85633571Y-95280952D01*
X85728809Y-95233333D01*
X85966904Y-95233333D01*
X86062142Y-95280952D01*
X86109761Y-95328571D01*
X86157380Y-95423809D01*
X86157380Y-95661904D01*
X86109761Y-95757142D01*
X86062142Y-95804761D01*
X86833333Y-65952380D02*
X86500000Y-65476190D01*
X86261904Y-65952380D02*
X86261904Y-64952380D01*
X86642857Y-64952380D01*
X86738095Y-65000000D01*
X86785714Y-65047619D01*
X86833333Y-65142857D01*
X86833333Y-65285714D01*
X86785714Y-65380952D01*
X86738095Y-65428571D01*
X86642857Y-65476190D01*
X86261904Y-65476190D01*
X87690476Y-64952380D02*
X87500000Y-64952380D01*
X87404761Y-65000000D01*
X87357142Y-65047619D01*
X87261904Y-65190476D01*
X87214285Y-65380952D01*
X87214285Y-65761904D01*
X87261904Y-65857142D01*
X87309523Y-65904761D01*
X87404761Y-65952380D01*
X87595238Y-65952380D01*
X87690476Y-65904761D01*
X87738095Y-65857142D01*
X87785714Y-65761904D01*
X87785714Y-65523809D01*
X87738095Y-65428571D01*
X87690476Y-65380952D01*
X87595238Y-65333333D01*
X87404761Y-65333333D01*
X87309523Y-65380952D01*
X87261904Y-65428571D01*
X87214285Y-65523809D01*
X81761904Y-91502380D02*
X81761904Y-90502380D01*
X82000000Y-90502380D01*
X82142857Y-90550000D01*
X82238095Y-90645238D01*
X82285714Y-90740476D01*
X82333333Y-90930952D01*
X82333333Y-91073809D01*
X82285714Y-91264285D01*
X82238095Y-91359523D01*
X82142857Y-91454761D01*
X82000000Y-91502380D01*
X81761904Y-91502380D01*
X82714285Y-90597619D02*
X82761904Y-90550000D01*
X82857142Y-90502380D01*
X83095238Y-90502380D01*
X83190476Y-90550000D01*
X83238095Y-90597619D01*
X83285714Y-90692857D01*
X83285714Y-90788095D01*
X83238095Y-90930952D01*
X82666666Y-91502380D01*
X83285714Y-91502380D01*
X92502380Y-59892857D02*
X92026190Y-60226190D01*
X92502380Y-60464285D02*
X91502380Y-60464285D01*
X91502380Y-60083333D01*
X91550000Y-59988095D01*
X91597619Y-59940476D01*
X91692857Y-59892857D01*
X91835714Y-59892857D01*
X91930952Y-59940476D01*
X91978571Y-59988095D01*
X92026190Y-60083333D01*
X92026190Y-60464285D01*
X92502380Y-58940476D02*
X92502380Y-59511904D01*
X92502380Y-59226190D02*
X91502380Y-59226190D01*
X91645238Y-59321428D01*
X91740476Y-59416666D01*
X91788095Y-59511904D01*
X92502380Y-57988095D02*
X92502380Y-58559523D01*
X92502380Y-58273809D02*
X91502380Y-58273809D01*
X91645238Y-58369047D01*
X91740476Y-58464285D01*
X91788095Y-58559523D01*
X138857142Y-65952380D02*
X138523809Y-65476190D01*
X138285714Y-65952380D02*
X138285714Y-64952380D01*
X138666666Y-64952380D01*
X138761904Y-65000000D01*
X138809523Y-65047619D01*
X138857142Y-65142857D01*
X138857142Y-65285714D01*
X138809523Y-65380952D01*
X138761904Y-65428571D01*
X138666666Y-65476190D01*
X138285714Y-65476190D01*
X139809523Y-65952380D02*
X139238095Y-65952380D01*
X139523809Y-65952380D02*
X139523809Y-64952380D01*
X139428571Y-65095238D01*
X139333333Y-65190476D01*
X139238095Y-65238095D01*
X140428571Y-64952380D02*
X140523809Y-64952380D01*
X140619047Y-65000000D01*
X140666666Y-65047619D01*
X140714285Y-65142857D01*
X140761904Y-65333333D01*
X140761904Y-65571428D01*
X140714285Y-65761904D01*
X140666666Y-65857142D01*
X140619047Y-65904761D01*
X140523809Y-65952380D01*
X140428571Y-65952380D01*
X140333333Y-65904761D01*
X140285714Y-65857142D01*
X140238095Y-65761904D01*
X140190476Y-65571428D01*
X140190476Y-65333333D01*
X140238095Y-65142857D01*
X140285714Y-65047619D01*
X140333333Y-65000000D01*
X140428571Y-64952380D01*
X89333333Y-68452380D02*
X89000000Y-67976190D01*
X88761904Y-68452380D02*
X88761904Y-67452380D01*
X89142857Y-67452380D01*
X89238095Y-67500000D01*
X89285714Y-67547619D01*
X89333333Y-67642857D01*
X89333333Y-67785714D01*
X89285714Y-67880952D01*
X89238095Y-67928571D01*
X89142857Y-67976190D01*
X88761904Y-67976190D01*
X89809523Y-68452380D02*
X90000000Y-68452380D01*
X90095238Y-68404761D01*
X90142857Y-68357142D01*
X90238095Y-68214285D01*
X90285714Y-68023809D01*
X90285714Y-67642857D01*
X90238095Y-67547619D01*
X90190476Y-67500000D01*
X90095238Y-67452380D01*
X89904761Y-67452380D01*
X89809523Y-67500000D01*
X89761904Y-67547619D01*
X89714285Y-67642857D01*
X89714285Y-67880952D01*
X89761904Y-67976190D01*
X89809523Y-68023809D01*
X89904761Y-68071428D01*
X90095238Y-68071428D01*
X90190476Y-68023809D01*
X90238095Y-67976190D01*
X90285714Y-67880952D01*
D13*
X92850000Y-57060000D02*
X92200000Y-57060000D01*
X92850000Y-53940000D02*
X92200000Y-53940000D01*
X92850000Y-57060000D02*
X94525000Y-57060000D01*
X92850000Y-53940000D02*
X93500000Y-53940000D01*
X169690000Y-97796267D02*
X169690000Y-97503733D01*
X170710000Y-97796267D02*
X170710000Y-97503733D01*
X54146267Y-84910000D02*
X53853733Y-84910000D01*
X54146267Y-83890000D02*
X53853733Y-83890000D01*
X145396267Y-78410000D02*
X145103733Y-78410000D01*
X145396267Y-77390000D02*
X145103733Y-77390000D01*
X132503733Y-70890000D02*
X132796267Y-70890000D01*
X132503733Y-71910000D02*
X132796267Y-71910000D01*
D14*
X160307723Y-59897648D02*
X157742723Y-64340358D01*
X157742723Y-64340358D02*
X163900163Y-67895358D01*
X163900163Y-67895358D02*
X166465163Y-63452648D01*
D10*
X64048325Y-85022287D02*
X78029138Y-85754990D01*
X64781028Y-71041474D02*
X78761841Y-71774177D01*
X64781028Y-71041474D02*
X64048325Y-85022287D01*
X78761841Y-71774177D02*
X78029138Y-85754990D01*
D13*
X95750000Y-73700000D02*
X96450000Y-73700000D01*
X96450000Y-74900000D02*
X95750000Y-74900000D01*
X92900000Y-71600000D02*
X92200000Y-71600000D01*
X92200000Y-70400000D02*
X92900000Y-70400000D01*
X92950000Y-68850000D02*
X92250000Y-68850000D01*
X92250000Y-67650000D02*
X92950000Y-67650000D01*
X129150000Y-64500000D02*
X128450000Y-64500000D01*
X128450000Y-63300000D02*
X129150000Y-63300000D01*
X128150000Y-73400000D02*
X128850000Y-73400000D01*
X128850000Y-74600000D02*
X128150000Y-74600000D01*
X118170000Y-53770000D02*
X118170000Y-53830000D01*
X118170000Y-52500000D02*
X118170000Y-51170000D01*
X118170000Y-53830000D02*
X120830000Y-53830000D01*
X120830000Y-53770000D02*
X120830000Y-53830000D01*
X118170000Y-51170000D02*
X119500000Y-51170000D01*
X118170000Y-53770000D02*
X120830000Y-53770000D01*
D12*
X102450000Y-65040000D02*
X97878000Y-65040000D01*
X107530000Y-65675000D02*
X107530000Y-68850000D01*
X102450000Y-62500000D02*
X102450000Y-65040000D01*
X125310000Y-59960000D02*
X130390000Y-59960000D01*
X125310000Y-67580000D02*
X130390000Y-67580000D01*
X118325000Y-68850000D02*
X118325000Y-58690000D01*
X97878000Y-65040000D02*
X97878000Y-62500000D01*
X130390000Y-59960000D02*
X131660000Y-59960000D01*
X131660000Y-59960000D02*
X131660000Y-67580000D01*
X125310000Y-59960000D02*
X125310000Y-67580000D01*
X94830000Y-54880000D02*
X130390000Y-54880000D01*
X130390000Y-54880000D02*
X130390000Y-72660000D01*
X130390000Y-72660000D02*
X94830000Y-72660000D01*
X131660000Y-67580000D02*
X130390000Y-67580000D01*
X108165000Y-58690000D02*
X118325000Y-58690000D01*
X104990000Y-68850000D02*
X104990000Y-65675000D01*
X107530000Y-68850000D02*
X104990000Y-68850000D01*
X108165000Y-68850000D02*
X118325000Y-68850000D01*
X94830000Y-72660000D02*
X94830000Y-54880000D01*
X108165000Y-58690000D02*
X108165000Y-68850000D01*
X97878000Y-62500000D02*
X102450000Y-62500000D01*
X104990000Y-65675000D02*
X107530000Y-65675000D01*
D10*
X116547000Y-63643000D02*
X116293000Y-63897000D01*
X116293000Y-63897000D02*
X116039000Y-63516000D01*
X116039000Y-63516000D02*
X116293000Y-63262000D01*
X116293000Y-63262000D02*
X116547000Y-63643000D01*
G36*
X116547000Y-63643000D02*
G01*
X116293000Y-63897000D01*
X116039000Y-63516000D01*
X116293000Y-63262000D01*
X116547000Y-63643000D01*
G37*
X116547000Y-63643000D02*
X116293000Y-63897000D01*
X116039000Y-63516000D01*
X116293000Y-63262000D01*
X116547000Y-63643000D01*
X115023000Y-63389000D02*
X114769000Y-63643000D01*
X114769000Y-63643000D02*
X114515000Y-63262000D01*
X114515000Y-63262000D02*
X114769000Y-63008000D01*
X114769000Y-63008000D02*
X115023000Y-63389000D01*
G36*
X115023000Y-63389000D02*
G01*
X114769000Y-63643000D01*
X114515000Y-63262000D01*
X114769000Y-63008000D01*
X115023000Y-63389000D01*
G37*
X115023000Y-63389000D02*
X114769000Y-63643000D01*
X114515000Y-63262000D01*
X114769000Y-63008000D01*
X115023000Y-63389000D01*
X114642000Y-63770000D02*
X114388000Y-64024000D01*
X114388000Y-64024000D02*
X114134000Y-63643000D01*
X114134000Y-63643000D02*
X114388000Y-63389000D01*
X114388000Y-63389000D02*
X114642000Y-63770000D01*
G36*
X114642000Y-63770000D02*
G01*
X114388000Y-64024000D01*
X114134000Y-63643000D01*
X114388000Y-63389000D01*
X114642000Y-63770000D01*
G37*
X114642000Y-63770000D02*
X114388000Y-64024000D01*
X114134000Y-63643000D01*
X114388000Y-63389000D01*
X114642000Y-63770000D01*
X115785000Y-64405000D02*
X115531000Y-64659000D01*
X115531000Y-64659000D02*
X115277000Y-64278000D01*
X115277000Y-64278000D02*
X115531000Y-64024000D01*
X115531000Y-64024000D02*
X115785000Y-64405000D01*
G36*
X115785000Y-64405000D02*
G01*
X115531000Y-64659000D01*
X115277000Y-64278000D01*
X115531000Y-64024000D01*
X115785000Y-64405000D01*
G37*
X115785000Y-64405000D02*
X115531000Y-64659000D01*
X115277000Y-64278000D01*
X115531000Y-64024000D01*
X115785000Y-64405000D01*
X115404000Y-63897000D02*
X115150000Y-64151000D01*
X115150000Y-64151000D02*
X114896000Y-63770000D01*
X114896000Y-63770000D02*
X115150000Y-63516000D01*
X115150000Y-63516000D02*
X115404000Y-63897000D01*
G36*
X115404000Y-63897000D02*
G01*
X115150000Y-64151000D01*
X114896000Y-63770000D01*
X115150000Y-63516000D01*
X115404000Y-63897000D01*
G37*
X115404000Y-63897000D02*
X115150000Y-64151000D01*
X114896000Y-63770000D01*
X115150000Y-63516000D01*
X115404000Y-63897000D01*
X116166000Y-64024000D02*
X115912000Y-64278000D01*
X115912000Y-64278000D02*
X115658000Y-63897000D01*
X115658000Y-63897000D02*
X115912000Y-63643000D01*
X115912000Y-63643000D02*
X116166000Y-64024000D01*
G36*
X116166000Y-64024000D02*
G01*
X115912000Y-64278000D01*
X115658000Y-63897000D01*
X115912000Y-63643000D01*
X116166000Y-64024000D01*
G37*
X116166000Y-64024000D02*
X115912000Y-64278000D01*
X115658000Y-63897000D01*
X115912000Y-63643000D01*
X116166000Y-64024000D01*
X114261000Y-63262000D02*
X114007000Y-63516000D01*
X114007000Y-63516000D02*
X113753000Y-63135000D01*
X113753000Y-63135000D02*
X114007000Y-62881000D01*
X114007000Y-62881000D02*
X114261000Y-63262000D01*
G36*
X114261000Y-63262000D02*
G01*
X114007000Y-63516000D01*
X113753000Y-63135000D01*
X114007000Y-62881000D01*
X114261000Y-63262000D01*
G37*
X114261000Y-63262000D02*
X114007000Y-63516000D01*
X113753000Y-63135000D01*
X114007000Y-62881000D01*
X114261000Y-63262000D01*
X115023000Y-64278000D02*
X114769000Y-64532000D01*
X114769000Y-64532000D02*
X114515000Y-64151000D01*
X114515000Y-64151000D02*
X114769000Y-63897000D01*
X114769000Y-63897000D02*
X115023000Y-64278000D01*
G36*
X115023000Y-64278000D02*
G01*
X114769000Y-64532000D01*
X114515000Y-64151000D01*
X114769000Y-63897000D01*
X115023000Y-64278000D01*
G37*
X115023000Y-64278000D02*
X114769000Y-64532000D01*
X114515000Y-64151000D01*
X114769000Y-63897000D01*
X115023000Y-64278000D01*
D13*
X104200000Y-59100000D02*
X106600000Y-59100000D01*
X106600000Y-59100000D02*
X106600000Y-57900000D01*
X104200000Y-57900000D02*
X106600000Y-57900000D01*
X122150000Y-74400000D02*
X122850000Y-74400000D01*
X122850000Y-75600000D02*
X122150000Y-75600000D01*
X92579724Y-78022500D02*
X92070276Y-78022500D01*
X92579724Y-76977500D02*
X92070276Y-76977500D01*
X86579724Y-70022500D02*
X86070276Y-70022500D01*
X86579724Y-68977500D02*
X86070276Y-68977500D01*
X114050000Y-53000000D02*
X114750000Y-53000000D01*
X114750000Y-54200000D02*
X114050000Y-54200000D01*
D15*
X55895656Y-68226928D02*
X55976310Y-68229567D01*
X55976310Y-68229567D02*
X56054111Y-68234159D01*
X56054111Y-68234159D02*
X56076910Y-68235936D01*
X56076910Y-68235936D02*
X56195383Y-68248031D01*
X56195383Y-68248031D02*
X56312710Y-68264609D01*
X56312710Y-68264609D02*
X56428626Y-68285602D01*
X56428626Y-68285602D02*
X56542863Y-68310942D01*
X56542863Y-68310942D02*
X56655155Y-68340560D01*
X56655155Y-68340560D02*
X56765235Y-68374389D01*
X56765235Y-68374389D02*
X56872838Y-68412360D01*
X56872838Y-68412360D02*
X56977697Y-68454404D01*
X56977697Y-68454404D02*
X57042110Y-68482899D01*
X57042110Y-68482899D02*
X57134279Y-68527989D01*
X57134279Y-68527989D02*
X57224135Y-68577589D01*
X57224135Y-68577589D02*
X57311683Y-68631704D01*
X57311683Y-68631704D02*
X57396927Y-68690338D01*
X57396927Y-68690338D02*
X57479874Y-68753494D01*
X57479874Y-68753494D02*
X57560527Y-68821176D01*
X57560527Y-68821176D02*
X57638893Y-68893390D01*
X57638893Y-68893390D02*
X57714977Y-68970138D01*
X57714977Y-68970138D02*
X57788783Y-69051425D01*
X57788783Y-69051425D02*
X57824273Y-69093100D01*
X57824273Y-69093100D02*
X57883264Y-69166419D01*
X57883264Y-69166419D02*
X57940935Y-69243356D01*
X57940935Y-69243356D02*
X57997354Y-69324035D01*
X57997354Y-69324035D02*
X58052589Y-69408580D01*
X58052589Y-69408580D02*
X58106708Y-69497117D01*
X58106708Y-69497117D02*
X58159778Y-69589768D01*
X58159778Y-69589768D02*
X58211868Y-69686660D01*
X58211868Y-69686660D02*
X58263045Y-69787916D01*
X58263045Y-69787916D02*
X58313378Y-69893661D01*
X58313378Y-69893661D02*
X58362934Y-70004019D01*
X58362934Y-70004019D02*
X58411781Y-70119114D01*
X58411781Y-70119114D02*
X58459987Y-70239071D01*
X58459987Y-70239071D02*
X58484969Y-70303795D01*
X58484969Y-70303795D02*
X58509278Y-70368373D01*
X58509278Y-70368373D02*
X58533689Y-70434655D01*
X58533689Y-70434655D02*
X58558008Y-70502058D01*
X58558008Y-70502058D02*
X58582036Y-70569997D01*
X58582036Y-70569997D02*
X58605577Y-70637886D01*
X58605577Y-70637886D02*
X58628434Y-70705142D01*
X58628434Y-70705142D02*
X58650410Y-70771179D01*
X58650410Y-70771179D02*
X58671308Y-70835414D01*
X58671308Y-70835414D02*
X58690932Y-70897261D01*
X58690932Y-70897261D02*
X58709083Y-70956136D01*
X58709083Y-70956136D02*
X58725567Y-71011455D01*
X58725567Y-71011455D02*
X58738477Y-71056520D01*
X58738477Y-71056520D02*
X58779454Y-71209685D01*
X58779454Y-71209685D02*
X58817704Y-71367078D01*
X58817704Y-71367078D02*
X58853218Y-71528633D01*
X58853218Y-71528633D02*
X58885987Y-71694285D01*
X58885987Y-71694285D02*
X58916000Y-71863969D01*
X58916000Y-71863969D02*
X58943249Y-72037621D01*
X58943249Y-72037621D02*
X58967725Y-72215174D01*
X58967725Y-72215174D02*
X58989418Y-72396566D01*
X58989418Y-72396566D02*
X59008318Y-72581729D01*
X59008318Y-72581729D02*
X59024417Y-72770600D01*
X59024417Y-72770600D02*
X59037704Y-72963114D01*
X59037704Y-72963114D02*
X59048172Y-73159205D01*
X59048172Y-73159205D02*
X59051201Y-73229490D01*
X59051201Y-73229490D02*
X59052727Y-73267756D01*
X59052727Y-73267756D02*
X59054084Y-73303048D01*
X59054084Y-73303048D02*
X59055285Y-73335962D01*
X59055285Y-73335962D02*
X59056341Y-73367097D01*
X59056341Y-73367097D02*
X59057265Y-73397049D01*
X59057265Y-73397049D02*
X59058069Y-73426415D01*
X59058069Y-73426415D02*
X59058768Y-73455792D01*
X59058768Y-73455792D02*
X59059372Y-73485778D01*
X59059372Y-73485778D02*
X59059894Y-73516968D01*
X59059894Y-73516968D02*
X59060348Y-73549961D01*
X59060348Y-73549961D02*
X59060745Y-73585353D01*
X59060745Y-73585353D02*
X59061099Y-73623742D01*
X59061099Y-73623742D02*
X59061421Y-73665724D01*
X59061421Y-73665724D02*
X59061724Y-73711897D01*
X59061724Y-73711897D02*
X59061870Y-73736220D01*
X59061870Y-73736220D02*
X59062214Y-73812792D01*
X59062214Y-73812792D02*
X59062313Y-73885120D01*
X59062313Y-73885120D02*
X59062155Y-73954035D01*
X59062155Y-73954035D02*
X59061724Y-74020367D01*
X59061724Y-74020367D02*
X59061008Y-74084947D01*
X59061008Y-74084947D02*
X59059990Y-74148606D01*
X59059990Y-74148606D02*
X59058659Y-74212174D01*
X59058659Y-74212174D02*
X59056998Y-74276482D01*
X59056998Y-74276482D02*
X59054994Y-74342361D01*
X59054994Y-74342361D02*
X59052634Y-74410642D01*
X59052634Y-74410642D02*
X59049902Y-74482155D01*
X59049902Y-74482155D02*
X59048636Y-74513460D01*
X59048636Y-74513460D02*
X59038775Y-74721776D01*
X59038775Y-74721776D02*
X59026186Y-74933327D01*
X59026186Y-74933327D02*
X59010954Y-75147116D01*
X59010954Y-75147116D02*
X58993164Y-75362147D01*
X58993164Y-75362147D02*
X58972902Y-75577423D01*
X58972902Y-75577423D02*
X58950252Y-75791949D01*
X58950252Y-75791949D02*
X58925299Y-76004729D01*
X58925299Y-76004729D02*
X58912748Y-76104251D01*
X58912748Y-76104251D02*
X58909545Y-76129502D01*
X58909545Y-76129502D02*
X58906264Y-76156146D01*
X58906264Y-76156146D02*
X58903036Y-76183059D01*
X58903036Y-76183059D02*
X58899993Y-76209118D01*
X58899993Y-76209118D02*
X58897266Y-76233202D01*
X58897266Y-76233202D02*
X58894987Y-76254186D01*
X58894987Y-76254186D02*
X58893691Y-76266811D01*
X58893691Y-76266811D02*
X58888507Y-76316274D01*
X58888507Y-76316274D02*
X58882390Y-76369689D01*
X58882390Y-76369689D02*
X58875476Y-76426044D01*
X58875476Y-76426044D02*
X58867901Y-76484326D01*
X58867901Y-76484326D02*
X58859800Y-76543519D01*
X58859800Y-76543519D02*
X58851309Y-76602612D01*
X58851309Y-76602612D02*
X58842564Y-76660591D01*
X58842564Y-76660591D02*
X58833700Y-76716442D01*
X58833700Y-76716442D02*
X58832584Y-76723260D01*
X58832584Y-76723260D02*
X58804919Y-76882405D01*
X58804919Y-76882405D02*
X58774574Y-77039325D01*
X58774574Y-77039325D02*
X58741614Y-77193786D01*
X58741614Y-77193786D02*
X58706105Y-77345559D01*
X58706105Y-77345559D02*
X58668112Y-77494412D01*
X58668112Y-77494412D02*
X58627703Y-77640112D01*
X58627703Y-77640112D02*
X58584941Y-77782430D01*
X58584941Y-77782430D02*
X58539894Y-77921133D01*
X58539894Y-77921133D02*
X58492626Y-78055991D01*
X58492626Y-78055991D02*
X58443204Y-78186771D01*
X58443204Y-78186771D02*
X58391692Y-78313242D01*
X58391692Y-78313242D02*
X58360373Y-78385690D01*
X58360373Y-78385690D02*
X58347443Y-78414769D01*
X58347443Y-78414769D02*
X58336269Y-78439495D01*
X58336269Y-78439495D02*
X58326676Y-78460212D01*
X58326676Y-78460212D02*
X58318487Y-78477263D01*
X58318487Y-78477263D02*
X58311526Y-78490994D01*
X58311526Y-78490994D02*
X58305618Y-78501749D01*
X58305618Y-78501749D02*
X58300587Y-78509872D01*
X58300587Y-78509872D02*
X58296257Y-78515708D01*
X58296257Y-78515708D02*
X58292452Y-78519601D01*
X58292452Y-78519601D02*
X58291664Y-78520233D01*
X58291664Y-78520233D02*
X58276622Y-78528872D01*
X58276622Y-78528872D02*
X58260052Y-78533519D01*
X58260052Y-78533519D02*
X58243182Y-78534010D01*
X58243182Y-78534010D02*
X58227239Y-78530176D01*
X58227239Y-78530176D02*
X58225107Y-78529264D01*
X58225107Y-78529264D02*
X58218534Y-78525513D01*
X58218534Y-78525513D02*
X58209558Y-78519370D01*
X58209558Y-78519370D02*
X58199568Y-78511821D01*
X58199568Y-78511821D02*
X58193357Y-78506766D01*
X58193357Y-78506766D02*
X58153211Y-78474512D01*
X58153211Y-78474512D02*
X58108872Y-78441557D01*
X58108872Y-78441557D02*
X58061087Y-78408365D01*
X58061087Y-78408365D02*
X58010607Y-78375401D01*
X58010607Y-78375401D02*
X57958183Y-78343129D01*
X57958183Y-78343129D02*
X57904563Y-78312013D01*
X57904563Y-78312013D02*
X57850497Y-78282518D01*
X57850497Y-78282518D02*
X57796736Y-78255107D01*
X57796736Y-78255107D02*
X57754420Y-78234978D01*
X57754420Y-78234978D02*
X57668788Y-78197965D01*
X57668788Y-78197965D02*
X57583595Y-78165820D01*
X57583595Y-78165820D02*
X57498903Y-78138551D01*
X57498903Y-78138551D02*
X57414776Y-78116163D01*
X57414776Y-78116163D02*
X57331274Y-78098663D01*
X57331274Y-78098663D02*
X57248462Y-78086059D01*
X57248462Y-78086059D02*
X57166401Y-78078356D01*
X57166401Y-78078356D02*
X57085153Y-78075560D01*
X57085153Y-78075560D02*
X57004781Y-78077679D01*
X57004781Y-78077679D02*
X56925348Y-78084720D01*
X56925348Y-78084720D02*
X56846915Y-78096687D01*
X56846915Y-78096687D02*
X56769546Y-78113589D01*
X56769546Y-78113589D02*
X56722009Y-78126587D01*
X56722009Y-78126587D02*
X56700163Y-78133171D01*
X56700163Y-78133171D02*
X56679725Y-78139665D01*
X56679725Y-78139665D02*
X56659984Y-78146349D01*
X56659984Y-78146349D02*
X56640227Y-78153498D01*
X56640227Y-78153498D02*
X56619740Y-78161392D01*
X56619740Y-78161392D02*
X56597813Y-78170306D01*
X56597813Y-78170306D02*
X56573731Y-78180520D01*
X56573731Y-78180520D02*
X56546783Y-78192311D01*
X56546783Y-78192311D02*
X56516256Y-78205955D01*
X56516256Y-78205955D02*
X56503630Y-78211657D01*
X56503630Y-78211657D02*
X56446724Y-78237189D01*
X56446724Y-78237189D02*
X56393615Y-78260549D01*
X56393615Y-78260549D02*
X56343649Y-78282010D01*
X56343649Y-78282010D02*
X56296170Y-78301847D01*
X56296170Y-78301847D02*
X56250524Y-78320334D01*
X56250524Y-78320334D02*
X56206057Y-78337747D01*
X56206057Y-78337747D02*
X56173476Y-78350120D01*
X56173476Y-78350120D02*
X56077953Y-78384181D01*
X56077953Y-78384181D02*
X55984838Y-78413841D01*
X55984838Y-78413841D02*
X55894019Y-78439114D01*
X55894019Y-78439114D02*
X55805386Y-78460009D01*
X55805386Y-78460009D02*
X55718828Y-78476539D01*
X55718828Y-78476539D02*
X55634235Y-78488716D01*
X55634235Y-78488716D02*
X55551495Y-78496552D01*
X55551495Y-78496552D02*
X55470497Y-78500058D01*
X55470497Y-78500058D02*
X55391133Y-78499246D01*
X55391133Y-78499246D02*
X55313289Y-78494127D01*
X55313289Y-78494127D02*
X55236857Y-78484714D01*
X55236857Y-78484714D02*
X55161724Y-78471019D01*
X55161724Y-78471019D02*
X55121636Y-78461842D01*
X55121636Y-78461842D02*
X55062843Y-78445964D01*
X55062843Y-78445964D02*
X55005613Y-78427495D01*
X55005613Y-78427495D02*
X54949437Y-78406187D01*
X54949437Y-78406187D02*
X54893804Y-78381789D01*
X54893804Y-78381789D02*
X54838206Y-78354052D01*
X54838206Y-78354052D02*
X54782131Y-78322728D01*
X54782131Y-78322728D02*
X54725069Y-78287565D01*
X54725069Y-78287565D02*
X54666512Y-78248316D01*
X54666512Y-78248316D02*
X54626020Y-78219486D01*
X54626020Y-78219486D02*
X54615777Y-78211925D01*
X54615777Y-78211925D02*
X54602227Y-78201758D01*
X54602227Y-78201758D02*
X54586064Y-78189514D01*
X54586064Y-78189514D02*
X54567978Y-78175722D01*
X54567978Y-78175722D02*
X54548663Y-78160909D01*
X54548663Y-78160909D02*
X54528811Y-78145604D01*
X54528811Y-78145604D02*
X54509113Y-78130334D01*
X54509113Y-78130334D02*
X54506640Y-78128410D01*
X54506640Y-78128410D02*
X54485587Y-78112076D01*
X54485587Y-78112076D02*
X54463066Y-78094689D01*
X54463066Y-78094689D02*
X54440006Y-78076960D01*
X54440006Y-78076960D02*
X54417342Y-78059606D01*
X54417342Y-78059606D02*
X54396003Y-78043338D01*
X54396003Y-78043338D02*
X54376923Y-78028871D01*
X54376923Y-78028871D02*
X54362924Y-78018334D01*
X54362924Y-78018334D02*
X54302609Y-77974398D01*
X54302609Y-77974398D02*
X54244592Y-77934715D01*
X54244592Y-77934715D02*
X54188602Y-77899154D01*
X54188602Y-77899154D02*
X54134370Y-77867587D01*
X54134370Y-77867587D02*
X54081627Y-77839881D01*
X54081627Y-77839881D02*
X54030102Y-77815906D01*
X54030102Y-77815906D02*
X53979527Y-77795532D01*
X53979527Y-77795532D02*
X53929632Y-77778628D01*
X53929632Y-77778628D02*
X53880148Y-77765064D01*
X53880148Y-77765064D02*
X53830805Y-77754709D01*
X53830805Y-77754709D02*
X53812509Y-77751661D01*
X53812509Y-77751661D02*
X53794928Y-77749470D01*
X53794928Y-77749470D02*
X53773453Y-77747640D01*
X53773453Y-77747640D02*
X53749257Y-77746204D01*
X53749257Y-77746204D02*
X53723515Y-77745192D01*
X53723515Y-77745192D02*
X53697403Y-77744634D01*
X53697403Y-77744634D02*
X53672093Y-77744561D01*
X53672093Y-77744561D02*
X53648762Y-77745004D01*
X53648762Y-77745004D02*
X53628583Y-77745992D01*
X53628583Y-77745992D02*
X53620460Y-77746660D01*
X53620460Y-77746660D02*
X53596962Y-77749137D01*
X53596962Y-77749137D02*
X53573751Y-77752038D01*
X53573751Y-77752038D02*
X53550349Y-77755465D01*
X53550349Y-77755465D02*
X53526281Y-77759522D01*
X53526281Y-77759522D02*
X53501071Y-77764313D01*
X53501071Y-77764313D02*
X53474241Y-77769940D01*
X53474241Y-77769940D02*
X53445315Y-77776506D01*
X53445315Y-77776506D02*
X53413818Y-77784116D01*
X53413818Y-77784116D02*
X53379273Y-77792871D01*
X53379273Y-77792871D02*
X53341203Y-77802876D01*
X53341203Y-77802876D02*
X53299132Y-77814234D01*
X53299132Y-77814234D02*
X53263860Y-77823924D01*
X53263860Y-77823924D02*
X53210604Y-77838452D01*
X53210604Y-77838452D02*
X53161613Y-77851381D01*
X53161613Y-77851381D02*
X53116364Y-77862809D01*
X53116364Y-77862809D02*
X53074334Y-77872834D01*
X53074334Y-77872834D02*
X53034999Y-77881554D01*
X53034999Y-77881554D02*
X52997835Y-77889067D01*
X52997835Y-77889067D02*
X52962321Y-77895471D01*
X52962321Y-77895471D02*
X52927932Y-77900863D01*
X52927932Y-77900863D02*
X52894145Y-77905341D01*
X52894145Y-77905341D02*
X52860437Y-77909004D01*
X52860437Y-77909004D02*
X52826285Y-77911948D01*
X52826285Y-77911948D02*
X52791165Y-77914273D01*
X52791165Y-77914273D02*
X52776611Y-77915057D01*
X52776611Y-77915057D02*
X52720904Y-77916537D01*
X52720904Y-77916537D02*
X52662097Y-77915601D01*
X52662097Y-77915601D02*
X52601501Y-77912351D01*
X52601501Y-77912351D02*
X52540429Y-77906889D01*
X52540429Y-77906889D02*
X52480194Y-77899316D01*
X52480194Y-77899316D02*
X52422107Y-77889733D01*
X52422107Y-77889733D02*
X52404070Y-77886235D01*
X52404070Y-77886235D02*
X52332667Y-77869871D01*
X52332667Y-77869871D02*
X52264113Y-77850050D01*
X52264113Y-77850050D02*
X52197989Y-77826564D01*
X52197989Y-77826564D02*
X52133878Y-77799208D01*
X52133878Y-77799208D02*
X52071361Y-77767774D01*
X52071361Y-77767774D02*
X52010020Y-77732056D01*
X52010020Y-77732056D02*
X51949438Y-77691848D01*
X51949438Y-77691848D02*
X51889195Y-77646943D01*
X51889195Y-77646943D02*
X51842351Y-77608674D01*
X51842351Y-77608674D02*
X51832949Y-77600409D01*
X51832949Y-77600409D02*
X51820637Y-77589132D01*
X51820637Y-77589132D02*
X51806059Y-77575457D01*
X51806059Y-77575457D02*
X51789859Y-77559999D01*
X51789859Y-77559999D02*
X51772683Y-77543372D01*
X51772683Y-77543372D02*
X51755174Y-77526193D01*
X51755174Y-77526193D02*
X51738538Y-77509638D01*
X51738538Y-77509638D02*
X51706229Y-77476842D01*
X51706229Y-77476842D02*
X51676350Y-77445619D01*
X51676350Y-77445619D02*
X51647932Y-77414894D01*
X51647932Y-77414894D02*
X51620009Y-77383595D01*
X51620009Y-77383595D02*
X51591612Y-77350649D01*
X51591612Y-77350649D02*
X51561775Y-77314983D01*
X51561775Y-77314983D02*
X51548858Y-77299272D01*
X51548858Y-77299272D02*
X51533297Y-77280115D01*
X51533297Y-77280115D02*
X51516552Y-77259235D01*
X51516552Y-77259235D02*
X51498904Y-77237000D01*
X51498904Y-77237000D02*
X51480632Y-77213778D01*
X51480632Y-77213778D02*
X51462014Y-77189936D01*
X51462014Y-77189936D02*
X51443332Y-77165841D01*
X51443332Y-77165841D02*
X51424864Y-77141861D01*
X51424864Y-77141861D02*
X51406889Y-77118363D01*
X51406889Y-77118363D02*
X51389688Y-77095714D01*
X51389688Y-77095714D02*
X51373539Y-77074282D01*
X51373539Y-77074282D02*
X51358723Y-77054433D01*
X51358723Y-77054433D02*
X51345518Y-77036537D01*
X51345518Y-77036537D02*
X51334204Y-77020959D01*
X51334204Y-77020959D02*
X51325061Y-77008066D01*
X51325061Y-77008066D02*
X51318368Y-76998228D01*
X51318368Y-76998228D02*
X51314405Y-76991810D01*
X51314405Y-76991810D02*
X51313511Y-76989934D01*
X51313511Y-76989934D02*
X51311295Y-76979189D01*
X51311295Y-76979189D02*
X51310748Y-76966016D01*
X51310748Y-76966016D02*
X51311878Y-76952789D01*
X51311878Y-76952789D02*
X51313332Y-76945931D01*
X51313332Y-76945931D02*
X51314433Y-76942824D01*
X51314433Y-76942824D02*
X51316266Y-76939263D01*
X51316266Y-76939263D02*
X51319105Y-76934936D01*
X51319105Y-76934936D02*
X51323229Y-76929534D01*
X51323229Y-76929534D02*
X51328914Y-76922743D01*
X51328914Y-76922743D02*
X51336437Y-76914255D01*
X51336437Y-76914255D02*
X51346075Y-76903757D01*
X51346075Y-76903757D02*
X51358104Y-76890939D01*
X51358104Y-76890939D02*
X51372802Y-76875489D01*
X51372802Y-76875489D02*
X51390446Y-76857097D01*
X51390446Y-76857097D02*
X51411311Y-76835452D01*
X51411311Y-76835452D02*
X51416010Y-76830587D01*
X51416010Y-76830587D02*
X51465403Y-76779094D01*
X51465403Y-76779094D02*
X51514283Y-76727434D01*
X51514283Y-76727434D02*
X51562407Y-76675882D01*
X51562407Y-76675882D02*
X51609534Y-76624714D01*
X51609534Y-76624714D02*
X51655423Y-76574207D01*
X51655423Y-76574207D02*
X51699834Y-76524635D01*
X51699834Y-76524635D02*
X51742524Y-76476275D01*
X51742524Y-76476275D02*
X51783252Y-76429403D01*
X51783252Y-76429403D02*
X51821778Y-76384294D01*
X51821778Y-76384294D02*
X51857860Y-76341225D01*
X51857860Y-76341225D02*
X51891256Y-76300470D01*
X51891256Y-76300470D02*
X51921726Y-76262307D01*
X51921726Y-76262307D02*
X51949029Y-76227011D01*
X51949029Y-76227011D02*
X51972922Y-76194857D01*
X51972922Y-76194857D02*
X51977626Y-76188333D01*
X51977626Y-76188333D02*
X52043932Y-76092130D01*
X52043932Y-76092130D02*
X52106794Y-75993365D01*
X52106794Y-75993365D02*
X52166252Y-75891923D01*
X52166252Y-75891923D02*
X52222349Y-75787691D01*
X52222349Y-75787691D02*
X52275124Y-75680554D01*
X52275124Y-75680554D02*
X52324619Y-75570399D01*
X52324619Y-75570399D02*
X52370875Y-75457113D01*
X52370875Y-75457113D02*
X52413934Y-75340580D01*
X52413934Y-75340580D02*
X52453836Y-75220687D01*
X52453836Y-75220687D02*
X52490624Y-75097321D01*
X52490624Y-75097321D02*
X52524337Y-74970367D01*
X52524337Y-74970367D02*
X52555018Y-74839712D01*
X52555018Y-74839712D02*
X52582707Y-74705241D01*
X52582707Y-74705241D02*
X52607445Y-74566841D01*
X52607445Y-74566841D02*
X52629275Y-74424397D01*
X52629275Y-74424397D02*
X52637551Y-74363600D01*
X52637551Y-74363600D02*
X52650068Y-74262272D01*
X52650068Y-74262272D02*
X52661439Y-74157713D01*
X52661439Y-74157713D02*
X52671682Y-74049681D01*
X52671682Y-74049681D02*
X52680815Y-73937934D01*
X52680815Y-73937934D02*
X52688856Y-73822230D01*
X52688856Y-73822230D02*
X52695823Y-73702327D01*
X52695823Y-73702327D02*
X52701734Y-73577983D01*
X52701734Y-73577983D02*
X52706607Y-73448957D01*
X52706607Y-73448957D02*
X52707539Y-73419990D01*
X52707539Y-73419990D02*
X52708395Y-73391896D01*
X52708395Y-73391896D02*
X52709204Y-73363904D01*
X52709204Y-73363904D02*
X52709970Y-73335744D01*
X52709970Y-73335744D02*
X52710696Y-73307150D01*
X52710696Y-73307150D02*
X52711387Y-73277854D01*
X52711387Y-73277854D02*
X52712046Y-73247587D01*
X52712046Y-73247587D02*
X52712678Y-73216082D01*
X52712678Y-73216082D02*
X52713286Y-73183071D01*
X52713286Y-73183071D02*
X52713875Y-73148286D01*
X52713875Y-73148286D02*
X52714448Y-73111459D01*
X52714448Y-73111459D02*
X52715009Y-73072323D01*
X52715009Y-73072323D02*
X52715563Y-73030609D01*
X52715563Y-73030609D02*
X52716112Y-72986049D01*
X52716112Y-72986049D02*
X52716662Y-72938376D01*
X52716662Y-72938376D02*
X52717216Y-72887322D01*
X52717216Y-72887322D02*
X52717778Y-72832619D01*
X52717778Y-72832619D02*
X52718351Y-72773999D01*
X52718351Y-72773999D02*
X52718941Y-72711194D01*
X52718941Y-72711194D02*
X52719550Y-72643936D01*
X52719550Y-72643936D02*
X52720183Y-72571958D01*
X52720183Y-72571958D02*
X52720406Y-72546230D01*
X52720406Y-72546230D02*
X52721435Y-72439510D01*
X52721435Y-72439510D02*
X52722650Y-72337660D01*
X52722650Y-72337660D02*
X52724019Y-72243749D01*
X52724019Y-72243749D02*
X55490263Y-72243749D01*
X55490263Y-72243749D02*
X55490274Y-72256670D01*
X55490274Y-72256670D02*
X55492772Y-72305904D01*
X55492772Y-72305904D02*
X55500000Y-72353350D01*
X55500000Y-72353350D02*
X55511925Y-72398921D01*
X55511925Y-72398921D02*
X55528510Y-72442528D01*
X55528510Y-72442528D02*
X55549719Y-72484085D01*
X55549719Y-72484085D02*
X55575519Y-72523504D01*
X55575519Y-72523504D02*
X55605873Y-72560697D01*
X55605873Y-72560697D02*
X55618183Y-72573806D01*
X55618183Y-72573806D02*
X55653949Y-72606943D01*
X55653949Y-72606943D02*
X55692565Y-72635932D01*
X55692565Y-72635932D02*
X55733776Y-72660645D01*
X55733776Y-72660645D02*
X55777321Y-72680951D01*
X55777321Y-72680951D02*
X55822945Y-72696721D01*
X55822945Y-72696721D02*
X55870388Y-72707825D01*
X55870388Y-72707825D02*
X55891271Y-72711131D01*
X55891271Y-72711131D02*
X55906122Y-72712658D01*
X55906122Y-72712658D02*
X55924492Y-72713787D01*
X55924492Y-72713787D02*
X55945042Y-72714507D01*
X55945042Y-72714507D02*
X55966433Y-72714803D01*
X55966433Y-72714803D02*
X55987324Y-72714663D01*
X55987324Y-72714663D02*
X56006377Y-72714074D01*
X56006377Y-72714074D02*
X56022252Y-72713023D01*
X56022252Y-72713023D02*
X56027446Y-72712465D01*
X56027446Y-72712465D02*
X56073350Y-72704469D01*
X56073350Y-72704469D02*
X56117016Y-72692230D01*
X56117016Y-72692230D02*
X56158195Y-72675877D01*
X56158195Y-72675877D02*
X56196639Y-72655540D01*
X56196639Y-72655540D02*
X56232099Y-72631347D01*
X56232099Y-72631347D02*
X56264324Y-72603426D01*
X56264324Y-72603426D02*
X56288751Y-72577143D01*
X56288751Y-72577143D02*
X56316709Y-72540309D01*
X56316709Y-72540309D02*
X56341219Y-72500367D01*
X56341219Y-72500367D02*
X56362344Y-72457154D01*
X56362344Y-72457154D02*
X56380149Y-72410508D01*
X56380149Y-72410508D02*
X56394698Y-72360266D01*
X56394698Y-72360266D02*
X56406056Y-72306267D01*
X56406056Y-72306267D02*
X56412378Y-72264303D01*
X56412378Y-72264303D02*
X56413911Y-72250390D01*
X56413911Y-72250390D02*
X56414975Y-72236869D01*
X56414975Y-72236869D02*
X56415473Y-72225280D01*
X56415473Y-72225280D02*
X56415311Y-72217165D01*
X56415311Y-72217165D02*
X56415308Y-72217129D01*
X56415308Y-72217129D02*
X56411187Y-72198927D01*
X56411187Y-72198927D02*
X56402570Y-72182079D01*
X56402570Y-72182079D02*
X56390010Y-72167380D01*
X56390010Y-72167380D02*
X56374057Y-72155623D01*
X56374057Y-72155623D02*
X56371550Y-72154238D01*
X56371550Y-72154238D02*
X56364517Y-72150869D01*
X56364517Y-72150869D02*
X56357909Y-72148838D01*
X56357909Y-72148838D02*
X56350026Y-72147822D01*
X56350026Y-72147822D02*
X56339171Y-72147501D01*
X56339171Y-72147501D02*
X56335990Y-72147491D01*
X56335990Y-72147491D02*
X56319414Y-72148388D01*
X56319414Y-72148388D02*
X56306049Y-72151498D01*
X56306049Y-72151498D02*
X56294286Y-72157436D01*
X56294286Y-72157436D02*
X56282512Y-72166817D01*
X56282512Y-72166817D02*
X56280525Y-72168674D01*
X56280525Y-72168674D02*
X56272257Y-72177622D01*
X56272257Y-72177622D02*
X56265979Y-72187306D01*
X56265979Y-72187306D02*
X56261281Y-72198769D01*
X56261281Y-72198769D02*
X56257750Y-72213052D01*
X56257750Y-72213052D02*
X56254977Y-72231199D01*
X56254977Y-72231199D02*
X56254580Y-72234502D01*
X56254580Y-72234502D02*
X56247626Y-72280557D01*
X56247626Y-72280557D02*
X56237903Y-72324057D01*
X56237903Y-72324057D02*
X56225563Y-72364540D01*
X56225563Y-72364540D02*
X56210755Y-72401544D01*
X56210755Y-72401544D02*
X56193631Y-72434609D01*
X56193631Y-72434609D02*
X56184385Y-72449313D01*
X56184385Y-72449313D02*
X56173441Y-72463626D01*
X56173441Y-72463626D02*
X56159444Y-72479004D01*
X56159444Y-72479004D02*
X56143805Y-72494085D01*
X56143805Y-72494085D02*
X56127935Y-72507508D01*
X56127935Y-72507508D02*
X56113435Y-72517794D01*
X56113435Y-72517794D02*
X56089048Y-72531062D01*
X56089048Y-72531062D02*
X56063331Y-72541156D01*
X56063331Y-72541156D02*
X56035442Y-72548302D01*
X56035442Y-72548302D02*
X56004537Y-72552729D01*
X56004537Y-72552729D02*
X55977485Y-72554451D01*
X55977485Y-72554451D02*
X55939200Y-72554173D01*
X55939200Y-72554173D02*
X55903898Y-72550449D01*
X55903898Y-72550449D02*
X55870678Y-72543106D01*
X55870678Y-72543106D02*
X55838637Y-72531971D01*
X55838637Y-72531971D02*
X55822293Y-72524696D01*
X55822293Y-72524696D02*
X55787122Y-72505277D01*
X55787122Y-72505277D02*
X55755700Y-72482486D01*
X55755700Y-72482486D02*
X55728124Y-72456483D01*
X55728124Y-72456483D02*
X55704492Y-72427430D01*
X55704492Y-72427430D02*
X55684902Y-72395486D01*
X55684902Y-72395486D02*
X55669452Y-72360813D01*
X55669452Y-72360813D02*
X55658240Y-72323571D01*
X55658240Y-72323571D02*
X55651364Y-72283921D01*
X55651364Y-72283921D02*
X55648922Y-72242024D01*
X55648922Y-72242024D02*
X55648917Y-72240226D01*
X55648917Y-72240226D02*
X55648783Y-72227629D01*
X55648783Y-72227629D02*
X55648202Y-72218557D01*
X55648202Y-72218557D02*
X55646907Y-72211461D01*
X55646907Y-72211461D02*
X55644632Y-72204789D01*
X55644632Y-72204789D02*
X55641657Y-72198147D01*
X55641657Y-72198147D02*
X55631361Y-72181663D01*
X55631361Y-72181663D02*
X55618284Y-72168878D01*
X55618284Y-72168878D02*
X55603120Y-72159788D01*
X55603120Y-72159788D02*
X55586565Y-72154385D01*
X55586565Y-72154385D02*
X55569313Y-72152666D01*
X55569313Y-72152666D02*
X55552058Y-72154623D01*
X55552058Y-72154623D02*
X55535496Y-72160253D01*
X55535496Y-72160253D02*
X55520321Y-72169549D01*
X55520321Y-72169549D02*
X55507227Y-72182505D01*
X55507227Y-72182505D02*
X55496910Y-72199117D01*
X55496910Y-72199117D02*
X55496824Y-72199300D01*
X55496824Y-72199300D02*
X55494384Y-72204741D01*
X55494384Y-72204741D02*
X55492630Y-72209684D01*
X55492630Y-72209684D02*
X55491450Y-72215093D01*
X55491450Y-72215093D02*
X55490736Y-72221931D01*
X55490736Y-72221931D02*
X55490377Y-72231162D01*
X55490377Y-72231162D02*
X55490263Y-72243749D01*
X55490263Y-72243749D02*
X52724019Y-72243749D01*
X52724019Y-72243749D02*
X52724067Y-72240470D01*
X52724067Y-72240470D02*
X52725700Y-72147734D01*
X52725700Y-72147734D02*
X52727565Y-72059243D01*
X52727565Y-72059243D02*
X52729676Y-71974788D01*
X52729676Y-71974788D02*
X52732050Y-71894163D01*
X52732050Y-71894163D02*
X52734701Y-71817158D01*
X52734701Y-71817158D02*
X52737644Y-71743566D01*
X52737644Y-71743566D02*
X52740894Y-71673179D01*
X52740894Y-71673179D02*
X52744467Y-71605788D01*
X52744467Y-71605788D02*
X52748377Y-71541186D01*
X52748377Y-71541186D02*
X52749637Y-71522854D01*
X52749637Y-71522854D02*
X54204501Y-71522854D01*
X54204501Y-71522854D02*
X54207636Y-71570589D01*
X54207636Y-71570589D02*
X54211329Y-71596270D01*
X54211329Y-71596270D02*
X54221774Y-71642619D01*
X54221774Y-71642619D02*
X54236747Y-71687047D01*
X54236747Y-71687047D02*
X54255983Y-71729305D01*
X54255983Y-71729305D02*
X54279214Y-71769147D01*
X54279214Y-71769147D02*
X54306172Y-71806326D01*
X54306172Y-71806326D02*
X54336591Y-71840593D01*
X54336591Y-71840593D02*
X54370203Y-71871703D01*
X54370203Y-71871703D02*
X54406742Y-71899408D01*
X54406742Y-71899408D02*
X54445941Y-71923461D01*
X54445941Y-71923461D02*
X54487532Y-71943615D01*
X54487532Y-71943615D02*
X54531248Y-71959622D01*
X54531248Y-71959622D02*
X54576823Y-71971236D01*
X54576823Y-71971236D02*
X54623990Y-71978209D01*
X54623990Y-71978209D02*
X54624030Y-71978213D01*
X54624030Y-71978213D02*
X54645985Y-71979952D01*
X54645985Y-71979952D02*
X54665500Y-71980600D01*
X54665500Y-71980600D02*
X54684969Y-71980166D01*
X54684969Y-71980166D02*
X54706788Y-71978654D01*
X54706788Y-71978654D02*
X54708995Y-71978462D01*
X54708995Y-71978462D02*
X54751133Y-71973015D01*
X54751133Y-71973015D02*
X54790935Y-71964164D01*
X54790935Y-71964164D02*
X54829757Y-71951522D01*
X54829757Y-71951522D02*
X54868955Y-71934701D01*
X54868955Y-71934701D02*
X54878030Y-71930270D01*
X54878030Y-71930270D02*
X54902679Y-71917265D01*
X54902679Y-71917265D02*
X54924618Y-71904000D01*
X54924618Y-71904000D02*
X54945062Y-71889586D01*
X54945062Y-71889586D02*
X54965228Y-71873131D01*
X54965228Y-71873131D02*
X54986331Y-71853744D01*
X54986331Y-71853744D02*
X54997553Y-71842734D01*
X54997553Y-71842734D02*
X55013276Y-71826682D01*
X55013276Y-71826682D02*
X55026072Y-71812723D01*
X55026072Y-71812723D02*
X55036919Y-71799702D01*
X55036919Y-71799702D02*
X55046794Y-71786465D01*
X55046794Y-71786465D02*
X55053548Y-71776610D01*
X55053548Y-71776610D02*
X55078190Y-71735983D01*
X55078190Y-71735983D02*
X55097984Y-71695194D01*
X55097984Y-71695194D02*
X55113141Y-71653595D01*
X55113141Y-71653595D02*
X55123870Y-71610539D01*
X55123870Y-71610539D02*
X55130380Y-71565378D01*
X55130380Y-71565378D02*
X55132518Y-71532770D01*
X55132518Y-71532770D02*
X55132073Y-71495940D01*
X55132073Y-71495940D02*
X56623010Y-71495940D01*
X56623010Y-71495940D02*
X56623065Y-71516037D01*
X56623065Y-71516037D02*
X56623276Y-71532034D01*
X56623276Y-71532034D02*
X56623706Y-71544908D01*
X56623706Y-71544908D02*
X56624420Y-71555639D01*
X56624420Y-71555639D02*
X56625483Y-71565205D01*
X56625483Y-71565205D02*
X56626958Y-71574585D01*
X56626958Y-71574585D02*
X56628842Y-71584417D01*
X56628842Y-71584417D02*
X56640753Y-71631052D01*
X56640753Y-71631052D02*
X56657144Y-71676003D01*
X56657144Y-71676003D02*
X56677774Y-71718854D01*
X56677774Y-71718854D02*
X56702401Y-71759190D01*
X56702401Y-71759190D02*
X56730783Y-71796595D01*
X56730783Y-71796595D02*
X56762680Y-71830655D01*
X56762680Y-71830655D02*
X56782274Y-71848356D01*
X56782274Y-71848356D02*
X56821138Y-71878111D01*
X56821138Y-71878111D02*
X56862275Y-71903427D01*
X56862275Y-71903427D02*
X56905388Y-71924211D01*
X56905388Y-71924211D02*
X56950182Y-71940369D01*
X56950182Y-71940369D02*
X56996361Y-71951807D01*
X56996361Y-71951807D02*
X57043629Y-71958431D01*
X57043629Y-71958431D02*
X57091689Y-71960147D01*
X57091689Y-71960147D02*
X57128470Y-71958121D01*
X57128470Y-71958121D02*
X57176371Y-71951252D01*
X57176371Y-71951252D02*
X57222206Y-71939827D01*
X57222206Y-71939827D02*
X57266361Y-71923739D01*
X57266361Y-71923739D02*
X57288490Y-71913638D01*
X57288490Y-71913638D02*
X57331185Y-71890031D01*
X57331185Y-71890031D02*
X57370673Y-71862579D01*
X57370673Y-71862579D02*
X57406774Y-71831516D01*
X57406774Y-71831516D02*
X57439307Y-71797076D01*
X57439307Y-71797076D02*
X57468091Y-71759496D01*
X57468091Y-71759496D02*
X57492946Y-71719009D01*
X57492946Y-71719009D02*
X57513691Y-71675851D01*
X57513691Y-71675851D02*
X57530146Y-71630255D01*
X57530146Y-71630255D02*
X57541737Y-71584417D01*
X57541737Y-71584417D02*
X57543671Y-71574309D01*
X57543671Y-71574309D02*
X57545129Y-71564981D01*
X57545129Y-71564981D02*
X57546175Y-71555455D01*
X57546175Y-71555455D02*
X57546874Y-71544755D01*
X57546874Y-71544755D02*
X57547288Y-71531903D01*
X57547288Y-71531903D02*
X57547482Y-71515921D01*
X57547482Y-71515921D02*
X57547520Y-71495940D01*
X57547520Y-71495940D02*
X57547401Y-71473987D01*
X57547401Y-71473987D02*
X57547053Y-71456240D01*
X57547053Y-71456240D02*
X57546429Y-71441826D01*
X57546429Y-71441826D02*
X57545481Y-71429874D01*
X57545481Y-71429874D02*
X57544163Y-71419512D01*
X57544163Y-71419512D02*
X57543003Y-71412791D01*
X57543003Y-71412791D02*
X57531342Y-71364628D01*
X57531342Y-71364628D02*
X57515156Y-71318667D01*
X57515156Y-71318667D02*
X57494522Y-71275062D01*
X57494522Y-71275062D02*
X57469519Y-71233967D01*
X57469519Y-71233967D02*
X57440225Y-71195536D01*
X57440225Y-71195536D02*
X57422291Y-71175566D01*
X57422291Y-71175566D02*
X57386864Y-71141889D01*
X57386864Y-71141889D02*
X57348722Y-71112482D01*
X57348722Y-71112482D02*
X57308024Y-71087425D01*
X57308024Y-71087425D02*
X57264929Y-71066800D01*
X57264929Y-71066800D02*
X57219595Y-71050685D01*
X57219595Y-71050685D02*
X57172180Y-71039163D01*
X57172180Y-71039163D02*
X57144980Y-71034773D01*
X57144980Y-71034773D02*
X57097617Y-71030942D01*
X57097617Y-71030942D02*
X57050808Y-71031994D01*
X57050808Y-71031994D02*
X57004855Y-71037737D01*
X57004855Y-71037737D02*
X56960058Y-71047981D01*
X56960058Y-71047981D02*
X56916719Y-71062533D01*
X56916719Y-71062533D02*
X56875138Y-71081203D01*
X56875138Y-71081203D02*
X56835616Y-71103800D01*
X56835616Y-71103800D02*
X56798454Y-71130133D01*
X56798454Y-71130133D02*
X56763953Y-71160010D01*
X56763953Y-71160010D02*
X56732415Y-71193240D01*
X56732415Y-71193240D02*
X56704140Y-71229632D01*
X56704140Y-71229632D02*
X56679430Y-71268994D01*
X56679430Y-71268994D02*
X56658585Y-71311137D01*
X56658585Y-71311137D02*
X56642540Y-71353873D01*
X56642540Y-71353873D02*
X56636345Y-71374279D01*
X56636345Y-71374279D02*
X56631553Y-71392880D01*
X56631553Y-71392880D02*
X56628003Y-71410846D01*
X56628003Y-71410846D02*
X56625535Y-71429346D01*
X56625535Y-71429346D02*
X56623988Y-71449550D01*
X56623988Y-71449550D02*
X56623201Y-71472627D01*
X56623201Y-71472627D02*
X56623010Y-71495940D01*
X56623010Y-71495940D02*
X55132073Y-71495940D01*
X55132073Y-71495940D02*
X55131920Y-71483300D01*
X55131920Y-71483300D02*
X55126476Y-71435337D01*
X55126476Y-71435337D02*
X55116192Y-71388906D01*
X55116192Y-71388906D02*
X55101076Y-71344028D01*
X55101076Y-71344028D02*
X55081133Y-71300728D01*
X55081133Y-71300728D02*
X55056370Y-71259027D01*
X55056370Y-71259027D02*
X55056038Y-71258528D01*
X55056038Y-71258528D02*
X55026891Y-71219231D01*
X55026891Y-71219231D02*
X54994375Y-71183696D01*
X54994375Y-71183696D02*
X54958647Y-71152029D01*
X54958647Y-71152029D02*
X54919864Y-71124335D01*
X54919864Y-71124335D02*
X54878182Y-71100719D01*
X54878182Y-71100719D02*
X54833760Y-71081287D01*
X54833760Y-71081287D02*
X54786753Y-71066145D01*
X54786753Y-71066145D02*
X54759974Y-71059709D01*
X54759974Y-71059709D02*
X54748980Y-71057455D01*
X54748980Y-71057455D02*
X54739374Y-71055761D01*
X54739374Y-71055761D02*
X54730116Y-71054546D01*
X54730116Y-71054546D02*
X54720169Y-71053731D01*
X54720169Y-71053731D02*
X54708494Y-71053235D01*
X54708494Y-71053235D02*
X54694053Y-71052980D01*
X54694053Y-71052980D02*
X54675806Y-71052885D01*
X54675806Y-71052885D02*
X54671020Y-71052878D01*
X54671020Y-71052878D02*
X54645884Y-71053057D01*
X54645884Y-71053057D02*
X54624625Y-71053765D01*
X54624625Y-71053765D02*
X54606051Y-71055155D01*
X54606051Y-71055155D02*
X54588972Y-71057385D01*
X54588972Y-71057385D02*
X54572197Y-71060610D01*
X54572197Y-71060610D02*
X54554536Y-71064987D01*
X54554536Y-71064987D02*
X54534798Y-71070671D01*
X54534798Y-71070671D02*
X54534459Y-71070774D01*
X54534459Y-71070774D02*
X54489213Y-71086996D01*
X54489213Y-71086996D02*
X54446631Y-71107361D01*
X54446631Y-71107361D02*
X54406891Y-71131581D01*
X54406891Y-71131581D02*
X54370169Y-71159371D01*
X54370169Y-71159371D02*
X54336640Y-71190444D01*
X54336640Y-71190444D02*
X54306480Y-71224513D01*
X54306480Y-71224513D02*
X54279867Y-71261293D01*
X54279867Y-71261293D02*
X54256974Y-71300497D01*
X54256974Y-71300497D02*
X54237980Y-71341838D01*
X54237980Y-71341838D02*
X54223059Y-71385031D01*
X54223059Y-71385031D02*
X54212389Y-71429789D01*
X54212389Y-71429789D02*
X54206144Y-71475825D01*
X54206144Y-71475825D02*
X54204501Y-71522854D01*
X54204501Y-71522854D02*
X52749637Y-71522854D01*
X52749637Y-71522854D02*
X52752640Y-71479165D01*
X52752640Y-71479165D02*
X52757272Y-71419516D01*
X52757272Y-71419516D02*
X52762286Y-71362032D01*
X52762286Y-71362032D02*
X52767698Y-71306505D01*
X52767698Y-71306505D02*
X52773524Y-71252725D01*
X52773524Y-71252725D02*
X52779778Y-71200487D01*
X52779778Y-71200487D02*
X52786476Y-71149580D01*
X52786476Y-71149580D02*
X52793633Y-71099798D01*
X52793633Y-71099798D02*
X52801264Y-71050932D01*
X52801264Y-71050932D02*
X52809384Y-71002775D01*
X52809384Y-71002775D02*
X52818008Y-70955117D01*
X52818008Y-70955117D02*
X52827151Y-70907752D01*
X52827151Y-70907752D02*
X52836829Y-70860471D01*
X52836829Y-70860471D02*
X52846301Y-70816490D01*
X52846301Y-70816490D02*
X52878636Y-70680186D01*
X52878636Y-70680186D02*
X52915008Y-70546451D01*
X52915008Y-70546451D02*
X52955374Y-70415380D01*
X52955374Y-70415380D02*
X52999693Y-70287068D01*
X52999693Y-70287068D02*
X53047921Y-70161611D01*
X53047921Y-70161611D02*
X53100016Y-70039104D01*
X53100016Y-70039104D02*
X53155936Y-69919643D01*
X53155936Y-69919643D02*
X53215638Y-69803323D01*
X53215638Y-69803323D02*
X53279080Y-69690238D01*
X53279080Y-69690238D02*
X53346220Y-69580486D01*
X53346220Y-69580486D02*
X53417014Y-69474161D01*
X53417014Y-69474161D02*
X53485787Y-69378850D01*
X53485787Y-69378850D02*
X53560303Y-69283462D01*
X53560303Y-69283462D02*
X53638122Y-69191628D01*
X53638122Y-69191628D02*
X53719105Y-69103474D01*
X53719105Y-69103474D02*
X53803114Y-69019126D01*
X53803114Y-69019126D02*
X53890012Y-68938710D01*
X53890012Y-68938710D02*
X53979661Y-68862353D01*
X53979661Y-68862353D02*
X54071922Y-68790181D01*
X54071922Y-68790181D02*
X54166658Y-68722321D01*
X54166658Y-68722321D02*
X54263730Y-68658898D01*
X54263730Y-68658898D02*
X54288750Y-68643507D01*
X54288750Y-68643507D02*
X54390294Y-68584772D01*
X54390294Y-68584772D02*
X54494521Y-68530304D01*
X54494521Y-68530304D02*
X54601283Y-68480148D01*
X54601283Y-68480148D02*
X54710433Y-68434352D01*
X54710433Y-68434352D02*
X54821826Y-68392962D01*
X54821826Y-68392962D02*
X54935314Y-68356024D01*
X54935314Y-68356024D02*
X55050751Y-68323585D01*
X55050751Y-68323585D02*
X55167990Y-68295691D01*
X55167990Y-68295691D02*
X55286884Y-68272390D01*
X55286884Y-68272390D02*
X55407287Y-68253727D01*
X55407287Y-68253727D02*
X55529052Y-68239749D01*
X55529052Y-68239749D02*
X55572720Y-68235911D01*
X55572720Y-68235911D02*
X55650682Y-68230735D01*
X55650682Y-68230735D02*
X55731432Y-68227512D01*
X55731432Y-68227512D02*
X55813560Y-68226243D01*
X55813560Y-68226243D02*
X55895656Y-68226928D01*
X55895656Y-68226928D02*
X55895656Y-68226928D01*
G36*
X52725700Y-72147734D02*
G01*
X52727565Y-72059243D01*
X52729676Y-71974788D01*
X52732050Y-71894163D01*
X52734701Y-71817158D01*
X52737644Y-71743566D01*
X52740894Y-71673179D01*
X52744467Y-71605788D01*
X52748377Y-71541186D01*
X52749637Y-71522854D01*
X54204501Y-71522854D01*
X54207636Y-71570589D01*
X54211329Y-71596270D01*
X54221774Y-71642619D01*
X54236747Y-71687047D01*
X54255983Y-71729305D01*
X54279214Y-71769147D01*
X54306172Y-71806326D01*
X54336591Y-71840593D01*
X54370203Y-71871703D01*
X54406742Y-71899408D01*
X54445941Y-71923461D01*
X54487532Y-71943615D01*
X54531248Y-71959622D01*
X54576823Y-71971236D01*
X54623990Y-71978209D01*
X54624030Y-71978213D01*
X54645985Y-71979952D01*
X54665500Y-71980600D01*
X54684969Y-71980166D01*
X54706788Y-71978654D01*
X54708995Y-71978462D01*
X54751133Y-71973015D01*
X54790935Y-71964164D01*
X54829757Y-71951522D01*
X54868955Y-71934701D01*
X54878030Y-71930270D01*
X54902679Y-71917265D01*
X54924618Y-71904000D01*
X54945062Y-71889586D01*
X54965228Y-71873131D01*
X54986331Y-71853744D01*
X54997553Y-71842734D01*
X55013276Y-71826682D01*
X55026072Y-71812723D01*
X55036919Y-71799702D01*
X55046794Y-71786465D01*
X55053548Y-71776610D01*
X55078190Y-71735983D01*
X55097984Y-71695194D01*
X55113141Y-71653595D01*
X55123870Y-71610539D01*
X55130380Y-71565378D01*
X55132518Y-71532770D01*
X55132073Y-71495940D01*
X56623010Y-71495940D01*
X56623065Y-71516037D01*
X56623276Y-71532034D01*
X56623706Y-71544908D01*
X56624420Y-71555639D01*
X56625483Y-71565205D01*
X56626958Y-71574585D01*
X56628842Y-71584417D01*
X56640753Y-71631052D01*
X56657144Y-71676003D01*
X56677774Y-71718854D01*
X56702401Y-71759190D01*
X56730783Y-71796595D01*
X56762680Y-71830655D01*
X56782274Y-71848356D01*
X56821138Y-71878111D01*
X56862275Y-71903427D01*
X56905388Y-71924211D01*
X56950182Y-71940369D01*
X56996361Y-71951807D01*
X57043629Y-71958431D01*
X57091689Y-71960147D01*
X57128470Y-71958121D01*
X57176371Y-71951252D01*
X57222206Y-71939827D01*
X57266361Y-71923739D01*
X57288490Y-71913638D01*
X57331185Y-71890031D01*
X57370673Y-71862579D01*
X57406774Y-71831516D01*
X57439307Y-71797076D01*
X57468091Y-71759496D01*
X57492946Y-71719009D01*
X57513691Y-71675851D01*
X57530146Y-71630255D01*
X57541737Y-71584417D01*
X57543671Y-71574309D01*
X57545129Y-71564981D01*
X57546175Y-71555455D01*
X57546874Y-71544755D01*
X57547288Y-71531903D01*
X57547482Y-71515921D01*
X57547520Y-71495940D01*
X57547401Y-71473987D01*
X57547053Y-71456240D01*
X57546429Y-71441826D01*
X57545481Y-71429874D01*
X57544163Y-71419512D01*
X57543003Y-71412791D01*
X57531342Y-71364628D01*
X57515156Y-71318667D01*
X57494522Y-71275062D01*
X57469519Y-71233967D01*
X57440225Y-71195536D01*
X57422291Y-71175566D01*
X57386864Y-71141889D01*
X57348722Y-71112482D01*
X57308024Y-71087425D01*
X57264929Y-71066800D01*
X57219595Y-71050685D01*
X57172180Y-71039163D01*
X57144980Y-71034773D01*
X57097617Y-71030942D01*
X57050808Y-71031994D01*
X57004855Y-71037737D01*
X56960058Y-71047981D01*
X56916719Y-71062533D01*
X56875138Y-71081203D01*
X56835616Y-71103800D01*
X56798454Y-71130133D01*
X56763953Y-71160010D01*
X56732415Y-71193240D01*
X56704140Y-71229632D01*
X56679430Y-71268994D01*
X56658585Y-71311137D01*
X56642540Y-71353873D01*
X56636345Y-71374279D01*
X56631553Y-71392880D01*
X56628003Y-71410846D01*
X56625535Y-71429346D01*
X56623988Y-71449550D01*
X56623201Y-71472627D01*
X56623010Y-71495940D01*
X55132073Y-71495940D01*
X55131920Y-71483300D01*
X55126476Y-71435337D01*
X55116192Y-71388906D01*
X55101076Y-71344028D01*
X55081133Y-71300728D01*
X55056370Y-71259027D01*
X55056038Y-71258528D01*
X55026891Y-71219231D01*
X54994375Y-71183696D01*
X54958647Y-71152029D01*
X54919864Y-71124335D01*
X54878182Y-71100719D01*
X54833760Y-71081287D01*
X54786753Y-71066145D01*
X54759974Y-71059709D01*
X54748980Y-71057455D01*
X54739374Y-71055761D01*
X54730116Y-71054546D01*
X54720169Y-71053731D01*
X54708494Y-71053235D01*
X54694053Y-71052980D01*
X54675806Y-71052885D01*
X54671020Y-71052878D01*
X54645884Y-71053057D01*
X54624625Y-71053765D01*
X54606051Y-71055155D01*
X54588972Y-71057385D01*
X54572197Y-71060610D01*
X54554536Y-71064987D01*
X54534798Y-71070671D01*
X54534459Y-71070774D01*
X54489213Y-71086996D01*
X54446631Y-71107361D01*
X54406891Y-71131581D01*
X54370169Y-71159371D01*
X54336640Y-71190444D01*
X54306480Y-71224513D01*
X54279867Y-71261293D01*
X54256974Y-71300497D01*
X54237980Y-71341838D01*
X54223059Y-71385031D01*
X54212389Y-71429789D01*
X54206144Y-71475825D01*
X54204501Y-71522854D01*
X52749637Y-71522854D01*
X52752640Y-71479165D01*
X52757272Y-71419516D01*
X52762286Y-71362032D01*
X52767698Y-71306505D01*
X52773524Y-71252725D01*
X52779778Y-71200487D01*
X52786476Y-71149580D01*
X52793633Y-71099798D01*
X52801264Y-71050932D01*
X52809384Y-71002775D01*
X52818008Y-70955117D01*
X52827151Y-70907752D01*
X52836829Y-70860471D01*
X52846301Y-70816490D01*
X52878636Y-70680186D01*
X52915008Y-70546451D01*
X52955374Y-70415380D01*
X52999693Y-70287068D01*
X53047921Y-70161611D01*
X53100016Y-70039104D01*
X53155936Y-69919643D01*
X53215638Y-69803323D01*
X53279080Y-69690238D01*
X53346220Y-69580486D01*
X53417014Y-69474161D01*
X53485787Y-69378850D01*
X53560303Y-69283462D01*
X53638122Y-69191628D01*
X53719105Y-69103474D01*
X53803114Y-69019126D01*
X53890012Y-68938710D01*
X53979661Y-68862353D01*
X54071922Y-68790181D01*
X54166658Y-68722321D01*
X54263730Y-68658898D01*
X54288750Y-68643507D01*
X54390294Y-68584772D01*
X54494521Y-68530304D01*
X54601283Y-68480148D01*
X54710433Y-68434352D01*
X54821826Y-68392962D01*
X54935314Y-68356024D01*
X55050751Y-68323585D01*
X55167990Y-68295691D01*
X55286884Y-68272390D01*
X55407287Y-68253727D01*
X55529052Y-68239749D01*
X55572720Y-68235911D01*
X55650682Y-68230735D01*
X55731432Y-68227512D01*
X55813560Y-68226243D01*
X55895656Y-68226928D01*
X55976310Y-68229567D01*
X56054111Y-68234159D01*
X56076910Y-68235936D01*
X56195383Y-68248031D01*
X56312710Y-68264609D01*
X56428626Y-68285602D01*
X56542863Y-68310942D01*
X56655155Y-68340560D01*
X56765235Y-68374389D01*
X56872838Y-68412360D01*
X56977697Y-68454404D01*
X57042110Y-68482899D01*
X57134279Y-68527989D01*
X57224135Y-68577589D01*
X57311683Y-68631704D01*
X57396927Y-68690338D01*
X57479874Y-68753494D01*
X57560527Y-68821176D01*
X57638893Y-68893390D01*
X57714977Y-68970138D01*
X57788783Y-69051425D01*
X57824273Y-69093100D01*
X57883264Y-69166419D01*
X57940935Y-69243356D01*
X57997354Y-69324035D01*
X58052589Y-69408580D01*
X58106708Y-69497117D01*
X58159778Y-69589768D01*
X58211868Y-69686660D01*
X58263045Y-69787916D01*
X58313378Y-69893661D01*
X58362934Y-70004019D01*
X58411781Y-70119114D01*
X58459987Y-70239071D01*
X58484969Y-70303795D01*
X58509278Y-70368373D01*
X58533689Y-70434655D01*
X58558008Y-70502058D01*
X58582036Y-70569997D01*
X58605577Y-70637886D01*
X58628434Y-70705142D01*
X58650410Y-70771179D01*
X58671308Y-70835414D01*
X58690932Y-70897261D01*
X58709083Y-70956136D01*
X58725567Y-71011455D01*
X58738477Y-71056520D01*
X58779454Y-71209685D01*
X58817704Y-71367078D01*
X58853218Y-71528633D01*
X58885987Y-71694285D01*
X58916000Y-71863969D01*
X58943249Y-72037621D01*
X58967725Y-72215174D01*
X58989418Y-72396566D01*
X59008318Y-72581729D01*
X59024417Y-72770600D01*
X59037704Y-72963114D01*
X59048172Y-73159205D01*
X59051201Y-73229490D01*
X59052727Y-73267756D01*
X59054084Y-73303048D01*
X59055285Y-73335962D01*
X59056341Y-73367097D01*
X59057265Y-73397049D01*
X59058069Y-73426415D01*
X59058768Y-73455792D01*
X59059372Y-73485778D01*
X59059894Y-73516968D01*
X59060348Y-73549961D01*
X59060745Y-73585353D01*
X59061099Y-73623742D01*
X59061421Y-73665724D01*
X59061724Y-73711897D01*
X59061870Y-73736220D01*
X59062214Y-73812792D01*
X59062313Y-73885120D01*
X59062155Y-73954035D01*
X59061724Y-74020367D01*
X59061008Y-74084947D01*
X59059990Y-74148606D01*
X59058659Y-74212174D01*
X59056998Y-74276482D01*
X59054994Y-74342361D01*
X59052634Y-74410642D01*
X59049902Y-74482155D01*
X59048636Y-74513460D01*
X59038775Y-74721776D01*
X59026186Y-74933327D01*
X59010954Y-75147116D01*
X58993164Y-75362147D01*
X58972902Y-75577423D01*
X58950252Y-75791949D01*
X58925299Y-76004729D01*
X58912748Y-76104251D01*
X58909545Y-76129502D01*
X58906264Y-76156146D01*
X58903036Y-76183059D01*
X58899993Y-76209118D01*
X58897266Y-76233202D01*
X58894987Y-76254186D01*
X58893691Y-76266811D01*
X58888507Y-76316274D01*
X58882390Y-76369689D01*
X58875476Y-76426044D01*
X58867901Y-76484326D01*
X58859800Y-76543519D01*
X58851309Y-76602612D01*
X58842564Y-76660591D01*
X58833700Y-76716442D01*
X58832584Y-76723260D01*
X58804919Y-76882405D01*
X58774574Y-77039325D01*
X58741614Y-77193786D01*
X58706105Y-77345559D01*
X58668112Y-77494412D01*
X58627703Y-77640112D01*
X58584941Y-77782430D01*
X58539894Y-77921133D01*
X58492626Y-78055991D01*
X58443204Y-78186771D01*
X58391692Y-78313242D01*
X58360373Y-78385690D01*
X58347443Y-78414769D01*
X58336269Y-78439495D01*
X58326676Y-78460212D01*
X58318487Y-78477263D01*
X58311526Y-78490994D01*
X58305618Y-78501749D01*
X58300587Y-78509872D01*
X58296257Y-78515708D01*
X58292452Y-78519601D01*
X58291664Y-78520233D01*
X58276622Y-78528872D01*
X58260052Y-78533519D01*
X58243182Y-78534010D01*
X58227239Y-78530176D01*
X58225107Y-78529264D01*
X58218534Y-78525513D01*
X58209558Y-78519370D01*
X58199568Y-78511821D01*
X58193357Y-78506766D01*
X58153211Y-78474512D01*
X58108872Y-78441557D01*
X58061087Y-78408365D01*
X58010607Y-78375401D01*
X57958183Y-78343129D01*
X57904563Y-78312013D01*
X57850497Y-78282518D01*
X57796736Y-78255107D01*
X57754420Y-78234978D01*
X57668788Y-78197965D01*
X57583595Y-78165820D01*
X57498903Y-78138551D01*
X57414776Y-78116163D01*
X57331274Y-78098663D01*
X57248462Y-78086059D01*
X57166401Y-78078356D01*
X57085153Y-78075560D01*
X57004781Y-78077679D01*
X56925348Y-78084720D01*
X56846915Y-78096687D01*
X56769546Y-78113589D01*
X56722009Y-78126587D01*
X56700163Y-78133171D01*
X56679725Y-78139665D01*
X56659984Y-78146349D01*
X56640227Y-78153498D01*
X56619740Y-78161392D01*
X56597813Y-78170306D01*
X56573731Y-78180520D01*
X56546783Y-78192311D01*
X56516256Y-78205955D01*
X56503630Y-78211657D01*
X56446724Y-78237189D01*
X56393615Y-78260549D01*
X56343649Y-78282010D01*
X56296170Y-78301847D01*
X56250524Y-78320334D01*
X56206057Y-78337747D01*
X56173476Y-78350120D01*
X56077953Y-78384181D01*
X55984838Y-78413841D01*
X55894019Y-78439114D01*
X55805386Y-78460009D01*
X55718828Y-78476539D01*
X55634235Y-78488716D01*
X55551495Y-78496552D01*
X55470497Y-78500058D01*
X55391133Y-78499246D01*
X55313289Y-78494127D01*
X55236857Y-78484714D01*
X55161724Y-78471019D01*
X55121636Y-78461842D01*
X55062843Y-78445964D01*
X55005613Y-78427495D01*
X54949437Y-78406187D01*
X54893804Y-78381789D01*
X54838206Y-78354052D01*
X54782131Y-78322728D01*
X54725069Y-78287565D01*
X54666512Y-78248316D01*
X54626020Y-78219486D01*
X54615777Y-78211925D01*
X54602227Y-78201758D01*
X54586064Y-78189514D01*
X54567978Y-78175722D01*
X54548663Y-78160909D01*
X54528811Y-78145604D01*
X54509113Y-78130334D01*
X54506640Y-78128410D01*
X54485587Y-78112076D01*
X54463066Y-78094689D01*
X54440006Y-78076960D01*
X54417342Y-78059606D01*
X54396003Y-78043338D01*
X54376923Y-78028871D01*
X54362924Y-78018334D01*
X54302609Y-77974398D01*
X54244592Y-77934715D01*
X54188602Y-77899154D01*
X54134370Y-77867587D01*
X54081627Y-77839881D01*
X54030102Y-77815906D01*
X53979527Y-77795532D01*
X53929632Y-77778628D01*
X53880148Y-77765064D01*
X53830805Y-77754709D01*
X53812509Y-77751661D01*
X53794928Y-77749470D01*
X53773453Y-77747640D01*
X53749257Y-77746204D01*
X53723515Y-77745192D01*
X53697403Y-77744634D01*
X53672093Y-77744561D01*
X53648762Y-77745004D01*
X53628583Y-77745992D01*
X53620460Y-77746660D01*
X53596962Y-77749137D01*
X53573751Y-77752038D01*
X53550349Y-77755465D01*
X53526281Y-77759522D01*
X53501071Y-77764313D01*
X53474241Y-77769940D01*
X53445315Y-77776506D01*
X53413818Y-77784116D01*
X53379273Y-77792871D01*
X53341203Y-77802876D01*
X53299132Y-77814234D01*
X53263860Y-77823924D01*
X53210604Y-77838452D01*
X53161613Y-77851381D01*
X53116364Y-77862809D01*
X53074334Y-77872834D01*
X53034999Y-77881554D01*
X52997835Y-77889067D01*
X52962321Y-77895471D01*
X52927932Y-77900863D01*
X52894145Y-77905341D01*
X52860437Y-77909004D01*
X52826285Y-77911948D01*
X52791165Y-77914273D01*
X52776611Y-77915057D01*
X52720904Y-77916537D01*
X52662097Y-77915601D01*
X52601501Y-77912351D01*
X52540429Y-77906889D01*
X52480194Y-77899316D01*
X52422107Y-77889733D01*
X52404070Y-77886235D01*
X52332667Y-77869871D01*
X52264113Y-77850050D01*
X52197989Y-77826564D01*
X52133878Y-77799208D01*
X52071361Y-77767774D01*
X52010020Y-77732056D01*
X51949438Y-77691848D01*
X51889195Y-77646943D01*
X51842351Y-77608674D01*
X51832949Y-77600409D01*
X51820637Y-77589132D01*
X51806059Y-77575457D01*
X51789859Y-77559999D01*
X51772683Y-77543372D01*
X51755174Y-77526193D01*
X51738538Y-77509638D01*
X51706229Y-77476842D01*
X51676350Y-77445619D01*
X51647932Y-77414894D01*
X51620009Y-77383595D01*
X51591612Y-77350649D01*
X51561775Y-77314983D01*
X51548858Y-77299272D01*
X51533297Y-77280115D01*
X51516552Y-77259235D01*
X51498904Y-77237000D01*
X51480632Y-77213778D01*
X51462014Y-77189936D01*
X51443332Y-77165841D01*
X51424864Y-77141861D01*
X51406889Y-77118363D01*
X51389688Y-77095714D01*
X51373539Y-77074282D01*
X51358723Y-77054433D01*
X51345518Y-77036537D01*
X51334204Y-77020959D01*
X51325061Y-77008066D01*
X51318368Y-76998228D01*
X51314405Y-76991810D01*
X51313511Y-76989934D01*
X51311295Y-76979189D01*
X51310748Y-76966016D01*
X51311878Y-76952789D01*
X51313332Y-76945931D01*
X51314433Y-76942824D01*
X51316266Y-76939263D01*
X51319105Y-76934936D01*
X51323229Y-76929534D01*
X51328914Y-76922743D01*
X51336437Y-76914255D01*
X51346075Y-76903757D01*
X51358104Y-76890939D01*
X51372802Y-76875489D01*
X51390446Y-76857097D01*
X51411311Y-76835452D01*
X51416010Y-76830587D01*
X51465403Y-76779094D01*
X51514283Y-76727434D01*
X51562407Y-76675882D01*
X51609534Y-76624714D01*
X51655423Y-76574207D01*
X51699834Y-76524635D01*
X51742524Y-76476275D01*
X51783252Y-76429403D01*
X51821778Y-76384294D01*
X51857860Y-76341225D01*
X51891256Y-76300470D01*
X51921726Y-76262307D01*
X51949029Y-76227011D01*
X51972922Y-76194857D01*
X51977626Y-76188333D01*
X52043932Y-76092130D01*
X52106794Y-75993365D01*
X52166252Y-75891923D01*
X52222349Y-75787691D01*
X52275124Y-75680554D01*
X52324619Y-75570399D01*
X52370875Y-75457113D01*
X52413934Y-75340580D01*
X52453836Y-75220687D01*
X52490624Y-75097321D01*
X52524337Y-74970367D01*
X52555018Y-74839712D01*
X52582707Y-74705241D01*
X52607445Y-74566841D01*
X52629275Y-74424397D01*
X52637551Y-74363600D01*
X52650068Y-74262272D01*
X52661439Y-74157713D01*
X52671682Y-74049681D01*
X52680815Y-73937934D01*
X52688856Y-73822230D01*
X52695823Y-73702327D01*
X52701734Y-73577983D01*
X52706607Y-73448957D01*
X52707539Y-73419990D01*
X52708395Y-73391896D01*
X52709204Y-73363904D01*
X52709970Y-73335744D01*
X52710696Y-73307150D01*
X52711387Y-73277854D01*
X52712046Y-73247587D01*
X52712678Y-73216082D01*
X52713286Y-73183071D01*
X52713875Y-73148286D01*
X52714448Y-73111459D01*
X52715009Y-73072323D01*
X52715563Y-73030609D01*
X52716112Y-72986049D01*
X52716662Y-72938376D01*
X52717216Y-72887322D01*
X52717778Y-72832619D01*
X52718351Y-72773999D01*
X52718941Y-72711194D01*
X52719550Y-72643936D01*
X52720183Y-72571958D01*
X52720406Y-72546230D01*
X52721435Y-72439510D01*
X52722650Y-72337660D01*
X52724019Y-72243749D01*
X55490263Y-72243749D01*
X55490274Y-72256670D01*
X55492772Y-72305904D01*
X55500000Y-72353350D01*
X55511925Y-72398921D01*
X55528510Y-72442528D01*
X55549719Y-72484085D01*
X55575519Y-72523504D01*
X55605873Y-72560697D01*
X55618183Y-72573806D01*
X55653949Y-72606943D01*
X55692565Y-72635932D01*
X55733776Y-72660645D01*
X55777321Y-72680951D01*
X55822945Y-72696721D01*
X55870388Y-72707825D01*
X55891271Y-72711131D01*
X55906122Y-72712658D01*
X55924492Y-72713787D01*
X55945042Y-72714507D01*
X55966433Y-72714803D01*
X55987324Y-72714663D01*
X56006377Y-72714074D01*
X56022252Y-72713023D01*
X56027446Y-72712465D01*
X56073350Y-72704469D01*
X56117016Y-72692230D01*
X56158195Y-72675877D01*
X56196639Y-72655540D01*
X56232099Y-72631347D01*
X56264324Y-72603426D01*
X56288751Y-72577143D01*
X56316709Y-72540309D01*
X56341219Y-72500367D01*
X56362344Y-72457154D01*
X56380149Y-72410508D01*
X56394698Y-72360266D01*
X56406056Y-72306267D01*
X56412378Y-72264303D01*
X56413911Y-72250390D01*
X56414975Y-72236869D01*
X56415473Y-72225280D01*
X56415311Y-72217165D01*
X56415308Y-72217129D01*
X56411187Y-72198927D01*
X56402570Y-72182079D01*
X56390010Y-72167380D01*
X56374057Y-72155623D01*
X56371550Y-72154238D01*
X56364517Y-72150869D01*
X56357909Y-72148838D01*
X56350026Y-72147822D01*
X56339171Y-72147501D01*
X56335990Y-72147491D01*
X56319414Y-72148388D01*
X56306049Y-72151498D01*
X56294286Y-72157436D01*
X56282512Y-72166817D01*
X56280525Y-72168674D01*
X56272257Y-72177622D01*
X56265979Y-72187306D01*
X56261281Y-72198769D01*
X56257750Y-72213052D01*
X56254977Y-72231199D01*
X56254580Y-72234502D01*
X56247626Y-72280557D01*
X56237903Y-72324057D01*
X56225563Y-72364540D01*
X56210755Y-72401544D01*
X56193631Y-72434609D01*
X56184385Y-72449313D01*
X56173441Y-72463626D01*
X56159444Y-72479004D01*
X56143805Y-72494085D01*
X56127935Y-72507508D01*
X56113435Y-72517794D01*
X56089048Y-72531062D01*
X56063331Y-72541156D01*
X56035442Y-72548302D01*
X56004537Y-72552729D01*
X55977485Y-72554451D01*
X55939200Y-72554173D01*
X55903898Y-72550449D01*
X55870678Y-72543106D01*
X55838637Y-72531971D01*
X55822293Y-72524696D01*
X55787122Y-72505277D01*
X55755700Y-72482486D01*
X55728124Y-72456483D01*
X55704492Y-72427430D01*
X55684902Y-72395486D01*
X55669452Y-72360813D01*
X55658240Y-72323571D01*
X55651364Y-72283921D01*
X55648922Y-72242024D01*
X55648917Y-72240226D01*
X55648783Y-72227629D01*
X55648202Y-72218557D01*
X55646907Y-72211461D01*
X55644632Y-72204789D01*
X55641657Y-72198147D01*
X55631361Y-72181663D01*
X55618284Y-72168878D01*
X55603120Y-72159788D01*
X55586565Y-72154385D01*
X55569313Y-72152666D01*
X55552058Y-72154623D01*
X55535496Y-72160253D01*
X55520321Y-72169549D01*
X55507227Y-72182505D01*
X55496910Y-72199117D01*
X55496824Y-72199300D01*
X55494384Y-72204741D01*
X55492630Y-72209684D01*
X55491450Y-72215093D01*
X55490736Y-72221931D01*
X55490377Y-72231162D01*
X55490263Y-72243749D01*
X52724019Y-72243749D01*
X52724067Y-72240470D01*
X52725700Y-72147734D01*
G37*
X52725700Y-72147734D02*
X52727565Y-72059243D01*
X52729676Y-71974788D01*
X52732050Y-71894163D01*
X52734701Y-71817158D01*
X52737644Y-71743566D01*
X52740894Y-71673179D01*
X52744467Y-71605788D01*
X52748377Y-71541186D01*
X52749637Y-71522854D01*
X54204501Y-71522854D01*
X54207636Y-71570589D01*
X54211329Y-71596270D01*
X54221774Y-71642619D01*
X54236747Y-71687047D01*
X54255983Y-71729305D01*
X54279214Y-71769147D01*
X54306172Y-71806326D01*
X54336591Y-71840593D01*
X54370203Y-71871703D01*
X54406742Y-71899408D01*
X54445941Y-71923461D01*
X54487532Y-71943615D01*
X54531248Y-71959622D01*
X54576823Y-71971236D01*
X54623990Y-71978209D01*
X54624030Y-71978213D01*
X54645985Y-71979952D01*
X54665500Y-71980600D01*
X54684969Y-71980166D01*
X54706788Y-71978654D01*
X54708995Y-71978462D01*
X54751133Y-71973015D01*
X54790935Y-71964164D01*
X54829757Y-71951522D01*
X54868955Y-71934701D01*
X54878030Y-71930270D01*
X54902679Y-71917265D01*
X54924618Y-71904000D01*
X54945062Y-71889586D01*
X54965228Y-71873131D01*
X54986331Y-71853744D01*
X54997553Y-71842734D01*
X55013276Y-71826682D01*
X55026072Y-71812723D01*
X55036919Y-71799702D01*
X55046794Y-71786465D01*
X55053548Y-71776610D01*
X55078190Y-71735983D01*
X55097984Y-71695194D01*
X55113141Y-71653595D01*
X55123870Y-71610539D01*
X55130380Y-71565378D01*
X55132518Y-71532770D01*
X55132073Y-71495940D01*
X56623010Y-71495940D01*
X56623065Y-71516037D01*
X56623276Y-71532034D01*
X56623706Y-71544908D01*
X56624420Y-71555639D01*
X56625483Y-71565205D01*
X56626958Y-71574585D01*
X56628842Y-71584417D01*
X56640753Y-71631052D01*
X56657144Y-71676003D01*
X56677774Y-71718854D01*
X56702401Y-71759190D01*
X56730783Y-71796595D01*
X56762680Y-71830655D01*
X56782274Y-71848356D01*
X56821138Y-71878111D01*
X56862275Y-71903427D01*
X56905388Y-71924211D01*
X56950182Y-71940369D01*
X56996361Y-71951807D01*
X57043629Y-71958431D01*
X57091689Y-71960147D01*
X57128470Y-71958121D01*
X57176371Y-71951252D01*
X57222206Y-71939827D01*
X57266361Y-71923739D01*
X57288490Y-71913638D01*
X57331185Y-71890031D01*
X57370673Y-71862579D01*
X57406774Y-71831516D01*
X57439307Y-71797076D01*
X57468091Y-71759496D01*
X57492946Y-71719009D01*
X57513691Y-71675851D01*
X57530146Y-71630255D01*
X57541737Y-71584417D01*
X57543671Y-71574309D01*
X57545129Y-71564981D01*
X57546175Y-71555455D01*
X57546874Y-71544755D01*
X57547288Y-71531903D01*
X57547482Y-71515921D01*
X57547520Y-71495940D01*
X57547401Y-71473987D01*
X57547053Y-71456240D01*
X57546429Y-71441826D01*
X57545481Y-71429874D01*
X57544163Y-71419512D01*
X57543003Y-71412791D01*
X57531342Y-71364628D01*
X57515156Y-71318667D01*
X57494522Y-71275062D01*
X57469519Y-71233967D01*
X57440225Y-71195536D01*
X57422291Y-71175566D01*
X57386864Y-71141889D01*
X57348722Y-71112482D01*
X57308024Y-71087425D01*
X57264929Y-71066800D01*
X57219595Y-71050685D01*
X57172180Y-71039163D01*
X57144980Y-71034773D01*
X57097617Y-71030942D01*
X57050808Y-71031994D01*
X57004855Y-71037737D01*
X56960058Y-71047981D01*
X56916719Y-71062533D01*
X56875138Y-71081203D01*
X56835616Y-71103800D01*
X56798454Y-71130133D01*
X56763953Y-71160010D01*
X56732415Y-71193240D01*
X56704140Y-71229632D01*
X56679430Y-71268994D01*
X56658585Y-71311137D01*
X56642540Y-71353873D01*
X56636345Y-71374279D01*
X56631553Y-71392880D01*
X56628003Y-71410846D01*
X56625535Y-71429346D01*
X56623988Y-71449550D01*
X56623201Y-71472627D01*
X56623010Y-71495940D01*
X55132073Y-71495940D01*
X55131920Y-71483300D01*
X55126476Y-71435337D01*
X55116192Y-71388906D01*
X55101076Y-71344028D01*
X55081133Y-71300728D01*
X55056370Y-71259027D01*
X55056038Y-71258528D01*
X55026891Y-71219231D01*
X54994375Y-71183696D01*
X54958647Y-71152029D01*
X54919864Y-71124335D01*
X54878182Y-71100719D01*
X54833760Y-71081287D01*
X54786753Y-71066145D01*
X54759974Y-71059709D01*
X54748980Y-71057455D01*
X54739374Y-71055761D01*
X54730116Y-71054546D01*
X54720169Y-71053731D01*
X54708494Y-71053235D01*
X54694053Y-71052980D01*
X54675806Y-71052885D01*
X54671020Y-71052878D01*
X54645884Y-71053057D01*
X54624625Y-71053765D01*
X54606051Y-71055155D01*
X54588972Y-71057385D01*
X54572197Y-71060610D01*
X54554536Y-71064987D01*
X54534798Y-71070671D01*
X54534459Y-71070774D01*
X54489213Y-71086996D01*
X54446631Y-71107361D01*
X54406891Y-71131581D01*
X54370169Y-71159371D01*
X54336640Y-71190444D01*
X54306480Y-71224513D01*
X54279867Y-71261293D01*
X54256974Y-71300497D01*
X54237980Y-71341838D01*
X54223059Y-71385031D01*
X54212389Y-71429789D01*
X54206144Y-71475825D01*
X54204501Y-71522854D01*
X52749637Y-71522854D01*
X52752640Y-71479165D01*
X52757272Y-71419516D01*
X52762286Y-71362032D01*
X52767698Y-71306505D01*
X52773524Y-71252725D01*
X52779778Y-71200487D01*
X52786476Y-71149580D01*
X52793633Y-71099798D01*
X52801264Y-71050932D01*
X52809384Y-71002775D01*
X52818008Y-70955117D01*
X52827151Y-70907752D01*
X52836829Y-70860471D01*
X52846301Y-70816490D01*
X52878636Y-70680186D01*
X52915008Y-70546451D01*
X52955374Y-70415380D01*
X52999693Y-70287068D01*
X53047921Y-70161611D01*
X53100016Y-70039104D01*
X53155936Y-69919643D01*
X53215638Y-69803323D01*
X53279080Y-69690238D01*
X53346220Y-69580486D01*
X53417014Y-69474161D01*
X53485787Y-69378850D01*
X53560303Y-69283462D01*
X53638122Y-69191628D01*
X53719105Y-69103474D01*
X53803114Y-69019126D01*
X53890012Y-68938710D01*
X53979661Y-68862353D01*
X54071922Y-68790181D01*
X54166658Y-68722321D01*
X54263730Y-68658898D01*
X54288750Y-68643507D01*
X54390294Y-68584772D01*
X54494521Y-68530304D01*
X54601283Y-68480148D01*
X54710433Y-68434352D01*
X54821826Y-68392962D01*
X54935314Y-68356024D01*
X55050751Y-68323585D01*
X55167990Y-68295691D01*
X55286884Y-68272390D01*
X55407287Y-68253727D01*
X55529052Y-68239749D01*
X55572720Y-68235911D01*
X55650682Y-68230735D01*
X55731432Y-68227512D01*
X55813560Y-68226243D01*
X55895656Y-68226928D01*
X55976310Y-68229567D01*
X56054111Y-68234159D01*
X56076910Y-68235936D01*
X56195383Y-68248031D01*
X56312710Y-68264609D01*
X56428626Y-68285602D01*
X56542863Y-68310942D01*
X56655155Y-68340560D01*
X56765235Y-68374389D01*
X56872838Y-68412360D01*
X56977697Y-68454404D01*
X57042110Y-68482899D01*
X57134279Y-68527989D01*
X57224135Y-68577589D01*
X57311683Y-68631704D01*
X57396927Y-68690338D01*
X57479874Y-68753494D01*
X57560527Y-68821176D01*
X57638893Y-68893390D01*
X57714977Y-68970138D01*
X57788783Y-69051425D01*
X57824273Y-69093100D01*
X57883264Y-69166419D01*
X57940935Y-69243356D01*
X57997354Y-69324035D01*
X58052589Y-69408580D01*
X58106708Y-69497117D01*
X58159778Y-69589768D01*
X58211868Y-69686660D01*
X58263045Y-69787916D01*
X58313378Y-69893661D01*
X58362934Y-70004019D01*
X58411781Y-70119114D01*
X58459987Y-70239071D01*
X58484969Y-70303795D01*
X58509278Y-70368373D01*
X58533689Y-70434655D01*
X58558008Y-70502058D01*
X58582036Y-70569997D01*
X58605577Y-70637886D01*
X58628434Y-70705142D01*
X58650410Y-70771179D01*
X58671308Y-70835414D01*
X58690932Y-70897261D01*
X58709083Y-70956136D01*
X58725567Y-71011455D01*
X58738477Y-71056520D01*
X58779454Y-71209685D01*
X58817704Y-71367078D01*
X58853218Y-71528633D01*
X58885987Y-71694285D01*
X58916000Y-71863969D01*
X58943249Y-72037621D01*
X58967725Y-72215174D01*
X58989418Y-72396566D01*
X59008318Y-72581729D01*
X59024417Y-72770600D01*
X59037704Y-72963114D01*
X59048172Y-73159205D01*
X59051201Y-73229490D01*
X59052727Y-73267756D01*
X59054084Y-73303048D01*
X59055285Y-73335962D01*
X59056341Y-73367097D01*
X59057265Y-73397049D01*
X59058069Y-73426415D01*
X59058768Y-73455792D01*
X59059372Y-73485778D01*
X59059894Y-73516968D01*
X59060348Y-73549961D01*
X59060745Y-73585353D01*
X59061099Y-73623742D01*
X59061421Y-73665724D01*
X59061724Y-73711897D01*
X59061870Y-73736220D01*
X59062214Y-73812792D01*
X59062313Y-73885120D01*
X59062155Y-73954035D01*
X59061724Y-74020367D01*
X59061008Y-74084947D01*
X59059990Y-74148606D01*
X59058659Y-74212174D01*
X59056998Y-74276482D01*
X59054994Y-74342361D01*
X59052634Y-74410642D01*
X59049902Y-74482155D01*
X59048636Y-74513460D01*
X59038775Y-74721776D01*
X59026186Y-74933327D01*
X59010954Y-75147116D01*
X58993164Y-75362147D01*
X58972902Y-75577423D01*
X58950252Y-75791949D01*
X58925299Y-76004729D01*
X58912748Y-76104251D01*
X58909545Y-76129502D01*
X58906264Y-76156146D01*
X58903036Y-76183059D01*
X58899993Y-76209118D01*
X58897266Y-76233202D01*
X58894987Y-76254186D01*
X58893691Y-76266811D01*
X58888507Y-76316274D01*
X58882390Y-76369689D01*
X58875476Y-76426044D01*
X58867901Y-76484326D01*
X58859800Y-76543519D01*
X58851309Y-76602612D01*
X58842564Y-76660591D01*
X58833700Y-76716442D01*
X58832584Y-76723260D01*
X58804919Y-76882405D01*
X58774574Y-77039325D01*
X58741614Y-77193786D01*
X58706105Y-77345559D01*
X58668112Y-77494412D01*
X58627703Y-77640112D01*
X58584941Y-77782430D01*
X58539894Y-77921133D01*
X58492626Y-78055991D01*
X58443204Y-78186771D01*
X58391692Y-78313242D01*
X58360373Y-78385690D01*
X58347443Y-78414769D01*
X58336269Y-78439495D01*
X58326676Y-78460212D01*
X58318487Y-78477263D01*
X58311526Y-78490994D01*
X58305618Y-78501749D01*
X58300587Y-78509872D01*
X58296257Y-78515708D01*
X58292452Y-78519601D01*
X58291664Y-78520233D01*
X58276622Y-78528872D01*
X58260052Y-78533519D01*
X58243182Y-78534010D01*
X58227239Y-78530176D01*
X58225107Y-78529264D01*
X58218534Y-78525513D01*
X58209558Y-78519370D01*
X58199568Y-78511821D01*
X58193357Y-78506766D01*
X58153211Y-78474512D01*
X58108872Y-78441557D01*
X58061087Y-78408365D01*
X58010607Y-78375401D01*
X57958183Y-78343129D01*
X57904563Y-78312013D01*
X57850497Y-78282518D01*
X57796736Y-78255107D01*
X57754420Y-78234978D01*
X57668788Y-78197965D01*
X57583595Y-78165820D01*
X57498903Y-78138551D01*
X57414776Y-78116163D01*
X57331274Y-78098663D01*
X57248462Y-78086059D01*
X57166401Y-78078356D01*
X57085153Y-78075560D01*
X57004781Y-78077679D01*
X56925348Y-78084720D01*
X56846915Y-78096687D01*
X56769546Y-78113589D01*
X56722009Y-78126587D01*
X56700163Y-78133171D01*
X56679725Y-78139665D01*
X56659984Y-78146349D01*
X56640227Y-78153498D01*
X56619740Y-78161392D01*
X56597813Y-78170306D01*
X56573731Y-78180520D01*
X56546783Y-78192311D01*
X56516256Y-78205955D01*
X56503630Y-78211657D01*
X56446724Y-78237189D01*
X56393615Y-78260549D01*
X56343649Y-78282010D01*
X56296170Y-78301847D01*
X56250524Y-78320334D01*
X56206057Y-78337747D01*
X56173476Y-78350120D01*
X56077953Y-78384181D01*
X55984838Y-78413841D01*
X55894019Y-78439114D01*
X55805386Y-78460009D01*
X55718828Y-78476539D01*
X55634235Y-78488716D01*
X55551495Y-78496552D01*
X55470497Y-78500058D01*
X55391133Y-78499246D01*
X55313289Y-78494127D01*
X55236857Y-78484714D01*
X55161724Y-78471019D01*
X55121636Y-78461842D01*
X55062843Y-78445964D01*
X55005613Y-78427495D01*
X54949437Y-78406187D01*
X54893804Y-78381789D01*
X54838206Y-78354052D01*
X54782131Y-78322728D01*
X54725069Y-78287565D01*
X54666512Y-78248316D01*
X54626020Y-78219486D01*
X54615777Y-78211925D01*
X54602227Y-78201758D01*
X54586064Y-78189514D01*
X54567978Y-78175722D01*
X54548663Y-78160909D01*
X54528811Y-78145604D01*
X54509113Y-78130334D01*
X54506640Y-78128410D01*
X54485587Y-78112076D01*
X54463066Y-78094689D01*
X54440006Y-78076960D01*
X54417342Y-78059606D01*
X54396003Y-78043338D01*
X54376923Y-78028871D01*
X54362924Y-78018334D01*
X54302609Y-77974398D01*
X54244592Y-77934715D01*
X54188602Y-77899154D01*
X54134370Y-77867587D01*
X54081627Y-77839881D01*
X54030102Y-77815906D01*
X53979527Y-77795532D01*
X53929632Y-77778628D01*
X53880148Y-77765064D01*
X53830805Y-77754709D01*
X53812509Y-77751661D01*
X53794928Y-77749470D01*
X53773453Y-77747640D01*
X53749257Y-77746204D01*
X53723515Y-77745192D01*
X53697403Y-77744634D01*
X53672093Y-77744561D01*
X53648762Y-77745004D01*
X53628583Y-77745992D01*
X53620460Y-77746660D01*
X53596962Y-77749137D01*
X53573751Y-77752038D01*
X53550349Y-77755465D01*
X53526281Y-77759522D01*
X53501071Y-77764313D01*
X53474241Y-77769940D01*
X53445315Y-77776506D01*
X53413818Y-77784116D01*
X53379273Y-77792871D01*
X53341203Y-77802876D01*
X53299132Y-77814234D01*
X53263860Y-77823924D01*
X53210604Y-77838452D01*
X53161613Y-77851381D01*
X53116364Y-77862809D01*
X53074334Y-77872834D01*
X53034999Y-77881554D01*
X52997835Y-77889067D01*
X52962321Y-77895471D01*
X52927932Y-77900863D01*
X52894145Y-77905341D01*
X52860437Y-77909004D01*
X52826285Y-77911948D01*
X52791165Y-77914273D01*
X52776611Y-77915057D01*
X52720904Y-77916537D01*
X52662097Y-77915601D01*
X52601501Y-77912351D01*
X52540429Y-77906889D01*
X52480194Y-77899316D01*
X52422107Y-77889733D01*
X52404070Y-77886235D01*
X52332667Y-77869871D01*
X52264113Y-77850050D01*
X52197989Y-77826564D01*
X52133878Y-77799208D01*
X52071361Y-77767774D01*
X52010020Y-77732056D01*
X51949438Y-77691848D01*
X51889195Y-77646943D01*
X51842351Y-77608674D01*
X51832949Y-77600409D01*
X51820637Y-77589132D01*
X51806059Y-77575457D01*
X51789859Y-77559999D01*
X51772683Y-77543372D01*
X51755174Y-77526193D01*
X51738538Y-77509638D01*
X51706229Y-77476842D01*
X51676350Y-77445619D01*
X51647932Y-77414894D01*
X51620009Y-77383595D01*
X51591612Y-77350649D01*
X51561775Y-77314983D01*
X51548858Y-77299272D01*
X51533297Y-77280115D01*
X51516552Y-77259235D01*
X51498904Y-77237000D01*
X51480632Y-77213778D01*
X51462014Y-77189936D01*
X51443332Y-77165841D01*
X51424864Y-77141861D01*
X51406889Y-77118363D01*
X51389688Y-77095714D01*
X51373539Y-77074282D01*
X51358723Y-77054433D01*
X51345518Y-77036537D01*
X51334204Y-77020959D01*
X51325061Y-77008066D01*
X51318368Y-76998228D01*
X51314405Y-76991810D01*
X51313511Y-76989934D01*
X51311295Y-76979189D01*
X51310748Y-76966016D01*
X51311878Y-76952789D01*
X51313332Y-76945931D01*
X51314433Y-76942824D01*
X51316266Y-76939263D01*
X51319105Y-76934936D01*
X51323229Y-76929534D01*
X51328914Y-76922743D01*
X51336437Y-76914255D01*
X51346075Y-76903757D01*
X51358104Y-76890939D01*
X51372802Y-76875489D01*
X51390446Y-76857097D01*
X51411311Y-76835452D01*
X51416010Y-76830587D01*
X51465403Y-76779094D01*
X51514283Y-76727434D01*
X51562407Y-76675882D01*
X51609534Y-76624714D01*
X51655423Y-76574207D01*
X51699834Y-76524635D01*
X51742524Y-76476275D01*
X51783252Y-76429403D01*
X51821778Y-76384294D01*
X51857860Y-76341225D01*
X51891256Y-76300470D01*
X51921726Y-76262307D01*
X51949029Y-76227011D01*
X51972922Y-76194857D01*
X51977626Y-76188333D01*
X52043932Y-76092130D01*
X52106794Y-75993365D01*
X52166252Y-75891923D01*
X52222349Y-75787691D01*
X52275124Y-75680554D01*
X52324619Y-75570399D01*
X52370875Y-75457113D01*
X52413934Y-75340580D01*
X52453836Y-75220687D01*
X52490624Y-75097321D01*
X52524337Y-74970367D01*
X52555018Y-74839712D01*
X52582707Y-74705241D01*
X52607445Y-74566841D01*
X52629275Y-74424397D01*
X52637551Y-74363600D01*
X52650068Y-74262272D01*
X52661439Y-74157713D01*
X52671682Y-74049681D01*
X52680815Y-73937934D01*
X52688856Y-73822230D01*
X52695823Y-73702327D01*
X52701734Y-73577983D01*
X52706607Y-73448957D01*
X52707539Y-73419990D01*
X52708395Y-73391896D01*
X52709204Y-73363904D01*
X52709970Y-73335744D01*
X52710696Y-73307150D01*
X52711387Y-73277854D01*
X52712046Y-73247587D01*
X52712678Y-73216082D01*
X52713286Y-73183071D01*
X52713875Y-73148286D01*
X52714448Y-73111459D01*
X52715009Y-73072323D01*
X52715563Y-73030609D01*
X52716112Y-72986049D01*
X52716662Y-72938376D01*
X52717216Y-72887322D01*
X52717778Y-72832619D01*
X52718351Y-72773999D01*
X52718941Y-72711194D01*
X52719550Y-72643936D01*
X52720183Y-72571958D01*
X52720406Y-72546230D01*
X52721435Y-72439510D01*
X52722650Y-72337660D01*
X52724019Y-72243749D01*
X55490263Y-72243749D01*
X55490274Y-72256670D01*
X55492772Y-72305904D01*
X55500000Y-72353350D01*
X55511925Y-72398921D01*
X55528510Y-72442528D01*
X55549719Y-72484085D01*
X55575519Y-72523504D01*
X55605873Y-72560697D01*
X55618183Y-72573806D01*
X55653949Y-72606943D01*
X55692565Y-72635932D01*
X55733776Y-72660645D01*
X55777321Y-72680951D01*
X55822945Y-72696721D01*
X55870388Y-72707825D01*
X55891271Y-72711131D01*
X55906122Y-72712658D01*
X55924492Y-72713787D01*
X55945042Y-72714507D01*
X55966433Y-72714803D01*
X55987324Y-72714663D01*
X56006377Y-72714074D01*
X56022252Y-72713023D01*
X56027446Y-72712465D01*
X56073350Y-72704469D01*
X56117016Y-72692230D01*
X56158195Y-72675877D01*
X56196639Y-72655540D01*
X56232099Y-72631347D01*
X56264324Y-72603426D01*
X56288751Y-72577143D01*
X56316709Y-72540309D01*
X56341219Y-72500367D01*
X56362344Y-72457154D01*
X56380149Y-72410508D01*
X56394698Y-72360266D01*
X56406056Y-72306267D01*
X56412378Y-72264303D01*
X56413911Y-72250390D01*
X56414975Y-72236869D01*
X56415473Y-72225280D01*
X56415311Y-72217165D01*
X56415308Y-72217129D01*
X56411187Y-72198927D01*
X56402570Y-72182079D01*
X56390010Y-72167380D01*
X56374057Y-72155623D01*
X56371550Y-72154238D01*
X56364517Y-72150869D01*
X56357909Y-72148838D01*
X56350026Y-72147822D01*
X56339171Y-72147501D01*
X56335990Y-72147491D01*
X56319414Y-72148388D01*
X56306049Y-72151498D01*
X56294286Y-72157436D01*
X56282512Y-72166817D01*
X56280525Y-72168674D01*
X56272257Y-72177622D01*
X56265979Y-72187306D01*
X56261281Y-72198769D01*
X56257750Y-72213052D01*
X56254977Y-72231199D01*
X56254580Y-72234502D01*
X56247626Y-72280557D01*
X56237903Y-72324057D01*
X56225563Y-72364540D01*
X56210755Y-72401544D01*
X56193631Y-72434609D01*
X56184385Y-72449313D01*
X56173441Y-72463626D01*
X56159444Y-72479004D01*
X56143805Y-72494085D01*
X56127935Y-72507508D01*
X56113435Y-72517794D01*
X56089048Y-72531062D01*
X56063331Y-72541156D01*
X56035442Y-72548302D01*
X56004537Y-72552729D01*
X55977485Y-72554451D01*
X55939200Y-72554173D01*
X55903898Y-72550449D01*
X55870678Y-72543106D01*
X55838637Y-72531971D01*
X55822293Y-72524696D01*
X55787122Y-72505277D01*
X55755700Y-72482486D01*
X55728124Y-72456483D01*
X55704492Y-72427430D01*
X55684902Y-72395486D01*
X55669452Y-72360813D01*
X55658240Y-72323571D01*
X55651364Y-72283921D01*
X55648922Y-72242024D01*
X55648917Y-72240226D01*
X55648783Y-72227629D01*
X55648202Y-72218557D01*
X55646907Y-72211461D01*
X55644632Y-72204789D01*
X55641657Y-72198147D01*
X55631361Y-72181663D01*
X55618284Y-72168878D01*
X55603120Y-72159788D01*
X55586565Y-72154385D01*
X55569313Y-72152666D01*
X55552058Y-72154623D01*
X55535496Y-72160253D01*
X55520321Y-72169549D01*
X55507227Y-72182505D01*
X55496910Y-72199117D01*
X55496824Y-72199300D01*
X55494384Y-72204741D01*
X55492630Y-72209684D01*
X55491450Y-72215093D01*
X55490736Y-72221931D01*
X55490377Y-72231162D01*
X55490263Y-72243749D01*
X52724019Y-72243749D01*
X52724067Y-72240470D01*
X52725700Y-72147734D01*
D13*
X136667224Y-66477500D02*
X136157776Y-66477500D01*
X136667224Y-67522500D02*
X136157776Y-67522500D01*
X112200000Y-52600000D02*
X108350000Y-52600000D01*
X112200000Y-54600000D02*
X112200000Y-52600000D01*
X112200000Y-54600000D02*
X108350000Y-54600000D01*
X130245276Y-78022500D02*
X130754724Y-78022500D01*
X130245276Y-76977500D02*
X130754724Y-76977500D01*
X125120276Y-78477500D02*
X125629724Y-78477500D01*
X125120276Y-79522500D02*
X125629724Y-79522500D01*
X133342224Y-65977500D02*
X132832776Y-65977500D01*
X133342224Y-67022500D02*
X132832776Y-67022500D01*
X81008767Y-64490000D02*
X80716233Y-64490000D01*
X81008767Y-65510000D02*
X80716233Y-65510000D01*
X82832776Y-67477500D02*
X83342224Y-67477500D01*
X82832776Y-68522500D02*
X83342224Y-68522500D01*
X82105000Y-94570000D02*
X82105000Y-97230000D01*
X84705000Y-94570000D02*
X84705000Y-95900000D01*
X83375000Y-94570000D02*
X84705000Y-94570000D01*
X82105000Y-94570000D02*
X79505000Y-94570000D01*
X82105000Y-97230000D02*
X79505000Y-97230000D01*
X79505000Y-94570000D02*
X79505000Y-97230000D01*
X84332776Y-64977500D02*
X84842224Y-64977500D01*
X84332776Y-66022500D02*
X84842224Y-66022500D01*
X84600000Y-93800000D02*
X80750000Y-93800000D01*
X84600000Y-93800000D02*
X84600000Y-91800000D01*
X84600000Y-91800000D02*
X80750000Y-91800000D01*
X94322500Y-59254724D02*
X94322500Y-58745276D01*
X93277500Y-59254724D02*
X93277500Y-58745276D01*
X136667224Y-64977500D02*
X136157776Y-64977500D01*
X136667224Y-66022500D02*
X136157776Y-66022500D01*
X86745276Y-67477500D02*
X87254724Y-67477500D01*
X86745276Y-68522500D02*
X87254724Y-68522500D01*
%LPC*%
G36*
X153050000Y-72490000D02*
G01*
X155650000Y-72490000D01*
X155650000Y-75090000D01*
X153050000Y-75090000D01*
X153050000Y-72490000D01*
G37*
G36*
X153050000Y-83890000D02*
G01*
X155650000Y-83890000D01*
X155650000Y-86490000D01*
X153050000Y-86490000D01*
X153050000Y-83890000D01*
G37*
D16*
X155630000Y-78350000D02*
G75*
G03*
X155630000Y-78350000I-1780000J0D01*
G01*
G36*
X134201726Y-82152249D02*
G01*
X136163971Y-80446496D01*
X137869725Y-82408741D01*
X135907480Y-84114494D01*
X134201726Y-82152249D01*
G37*
G36*
X141680799Y-90755938D02*
G01*
X143643044Y-89050185D01*
X145348798Y-91012430D01*
X143386553Y-92718183D01*
X141680799Y-90755938D01*
G37*
D17*
X140430000Y-86050000D02*
G75*
G03*
X140430000Y-86050000I-1780000J0D01*
G01*
D15*
X82604422Y-105956820D02*
X82915949Y-106008021D01*
X82915949Y-106008021D02*
X83095167Y-106056936D01*
X83095167Y-106056936D02*
X83387517Y-106170762D01*
X83387517Y-106170762D02*
X83659270Y-106319569D01*
X83659270Y-106319569D02*
X83908070Y-106500134D01*
X83908070Y-106500134D02*
X84131564Y-106709239D01*
X84131564Y-106709239D02*
X84327396Y-106943661D01*
X84327396Y-106943661D02*
X84493211Y-107200182D01*
X84493211Y-107200182D02*
X84626656Y-107475578D01*
X84626656Y-107475578D02*
X84725376Y-107766631D01*
X84725376Y-107766631D02*
X84787015Y-108070119D01*
X84787015Y-108070119D02*
X84809220Y-108382822D01*
X84809220Y-108382822D02*
X84809248Y-108401490D01*
X84809248Y-108401490D02*
X84787822Y-108717033D01*
X84787822Y-108717033D02*
X84726415Y-109025370D01*
X84726415Y-109025370D02*
X84627016Y-109322500D01*
X84627016Y-109322500D02*
X84491619Y-109604426D01*
X84491619Y-109604426D02*
X84322215Y-109867149D01*
X84322215Y-109867149D02*
X84120796Y-110106670D01*
X84120796Y-110106670D02*
X83889355Y-110318991D01*
X83889355Y-110318991D02*
X83831706Y-110363843D01*
X83831706Y-110363843D02*
X83666869Y-110474550D01*
X83666869Y-110474550D02*
X83475869Y-110580730D01*
X83475869Y-110580730D02*
X83274191Y-110674847D01*
X83274191Y-110674847D02*
X83077322Y-110749371D01*
X83077322Y-110749371D02*
X82978750Y-110778739D01*
X82978750Y-110778739D02*
X82890243Y-110800652D01*
X82890243Y-110800652D02*
X82809591Y-110816450D01*
X82809591Y-110816450D02*
X82726041Y-110827306D01*
X82726041Y-110827306D02*
X82628839Y-110834391D01*
X82628839Y-110834391D02*
X82507233Y-110838876D01*
X82507233Y-110838876D02*
X82407250Y-110841001D01*
X82407250Y-110841001D02*
X82279099Y-110842029D01*
X82279099Y-110842029D02*
X82157529Y-110840760D01*
X82157529Y-110840760D02*
X82052376Y-110837461D01*
X82052376Y-110837461D02*
X81973478Y-110832398D01*
X81973478Y-110832398D02*
X81941584Y-110828405D01*
X81941584Y-110828405D02*
X81781921Y-110792541D01*
X81781921Y-110792541D02*
X81606690Y-110741195D01*
X81606690Y-110741195D02*
X81435209Y-110680598D01*
X81435209Y-110680598D02*
X81287992Y-110617560D01*
X81287992Y-110617560D02*
X81105383Y-110521533D01*
X81105383Y-110521533D02*
X80943301Y-110417332D01*
X80943301Y-110417332D02*
X80787567Y-110294960D01*
X80787567Y-110294960D02*
X80642799Y-110162648D01*
X80642799Y-110162648D02*
X80425358Y-109925163D01*
X80425358Y-109925163D02*
X80244079Y-109666506D01*
X80244079Y-109666506D02*
X80098001Y-109385043D01*
X80098001Y-109385043D02*
X79986166Y-109079142D01*
X79986166Y-109079142D02*
X79967062Y-109012089D01*
X79967062Y-109012089D02*
X79947500Y-108937074D01*
X79947500Y-108937074D02*
X79933140Y-108871161D01*
X79933140Y-108871161D02*
X79923195Y-108805572D01*
X79923195Y-108805572D02*
X79916883Y-108731532D01*
X79916883Y-108731532D02*
X79913417Y-108640262D01*
X79913417Y-108640262D02*
X79912014Y-108522987D01*
X79912014Y-108522987D02*
X79911858Y-108394667D01*
X79911858Y-108394667D02*
X79912400Y-108248502D01*
X79912400Y-108248502D02*
X79914232Y-108135825D01*
X79914232Y-108135825D02*
X79918183Y-108047796D01*
X79918183Y-108047796D02*
X79925080Y-107975571D01*
X79925080Y-107975571D02*
X79935753Y-107910309D01*
X79935753Y-107910309D02*
X79951031Y-107843168D01*
X79951031Y-107843168D02*
X79970383Y-107770250D01*
X79970383Y-107770250D02*
X80073339Y-107471691D01*
X80073339Y-107471691D02*
X80212331Y-107189838D01*
X80212331Y-107189838D02*
X80384258Y-106928306D01*
X80384258Y-106928306D02*
X80586019Y-106690708D01*
X80586019Y-106690708D02*
X80814512Y-106480656D01*
X80814512Y-106480656D02*
X81066636Y-106301763D01*
X81066636Y-106301763D02*
X81339289Y-106157644D01*
X81339289Y-106157644D02*
X81363879Y-106146868D01*
X81363879Y-106146868D02*
X81662509Y-106040682D01*
X81662509Y-106040682D02*
X81972367Y-105973427D01*
X81972367Y-105973427D02*
X82288116Y-105945381D01*
X82288116Y-105945381D02*
X82604422Y-105956820D01*
X82604422Y-105956820D02*
X82604422Y-105956820D01*
G36*
X82604422Y-105956820D02*
G01*
X82915949Y-106008021D01*
X83095167Y-106056936D01*
X83387517Y-106170762D01*
X83659270Y-106319569D01*
X83908070Y-106500134D01*
X84131564Y-106709239D01*
X84327396Y-106943661D01*
X84493211Y-107200182D01*
X84626656Y-107475578D01*
X84725376Y-107766631D01*
X84787015Y-108070119D01*
X84809220Y-108382822D01*
X84809248Y-108401490D01*
X84787822Y-108717033D01*
X84726415Y-109025370D01*
X84627016Y-109322500D01*
X84491619Y-109604426D01*
X84322215Y-109867149D01*
X84120796Y-110106670D01*
X83889355Y-110318991D01*
X83831706Y-110363843D01*
X83666869Y-110474550D01*
X83475869Y-110580730D01*
X83274191Y-110674847D01*
X83077322Y-110749371D01*
X82978750Y-110778739D01*
X82890243Y-110800652D01*
X82809591Y-110816450D01*
X82726041Y-110827306D01*
X82628839Y-110834391D01*
X82507233Y-110838876D01*
X82407250Y-110841001D01*
X82279099Y-110842029D01*
X82157529Y-110840760D01*
X82052376Y-110837461D01*
X81973478Y-110832398D01*
X81941584Y-110828405D01*
X81781921Y-110792541D01*
X81606690Y-110741195D01*
X81435209Y-110680598D01*
X81287992Y-110617560D01*
X81105383Y-110521533D01*
X80943301Y-110417332D01*
X80787567Y-110294960D01*
X80642799Y-110162648D01*
X80425358Y-109925163D01*
X80244079Y-109666506D01*
X80098001Y-109385043D01*
X79986166Y-109079142D01*
X79967062Y-109012089D01*
X79947500Y-108937074D01*
X79933140Y-108871161D01*
X79923195Y-108805572D01*
X79916883Y-108731532D01*
X79913417Y-108640262D01*
X79912014Y-108522987D01*
X79911858Y-108394667D01*
X79912400Y-108248502D01*
X79914232Y-108135825D01*
X79918183Y-108047796D01*
X79925080Y-107975571D01*
X79935753Y-107910309D01*
X79951031Y-107843168D01*
X79970383Y-107770250D01*
X80073339Y-107471691D01*
X80212331Y-107189838D01*
X80384258Y-106928306D01*
X80586019Y-106690708D01*
X80814512Y-106480656D01*
X81066636Y-106301763D01*
X81339289Y-106157644D01*
X81363879Y-106146868D01*
X81662509Y-106040682D01*
X81972367Y-105973427D01*
X82288116Y-105945381D01*
X82604422Y-105956820D01*
G37*
X82604422Y-105956820D02*
X82915949Y-106008021D01*
X83095167Y-106056936D01*
X83387517Y-106170762D01*
X83659270Y-106319569D01*
X83908070Y-106500134D01*
X84131564Y-106709239D01*
X84327396Y-106943661D01*
X84493211Y-107200182D01*
X84626656Y-107475578D01*
X84725376Y-107766631D01*
X84787015Y-108070119D01*
X84809220Y-108382822D01*
X84809248Y-108401490D01*
X84787822Y-108717033D01*
X84726415Y-109025370D01*
X84627016Y-109322500D01*
X84491619Y-109604426D01*
X84322215Y-109867149D01*
X84120796Y-110106670D01*
X83889355Y-110318991D01*
X83831706Y-110363843D01*
X83666869Y-110474550D01*
X83475869Y-110580730D01*
X83274191Y-110674847D01*
X83077322Y-110749371D01*
X82978750Y-110778739D01*
X82890243Y-110800652D01*
X82809591Y-110816450D01*
X82726041Y-110827306D01*
X82628839Y-110834391D01*
X82507233Y-110838876D01*
X82407250Y-110841001D01*
X82279099Y-110842029D01*
X82157529Y-110840760D01*
X82052376Y-110837461D01*
X81973478Y-110832398D01*
X81941584Y-110828405D01*
X81781921Y-110792541D01*
X81606690Y-110741195D01*
X81435209Y-110680598D01*
X81287992Y-110617560D01*
X81105383Y-110521533D01*
X80943301Y-110417332D01*
X80787567Y-110294960D01*
X80642799Y-110162648D01*
X80425358Y-109925163D01*
X80244079Y-109666506D01*
X80098001Y-109385043D01*
X79986166Y-109079142D01*
X79967062Y-109012089D01*
X79947500Y-108937074D01*
X79933140Y-108871161D01*
X79923195Y-108805572D01*
X79916883Y-108731532D01*
X79913417Y-108640262D01*
X79912014Y-108522987D01*
X79911858Y-108394667D01*
X79912400Y-108248502D01*
X79914232Y-108135825D01*
X79918183Y-108047796D01*
X79925080Y-107975571D01*
X79935753Y-107910309D01*
X79951031Y-107843168D01*
X79970383Y-107770250D01*
X80073339Y-107471691D01*
X80212331Y-107189838D01*
X80384258Y-106928306D01*
X80586019Y-106690708D01*
X80814512Y-106480656D01*
X81066636Y-106301763D01*
X81339289Y-106157644D01*
X81363879Y-106146868D01*
X81662509Y-106040682D01*
X81972367Y-105973427D01*
X82288116Y-105945381D01*
X82604422Y-105956820D01*
X90554422Y-98006820D02*
X90865949Y-98058021D01*
X90865949Y-98058021D02*
X91045167Y-98106936D01*
X91045167Y-98106936D02*
X91337517Y-98220762D01*
X91337517Y-98220762D02*
X91609270Y-98369569D01*
X91609270Y-98369569D02*
X91858070Y-98550134D01*
X91858070Y-98550134D02*
X92081564Y-98759239D01*
X92081564Y-98759239D02*
X92277396Y-98993661D01*
X92277396Y-98993661D02*
X92443211Y-99250182D01*
X92443211Y-99250182D02*
X92576656Y-99525578D01*
X92576656Y-99525578D02*
X92675376Y-99816631D01*
X92675376Y-99816631D02*
X92737015Y-100120119D01*
X92737015Y-100120119D02*
X92759220Y-100432822D01*
X92759220Y-100432822D02*
X92759248Y-100451490D01*
X92759248Y-100451490D02*
X92737822Y-100767033D01*
X92737822Y-100767033D02*
X92676415Y-101075370D01*
X92676415Y-101075370D02*
X92577016Y-101372500D01*
X92577016Y-101372500D02*
X92441619Y-101654426D01*
X92441619Y-101654426D02*
X92272215Y-101917149D01*
X92272215Y-101917149D02*
X92070796Y-102156670D01*
X92070796Y-102156670D02*
X91839355Y-102368991D01*
X91839355Y-102368991D02*
X91781706Y-102413843D01*
X91781706Y-102413843D02*
X91616869Y-102524550D01*
X91616869Y-102524550D02*
X91425869Y-102630730D01*
X91425869Y-102630730D02*
X91224191Y-102724847D01*
X91224191Y-102724847D02*
X91027322Y-102799371D01*
X91027322Y-102799371D02*
X90928750Y-102828739D01*
X90928750Y-102828739D02*
X90840243Y-102850652D01*
X90840243Y-102850652D02*
X90759591Y-102866450D01*
X90759591Y-102866450D02*
X90676041Y-102877306D01*
X90676041Y-102877306D02*
X90578839Y-102884391D01*
X90578839Y-102884391D02*
X90457233Y-102888876D01*
X90457233Y-102888876D02*
X90357250Y-102891001D01*
X90357250Y-102891001D02*
X90229099Y-102892029D01*
X90229099Y-102892029D02*
X90107529Y-102890760D01*
X90107529Y-102890760D02*
X90002376Y-102887461D01*
X90002376Y-102887461D02*
X89923478Y-102882398D01*
X89923478Y-102882398D02*
X89891584Y-102878405D01*
X89891584Y-102878405D02*
X89731921Y-102842541D01*
X89731921Y-102842541D02*
X89556690Y-102791195D01*
X89556690Y-102791195D02*
X89385209Y-102730598D01*
X89385209Y-102730598D02*
X89237992Y-102667560D01*
X89237992Y-102667560D02*
X89055383Y-102571533D01*
X89055383Y-102571533D02*
X88893301Y-102467332D01*
X88893301Y-102467332D02*
X88737567Y-102344960D01*
X88737567Y-102344960D02*
X88592799Y-102212648D01*
X88592799Y-102212648D02*
X88375358Y-101975163D01*
X88375358Y-101975163D02*
X88194079Y-101716506D01*
X88194079Y-101716506D02*
X88048001Y-101435043D01*
X88048001Y-101435043D02*
X87936166Y-101129142D01*
X87936166Y-101129142D02*
X87917062Y-101062089D01*
X87917062Y-101062089D02*
X87897500Y-100987074D01*
X87897500Y-100987074D02*
X87883140Y-100921161D01*
X87883140Y-100921161D02*
X87873195Y-100855572D01*
X87873195Y-100855572D02*
X87866883Y-100781532D01*
X87866883Y-100781532D02*
X87863417Y-100690262D01*
X87863417Y-100690262D02*
X87862014Y-100572987D01*
X87862014Y-100572987D02*
X87861858Y-100444667D01*
X87861858Y-100444667D02*
X87862400Y-100298502D01*
X87862400Y-100298502D02*
X87864232Y-100185825D01*
X87864232Y-100185825D02*
X87868183Y-100097796D01*
X87868183Y-100097796D02*
X87875080Y-100025571D01*
X87875080Y-100025571D02*
X87885753Y-99960309D01*
X87885753Y-99960309D02*
X87901031Y-99893168D01*
X87901031Y-99893168D02*
X87920383Y-99820250D01*
X87920383Y-99820250D02*
X88023339Y-99521691D01*
X88023339Y-99521691D02*
X88162331Y-99239838D01*
X88162331Y-99239838D02*
X88334258Y-98978306D01*
X88334258Y-98978306D02*
X88536019Y-98740708D01*
X88536019Y-98740708D02*
X88764512Y-98530656D01*
X88764512Y-98530656D02*
X89016636Y-98351763D01*
X89016636Y-98351763D02*
X89289289Y-98207644D01*
X89289289Y-98207644D02*
X89313879Y-98196868D01*
X89313879Y-98196868D02*
X89612509Y-98090682D01*
X89612509Y-98090682D02*
X89922367Y-98023427D01*
X89922367Y-98023427D02*
X90238116Y-97995381D01*
X90238116Y-97995381D02*
X90554422Y-98006820D01*
X90554422Y-98006820D02*
X90554422Y-98006820D01*
G36*
X90554422Y-98006820D02*
G01*
X90865949Y-98058021D01*
X91045167Y-98106936D01*
X91337517Y-98220762D01*
X91609270Y-98369569D01*
X91858070Y-98550134D01*
X92081564Y-98759239D01*
X92277396Y-98993661D01*
X92443211Y-99250182D01*
X92576656Y-99525578D01*
X92675376Y-99816631D01*
X92737015Y-100120119D01*
X92759220Y-100432822D01*
X92759248Y-100451490D01*
X92737822Y-100767033D01*
X92676415Y-101075370D01*
X92577016Y-101372500D01*
X92441619Y-101654426D01*
X92272215Y-101917149D01*
X92070796Y-102156670D01*
X91839355Y-102368991D01*
X91781706Y-102413843D01*
X91616869Y-102524550D01*
X91425869Y-102630730D01*
X91224191Y-102724847D01*
X91027322Y-102799371D01*
X90928750Y-102828739D01*
X90840243Y-102850652D01*
X90759591Y-102866450D01*
X90676041Y-102877306D01*
X90578839Y-102884391D01*
X90457233Y-102888876D01*
X90357250Y-102891001D01*
X90229099Y-102892029D01*
X90107529Y-102890760D01*
X90002376Y-102887461D01*
X89923478Y-102882398D01*
X89891584Y-102878405D01*
X89731921Y-102842541D01*
X89556690Y-102791195D01*
X89385209Y-102730598D01*
X89237992Y-102667560D01*
X89055383Y-102571533D01*
X88893301Y-102467332D01*
X88737567Y-102344960D01*
X88592799Y-102212648D01*
X88375358Y-101975163D01*
X88194079Y-101716506D01*
X88048001Y-101435043D01*
X87936166Y-101129142D01*
X87917062Y-101062089D01*
X87897500Y-100987074D01*
X87883140Y-100921161D01*
X87873195Y-100855572D01*
X87866883Y-100781532D01*
X87863417Y-100690262D01*
X87862014Y-100572987D01*
X87861858Y-100444667D01*
X87862400Y-100298502D01*
X87864232Y-100185825D01*
X87868183Y-100097796D01*
X87875080Y-100025571D01*
X87885753Y-99960309D01*
X87901031Y-99893168D01*
X87920383Y-99820250D01*
X88023339Y-99521691D01*
X88162331Y-99239838D01*
X88334258Y-98978306D01*
X88536019Y-98740708D01*
X88764512Y-98530656D01*
X89016636Y-98351763D01*
X89289289Y-98207644D01*
X89313879Y-98196868D01*
X89612509Y-98090682D01*
X89922367Y-98023427D01*
X90238116Y-97995381D01*
X90554422Y-98006820D01*
G37*
X90554422Y-98006820D02*
X90865949Y-98058021D01*
X91045167Y-98106936D01*
X91337517Y-98220762D01*
X91609270Y-98369569D01*
X91858070Y-98550134D01*
X92081564Y-98759239D01*
X92277396Y-98993661D01*
X92443211Y-99250182D01*
X92576656Y-99525578D01*
X92675376Y-99816631D01*
X92737015Y-100120119D01*
X92759220Y-100432822D01*
X92759248Y-100451490D01*
X92737822Y-100767033D01*
X92676415Y-101075370D01*
X92577016Y-101372500D01*
X92441619Y-101654426D01*
X92272215Y-101917149D01*
X92070796Y-102156670D01*
X91839355Y-102368991D01*
X91781706Y-102413843D01*
X91616869Y-102524550D01*
X91425869Y-102630730D01*
X91224191Y-102724847D01*
X91027322Y-102799371D01*
X90928750Y-102828739D01*
X90840243Y-102850652D01*
X90759591Y-102866450D01*
X90676041Y-102877306D01*
X90578839Y-102884391D01*
X90457233Y-102888876D01*
X90357250Y-102891001D01*
X90229099Y-102892029D01*
X90107529Y-102890760D01*
X90002376Y-102887461D01*
X89923478Y-102882398D01*
X89891584Y-102878405D01*
X89731921Y-102842541D01*
X89556690Y-102791195D01*
X89385209Y-102730598D01*
X89237992Y-102667560D01*
X89055383Y-102571533D01*
X88893301Y-102467332D01*
X88737567Y-102344960D01*
X88592799Y-102212648D01*
X88375358Y-101975163D01*
X88194079Y-101716506D01*
X88048001Y-101435043D01*
X87936166Y-101129142D01*
X87917062Y-101062089D01*
X87897500Y-100987074D01*
X87883140Y-100921161D01*
X87873195Y-100855572D01*
X87866883Y-100781532D01*
X87863417Y-100690262D01*
X87862014Y-100572987D01*
X87861858Y-100444667D01*
X87862400Y-100298502D01*
X87864232Y-100185825D01*
X87868183Y-100097796D01*
X87875080Y-100025571D01*
X87885753Y-99960309D01*
X87901031Y-99893168D01*
X87920383Y-99820250D01*
X88023339Y-99521691D01*
X88162331Y-99239838D01*
X88334258Y-98978306D01*
X88536019Y-98740708D01*
X88764512Y-98530656D01*
X89016636Y-98351763D01*
X89289289Y-98207644D01*
X89313879Y-98196868D01*
X89612509Y-98090682D01*
X89922367Y-98023427D01*
X90238116Y-97995381D01*
X90554422Y-98006820D01*
X98504422Y-105956820D02*
X98815949Y-106008021D01*
X98815949Y-106008021D02*
X98995167Y-106056936D01*
X98995167Y-106056936D02*
X99287517Y-106170762D01*
X99287517Y-106170762D02*
X99559270Y-106319569D01*
X99559270Y-106319569D02*
X99808070Y-106500134D01*
X99808070Y-106500134D02*
X100031564Y-106709239D01*
X100031564Y-106709239D02*
X100227396Y-106943661D01*
X100227396Y-106943661D02*
X100393211Y-107200182D01*
X100393211Y-107200182D02*
X100526656Y-107475578D01*
X100526656Y-107475578D02*
X100625376Y-107766631D01*
X100625376Y-107766631D02*
X100687015Y-108070119D01*
X100687015Y-108070119D02*
X100709220Y-108382822D01*
X100709220Y-108382822D02*
X100709248Y-108401490D01*
X100709248Y-108401490D02*
X100687822Y-108717033D01*
X100687822Y-108717033D02*
X100626415Y-109025370D01*
X100626415Y-109025370D02*
X100527016Y-109322500D01*
X100527016Y-109322500D02*
X100391619Y-109604426D01*
X100391619Y-109604426D02*
X100222215Y-109867149D01*
X100222215Y-109867149D02*
X100020796Y-110106670D01*
X100020796Y-110106670D02*
X99789355Y-110318991D01*
X99789355Y-110318991D02*
X99731706Y-110363843D01*
X99731706Y-110363843D02*
X99566869Y-110474550D01*
X99566869Y-110474550D02*
X99375869Y-110580730D01*
X99375869Y-110580730D02*
X99174191Y-110674847D01*
X99174191Y-110674847D02*
X98977322Y-110749371D01*
X98977322Y-110749371D02*
X98878750Y-110778739D01*
X98878750Y-110778739D02*
X98790243Y-110800652D01*
X98790243Y-110800652D02*
X98709591Y-110816450D01*
X98709591Y-110816450D02*
X98626041Y-110827306D01*
X98626041Y-110827306D02*
X98528839Y-110834391D01*
X98528839Y-110834391D02*
X98407233Y-110838876D01*
X98407233Y-110838876D02*
X98307250Y-110841001D01*
X98307250Y-110841001D02*
X98179099Y-110842029D01*
X98179099Y-110842029D02*
X98057529Y-110840760D01*
X98057529Y-110840760D02*
X97952376Y-110837461D01*
X97952376Y-110837461D02*
X97873478Y-110832398D01*
X97873478Y-110832398D02*
X97841584Y-110828405D01*
X97841584Y-110828405D02*
X97681921Y-110792541D01*
X97681921Y-110792541D02*
X97506690Y-110741195D01*
X97506690Y-110741195D02*
X97335209Y-110680598D01*
X97335209Y-110680598D02*
X97187992Y-110617560D01*
X97187992Y-110617560D02*
X97005383Y-110521533D01*
X97005383Y-110521533D02*
X96843301Y-110417332D01*
X96843301Y-110417332D02*
X96687567Y-110294960D01*
X96687567Y-110294960D02*
X96542799Y-110162648D01*
X96542799Y-110162648D02*
X96325358Y-109925163D01*
X96325358Y-109925163D02*
X96144079Y-109666506D01*
X96144079Y-109666506D02*
X95998001Y-109385043D01*
X95998001Y-109385043D02*
X95886166Y-109079142D01*
X95886166Y-109079142D02*
X95867062Y-109012089D01*
X95867062Y-109012089D02*
X95847500Y-108937074D01*
X95847500Y-108937074D02*
X95833140Y-108871161D01*
X95833140Y-108871161D02*
X95823195Y-108805572D01*
X95823195Y-108805572D02*
X95816883Y-108731532D01*
X95816883Y-108731532D02*
X95813417Y-108640262D01*
X95813417Y-108640262D02*
X95812014Y-108522987D01*
X95812014Y-108522987D02*
X95811858Y-108394667D01*
X95811858Y-108394667D02*
X95812400Y-108248502D01*
X95812400Y-108248502D02*
X95814232Y-108135825D01*
X95814232Y-108135825D02*
X95818183Y-108047796D01*
X95818183Y-108047796D02*
X95825080Y-107975571D01*
X95825080Y-107975571D02*
X95835753Y-107910309D01*
X95835753Y-107910309D02*
X95851031Y-107843168D01*
X95851031Y-107843168D02*
X95870383Y-107770250D01*
X95870383Y-107770250D02*
X95973339Y-107471691D01*
X95973339Y-107471691D02*
X96112331Y-107189838D01*
X96112331Y-107189838D02*
X96284258Y-106928306D01*
X96284258Y-106928306D02*
X96486019Y-106690708D01*
X96486019Y-106690708D02*
X96714512Y-106480656D01*
X96714512Y-106480656D02*
X96966636Y-106301763D01*
X96966636Y-106301763D02*
X97239289Y-106157644D01*
X97239289Y-106157644D02*
X97263879Y-106146868D01*
X97263879Y-106146868D02*
X97562509Y-106040682D01*
X97562509Y-106040682D02*
X97872367Y-105973427D01*
X97872367Y-105973427D02*
X98188116Y-105945381D01*
X98188116Y-105945381D02*
X98504422Y-105956820D01*
X98504422Y-105956820D02*
X98504422Y-105956820D01*
G36*
X98504422Y-105956820D02*
G01*
X98815949Y-106008021D01*
X98995167Y-106056936D01*
X99287517Y-106170762D01*
X99559270Y-106319569D01*
X99808070Y-106500134D01*
X100031564Y-106709239D01*
X100227396Y-106943661D01*
X100393211Y-107200182D01*
X100526656Y-107475578D01*
X100625376Y-107766631D01*
X100687015Y-108070119D01*
X100709220Y-108382822D01*
X100709248Y-108401490D01*
X100687822Y-108717033D01*
X100626415Y-109025370D01*
X100527016Y-109322500D01*
X100391619Y-109604426D01*
X100222215Y-109867149D01*
X100020796Y-110106670D01*
X99789355Y-110318991D01*
X99731706Y-110363843D01*
X99566869Y-110474550D01*
X99375869Y-110580730D01*
X99174191Y-110674847D01*
X98977322Y-110749371D01*
X98878750Y-110778739D01*
X98790243Y-110800652D01*
X98709591Y-110816450D01*
X98626041Y-110827306D01*
X98528839Y-110834391D01*
X98407233Y-110838876D01*
X98307250Y-110841001D01*
X98179099Y-110842029D01*
X98057529Y-110840760D01*
X97952376Y-110837461D01*
X97873478Y-110832398D01*
X97841584Y-110828405D01*
X97681921Y-110792541D01*
X97506690Y-110741195D01*
X97335209Y-110680598D01*
X97187992Y-110617560D01*
X97005383Y-110521533D01*
X96843301Y-110417332D01*
X96687567Y-110294960D01*
X96542799Y-110162648D01*
X96325358Y-109925163D01*
X96144079Y-109666506D01*
X95998001Y-109385043D01*
X95886166Y-109079142D01*
X95867062Y-109012089D01*
X95847500Y-108937074D01*
X95833140Y-108871161D01*
X95823195Y-108805572D01*
X95816883Y-108731532D01*
X95813417Y-108640262D01*
X95812014Y-108522987D01*
X95811858Y-108394667D01*
X95812400Y-108248502D01*
X95814232Y-108135825D01*
X95818183Y-108047796D01*
X95825080Y-107975571D01*
X95835753Y-107910309D01*
X95851031Y-107843168D01*
X95870383Y-107770250D01*
X95973339Y-107471691D01*
X96112331Y-107189838D01*
X96284258Y-106928306D01*
X96486019Y-106690708D01*
X96714512Y-106480656D01*
X96966636Y-106301763D01*
X97239289Y-106157644D01*
X97263879Y-106146868D01*
X97562509Y-106040682D01*
X97872367Y-105973427D01*
X98188116Y-105945381D01*
X98504422Y-105956820D01*
G37*
X98504422Y-105956820D02*
X98815949Y-106008021D01*
X98995167Y-106056936D01*
X99287517Y-106170762D01*
X99559270Y-106319569D01*
X99808070Y-106500134D01*
X100031564Y-106709239D01*
X100227396Y-106943661D01*
X100393211Y-107200182D01*
X100526656Y-107475578D01*
X100625376Y-107766631D01*
X100687015Y-108070119D01*
X100709220Y-108382822D01*
X100709248Y-108401490D01*
X100687822Y-108717033D01*
X100626415Y-109025370D01*
X100527016Y-109322500D01*
X100391619Y-109604426D01*
X100222215Y-109867149D01*
X100020796Y-110106670D01*
X99789355Y-110318991D01*
X99731706Y-110363843D01*
X99566869Y-110474550D01*
X99375869Y-110580730D01*
X99174191Y-110674847D01*
X98977322Y-110749371D01*
X98878750Y-110778739D01*
X98790243Y-110800652D01*
X98709591Y-110816450D01*
X98626041Y-110827306D01*
X98528839Y-110834391D01*
X98407233Y-110838876D01*
X98307250Y-110841001D01*
X98179099Y-110842029D01*
X98057529Y-110840760D01*
X97952376Y-110837461D01*
X97873478Y-110832398D01*
X97841584Y-110828405D01*
X97681921Y-110792541D01*
X97506690Y-110741195D01*
X97335209Y-110680598D01*
X97187992Y-110617560D01*
X97005383Y-110521533D01*
X96843301Y-110417332D01*
X96687567Y-110294960D01*
X96542799Y-110162648D01*
X96325358Y-109925163D01*
X96144079Y-109666506D01*
X95998001Y-109385043D01*
X95886166Y-109079142D01*
X95867062Y-109012089D01*
X95847500Y-108937074D01*
X95833140Y-108871161D01*
X95823195Y-108805572D01*
X95816883Y-108731532D01*
X95813417Y-108640262D01*
X95812014Y-108522987D01*
X95811858Y-108394667D01*
X95812400Y-108248502D01*
X95814232Y-108135825D01*
X95818183Y-108047796D01*
X95825080Y-107975571D01*
X95835753Y-107910309D01*
X95851031Y-107843168D01*
X95870383Y-107770250D01*
X95973339Y-107471691D01*
X96112331Y-107189838D01*
X96284258Y-106928306D01*
X96486019Y-106690708D01*
X96714512Y-106480656D01*
X96966636Y-106301763D01*
X97239289Y-106157644D01*
X97263879Y-106146868D01*
X97562509Y-106040682D01*
X97872367Y-105973427D01*
X98188116Y-105945381D01*
X98504422Y-105956820D01*
X90554422Y-113906820D02*
X90865949Y-113958021D01*
X90865949Y-113958021D02*
X91045167Y-114006936D01*
X91045167Y-114006936D02*
X91337517Y-114120762D01*
X91337517Y-114120762D02*
X91609270Y-114269569D01*
X91609270Y-114269569D02*
X91858070Y-114450134D01*
X91858070Y-114450134D02*
X92081564Y-114659239D01*
X92081564Y-114659239D02*
X92277396Y-114893661D01*
X92277396Y-114893661D02*
X92443211Y-115150182D01*
X92443211Y-115150182D02*
X92576656Y-115425578D01*
X92576656Y-115425578D02*
X92675376Y-115716631D01*
X92675376Y-115716631D02*
X92737015Y-116020119D01*
X92737015Y-116020119D02*
X92759220Y-116332822D01*
X92759220Y-116332822D02*
X92759248Y-116351490D01*
X92759248Y-116351490D02*
X92737822Y-116667033D01*
X92737822Y-116667033D02*
X92676415Y-116975370D01*
X92676415Y-116975370D02*
X92577016Y-117272500D01*
X92577016Y-117272500D02*
X92441619Y-117554426D01*
X92441619Y-117554426D02*
X92272215Y-117817149D01*
X92272215Y-117817149D02*
X92070796Y-118056670D01*
X92070796Y-118056670D02*
X91839355Y-118268991D01*
X91839355Y-118268991D02*
X91781706Y-118313843D01*
X91781706Y-118313843D02*
X91616869Y-118424550D01*
X91616869Y-118424550D02*
X91425869Y-118530730D01*
X91425869Y-118530730D02*
X91224191Y-118624847D01*
X91224191Y-118624847D02*
X91027322Y-118699371D01*
X91027322Y-118699371D02*
X90928750Y-118728739D01*
X90928750Y-118728739D02*
X90840243Y-118750652D01*
X90840243Y-118750652D02*
X90759591Y-118766450D01*
X90759591Y-118766450D02*
X90676041Y-118777306D01*
X90676041Y-118777306D02*
X90578839Y-118784391D01*
X90578839Y-118784391D02*
X90457233Y-118788876D01*
X90457233Y-118788876D02*
X90357250Y-118791001D01*
X90357250Y-118791001D02*
X90229099Y-118792029D01*
X90229099Y-118792029D02*
X90107529Y-118790760D01*
X90107529Y-118790760D02*
X90002376Y-118787461D01*
X90002376Y-118787461D02*
X89923478Y-118782398D01*
X89923478Y-118782398D02*
X89891584Y-118778405D01*
X89891584Y-118778405D02*
X89731921Y-118742541D01*
X89731921Y-118742541D02*
X89556690Y-118691195D01*
X89556690Y-118691195D02*
X89385209Y-118630598D01*
X89385209Y-118630598D02*
X89237992Y-118567560D01*
X89237992Y-118567560D02*
X89055383Y-118471533D01*
X89055383Y-118471533D02*
X88893301Y-118367332D01*
X88893301Y-118367332D02*
X88737567Y-118244960D01*
X88737567Y-118244960D02*
X88592799Y-118112648D01*
X88592799Y-118112648D02*
X88375358Y-117875163D01*
X88375358Y-117875163D02*
X88194079Y-117616506D01*
X88194079Y-117616506D02*
X88048001Y-117335043D01*
X88048001Y-117335043D02*
X87936166Y-117029142D01*
X87936166Y-117029142D02*
X87917062Y-116962089D01*
X87917062Y-116962089D02*
X87897500Y-116887074D01*
X87897500Y-116887074D02*
X87883140Y-116821161D01*
X87883140Y-116821161D02*
X87873195Y-116755572D01*
X87873195Y-116755572D02*
X87866883Y-116681532D01*
X87866883Y-116681532D02*
X87863417Y-116590262D01*
X87863417Y-116590262D02*
X87862014Y-116472987D01*
X87862014Y-116472987D02*
X87861858Y-116344667D01*
X87861858Y-116344667D02*
X87862400Y-116198502D01*
X87862400Y-116198502D02*
X87864232Y-116085825D01*
X87864232Y-116085825D02*
X87868183Y-115997796D01*
X87868183Y-115997796D02*
X87875080Y-115925571D01*
X87875080Y-115925571D02*
X87885753Y-115860309D01*
X87885753Y-115860309D02*
X87901031Y-115793168D01*
X87901031Y-115793168D02*
X87920383Y-115720250D01*
X87920383Y-115720250D02*
X88023339Y-115421691D01*
X88023339Y-115421691D02*
X88162331Y-115139838D01*
X88162331Y-115139838D02*
X88334258Y-114878306D01*
X88334258Y-114878306D02*
X88536019Y-114640708D01*
X88536019Y-114640708D02*
X88764512Y-114430656D01*
X88764512Y-114430656D02*
X89016636Y-114251763D01*
X89016636Y-114251763D02*
X89289289Y-114107644D01*
X89289289Y-114107644D02*
X89313879Y-114096868D01*
X89313879Y-114096868D02*
X89612509Y-113990682D01*
X89612509Y-113990682D02*
X89922367Y-113923427D01*
X89922367Y-113923427D02*
X90238116Y-113895381D01*
X90238116Y-113895381D02*
X90554422Y-113906820D01*
X90554422Y-113906820D02*
X90554422Y-113906820D01*
G36*
X90554422Y-113906820D02*
G01*
X90865949Y-113958021D01*
X91045167Y-114006936D01*
X91337517Y-114120762D01*
X91609270Y-114269569D01*
X91858070Y-114450134D01*
X92081564Y-114659239D01*
X92277396Y-114893661D01*
X92443211Y-115150182D01*
X92576656Y-115425578D01*
X92675376Y-115716631D01*
X92737015Y-116020119D01*
X92759220Y-116332822D01*
X92759248Y-116351490D01*
X92737822Y-116667033D01*
X92676415Y-116975370D01*
X92577016Y-117272500D01*
X92441619Y-117554426D01*
X92272215Y-117817149D01*
X92070796Y-118056670D01*
X91839355Y-118268991D01*
X91781706Y-118313843D01*
X91616869Y-118424550D01*
X91425869Y-118530730D01*
X91224191Y-118624847D01*
X91027322Y-118699371D01*
X90928750Y-118728739D01*
X90840243Y-118750652D01*
X90759591Y-118766450D01*
X90676041Y-118777306D01*
X90578839Y-118784391D01*
X90457233Y-118788876D01*
X90357250Y-118791001D01*
X90229099Y-118792029D01*
X90107529Y-118790760D01*
X90002376Y-118787461D01*
X89923478Y-118782398D01*
X89891584Y-118778405D01*
X89731921Y-118742541D01*
X89556690Y-118691195D01*
X89385209Y-118630598D01*
X89237992Y-118567560D01*
X89055383Y-118471533D01*
X88893301Y-118367332D01*
X88737567Y-118244960D01*
X88592799Y-118112648D01*
X88375358Y-117875163D01*
X88194079Y-117616506D01*
X88048001Y-117335043D01*
X87936166Y-117029142D01*
X87917062Y-116962089D01*
X87897500Y-116887074D01*
X87883140Y-116821161D01*
X87873195Y-116755572D01*
X87866883Y-116681532D01*
X87863417Y-116590262D01*
X87862014Y-116472987D01*
X87861858Y-116344667D01*
X87862400Y-116198502D01*
X87864232Y-116085825D01*
X87868183Y-115997796D01*
X87875080Y-115925571D01*
X87885753Y-115860309D01*
X87901031Y-115793168D01*
X87920383Y-115720250D01*
X88023339Y-115421691D01*
X88162331Y-115139838D01*
X88334258Y-114878306D01*
X88536019Y-114640708D01*
X88764512Y-114430656D01*
X89016636Y-114251763D01*
X89289289Y-114107644D01*
X89313879Y-114096868D01*
X89612509Y-113990682D01*
X89922367Y-113923427D01*
X90238116Y-113895381D01*
X90554422Y-113906820D01*
G37*
X90554422Y-113906820D02*
X90865949Y-113958021D01*
X91045167Y-114006936D01*
X91337517Y-114120762D01*
X91609270Y-114269569D01*
X91858070Y-114450134D01*
X92081564Y-114659239D01*
X92277396Y-114893661D01*
X92443211Y-115150182D01*
X92576656Y-115425578D01*
X92675376Y-115716631D01*
X92737015Y-116020119D01*
X92759220Y-116332822D01*
X92759248Y-116351490D01*
X92737822Y-116667033D01*
X92676415Y-116975370D01*
X92577016Y-117272500D01*
X92441619Y-117554426D01*
X92272215Y-117817149D01*
X92070796Y-118056670D01*
X91839355Y-118268991D01*
X91781706Y-118313843D01*
X91616869Y-118424550D01*
X91425869Y-118530730D01*
X91224191Y-118624847D01*
X91027322Y-118699371D01*
X90928750Y-118728739D01*
X90840243Y-118750652D01*
X90759591Y-118766450D01*
X90676041Y-118777306D01*
X90578839Y-118784391D01*
X90457233Y-118788876D01*
X90357250Y-118791001D01*
X90229099Y-118792029D01*
X90107529Y-118790760D01*
X90002376Y-118787461D01*
X89923478Y-118782398D01*
X89891584Y-118778405D01*
X89731921Y-118742541D01*
X89556690Y-118691195D01*
X89385209Y-118630598D01*
X89237992Y-118567560D01*
X89055383Y-118471533D01*
X88893301Y-118367332D01*
X88737567Y-118244960D01*
X88592799Y-118112648D01*
X88375358Y-117875163D01*
X88194079Y-117616506D01*
X88048001Y-117335043D01*
X87936166Y-117029142D01*
X87917062Y-116962089D01*
X87897500Y-116887074D01*
X87883140Y-116821161D01*
X87873195Y-116755572D01*
X87866883Y-116681532D01*
X87863417Y-116590262D01*
X87862014Y-116472987D01*
X87861858Y-116344667D01*
X87862400Y-116198502D01*
X87864232Y-116085825D01*
X87868183Y-115997796D01*
X87875080Y-115925571D01*
X87885753Y-115860309D01*
X87901031Y-115793168D01*
X87920383Y-115720250D01*
X88023339Y-115421691D01*
X88162331Y-115139838D01*
X88334258Y-114878306D01*
X88536019Y-114640708D01*
X88764512Y-114430656D01*
X89016636Y-114251763D01*
X89289289Y-114107644D01*
X89313879Y-114096868D01*
X89612509Y-113990682D01*
X89922367Y-113923427D01*
X90238116Y-113895381D01*
X90554422Y-113906820D01*
X115356000Y-81481167D02*
X112607861Y-81481167D01*
X112607861Y-81481167D02*
X112270182Y-81481060D01*
X112270182Y-81481060D02*
X111944207Y-81480749D01*
X111944207Y-81480749D02*
X111632441Y-81480245D01*
X111632441Y-81480245D02*
X111337387Y-81479562D01*
X111337387Y-81479562D02*
X111061550Y-81478713D01*
X111061550Y-81478713D02*
X110807435Y-81477710D01*
X110807435Y-81477710D02*
X110577544Y-81476566D01*
X110577544Y-81476566D02*
X110374382Y-81475295D01*
X110374382Y-81475295D02*
X110200453Y-81473907D01*
X110200453Y-81473907D02*
X110058261Y-81472418D01*
X110058261Y-81472418D02*
X109950310Y-81470838D01*
X109950310Y-81470838D02*
X109879105Y-81469182D01*
X109879105Y-81469182D02*
X109847149Y-81467462D01*
X109847149Y-81467462D02*
X109845611Y-81467056D01*
X109845611Y-81467056D02*
X109843949Y-81444602D01*
X109843949Y-81444602D02*
X109842342Y-81382214D01*
X109842342Y-81382214D02*
X109840802Y-81282290D01*
X109840802Y-81282290D02*
X109839341Y-81147229D01*
X109839341Y-81147229D02*
X109837969Y-80979430D01*
X109837969Y-80979430D02*
X109836697Y-80781290D01*
X109836697Y-80781290D02*
X109835538Y-80555210D01*
X109835538Y-80555210D02*
X109834502Y-80303587D01*
X109834502Y-80303587D02*
X109833600Y-80028820D01*
X109833600Y-80028820D02*
X109832844Y-79733308D01*
X109832844Y-79733308D02*
X109832246Y-79419450D01*
X109832246Y-79419450D02*
X109831815Y-79089644D01*
X109831815Y-79089644D02*
X109831564Y-78746290D01*
X109831564Y-78746290D02*
X109831500Y-78461389D01*
X109831500Y-78461389D02*
X109831500Y-75469834D01*
X109831500Y-75469834D02*
X115356000Y-75469834D01*
X115356000Y-75469834D02*
X115356000Y-81481167D01*
X115356000Y-81481167D02*
X115356000Y-81481167D01*
G36*
X115356000Y-81481167D02*
G01*
X112607861Y-81481167D01*
X112270182Y-81481060D01*
X111944207Y-81480749D01*
X111632441Y-81480245D01*
X111337387Y-81479562D01*
X111061550Y-81478713D01*
X110807435Y-81477710D01*
X110577544Y-81476566D01*
X110374382Y-81475295D01*
X110200453Y-81473907D01*
X110058261Y-81472418D01*
X109950310Y-81470838D01*
X109879105Y-81469182D01*
X109847149Y-81467462D01*
X109845611Y-81467056D01*
X109843949Y-81444602D01*
X109842342Y-81382214D01*
X109840802Y-81282290D01*
X109839341Y-81147229D01*
X109837969Y-80979430D01*
X109836697Y-80781290D01*
X109835538Y-80555210D01*
X109834502Y-80303587D01*
X109833600Y-80028820D01*
X109832844Y-79733308D01*
X109832246Y-79419450D01*
X109831815Y-79089644D01*
X109831564Y-78746290D01*
X109831500Y-78461389D01*
X109831500Y-75469834D01*
X115356000Y-75469834D01*
X115356000Y-81481167D01*
G37*
X115356000Y-81481167D02*
X112607861Y-81481167D01*
X112270182Y-81481060D01*
X111944207Y-81480749D01*
X111632441Y-81480245D01*
X111337387Y-81479562D01*
X111061550Y-81478713D01*
X110807435Y-81477710D01*
X110577544Y-81476566D01*
X110374382Y-81475295D01*
X110200453Y-81473907D01*
X110058261Y-81472418D01*
X109950310Y-81470838D01*
X109879105Y-81469182D01*
X109847149Y-81467462D01*
X109845611Y-81467056D01*
X109843949Y-81444602D01*
X109842342Y-81382214D01*
X109840802Y-81282290D01*
X109839341Y-81147229D01*
X109837969Y-80979430D01*
X109836697Y-80781290D01*
X109835538Y-80555210D01*
X109834502Y-80303587D01*
X109833600Y-80028820D01*
X109832844Y-79733308D01*
X109832246Y-79419450D01*
X109831815Y-79089644D01*
X109831564Y-78746290D01*
X109831500Y-78461389D01*
X109831500Y-75469834D01*
X115356000Y-75469834D01*
X115356000Y-81481167D01*
G36*
X154708106Y-60876810D02*
G01*
X155888481Y-63193427D01*
X153571864Y-64373803D01*
X152391489Y-62057186D01*
X154708106Y-60876810D01*
G37*
G36*
X144550631Y-66052302D02*
G01*
X145731007Y-68368919D01*
X143414390Y-69549294D01*
X142234014Y-67232677D01*
X144550631Y-66052302D01*
G37*
D16*
X151630000Y-64250000D02*
G75*
G03*
X151630000Y-64250000I-1780000J0D01*
G01*
G36*
X168519313Y-80535267D02*
G01*
X171062496Y-79994697D01*
X171603067Y-82537880D01*
X169059883Y-83078451D01*
X168519313Y-80535267D01*
G37*
G36*
X166149119Y-69384384D02*
G01*
X168692303Y-68843814D01*
X169232874Y-71386998D01*
X166689690Y-71927568D01*
X166149119Y-69384384D01*
G37*
X169930000Y-74950000D02*
G75*
G03*
X169930000Y-74950000I-1780000J0D01*
G01*
D18*
X93787500Y-56450000D03*
X93787500Y-54550000D03*
X91912500Y-55500000D03*
D19*
X170200000Y-98512500D03*
X170200000Y-96787500D03*
D20*
X54862500Y-84400000D03*
X53137500Y-84400000D03*
X146112500Y-77900000D03*
X144387500Y-77900000D03*
D21*
X131787500Y-71400000D03*
X133512500Y-71400000D03*
D22*
X153850000Y-74150000D03*
X153850000Y-82650000D03*
X135894552Y-82880220D03*
X141471054Y-89295251D03*
D23*
X160802886Y-61650000D03*
X164700000Y-63900000D03*
D24*
X82350000Y-105400000D03*
D25*
X82350000Y-111400000D03*
D24*
X90300000Y-97450000D03*
D25*
X90300000Y-103450000D03*
D24*
X98250000Y-105400000D03*
D25*
X98250000Y-111400000D03*
D24*
X90300000Y-113350000D03*
D25*
X90300000Y-119350000D03*
D26*
X64368635Y-83687221D03*
X78441531Y-73109243D03*
D27*
X71131628Y-83616071D03*
D28*
X71261159Y-81144463D03*
D29*
X65770011Y-72615390D03*
D27*
X71678538Y-73180393D03*
D29*
X77040155Y-84181074D03*
D28*
X71549007Y-75652001D03*
D30*
X73228104Y-67879226D03*
X71959844Y-67812759D03*
X70691585Y-67746292D03*
D31*
X60886077Y-76575211D03*
X60819610Y-77843471D03*
X60753143Y-79111730D03*
D27*
X68427018Y-87454784D03*
X70923592Y-87585624D03*
X73420166Y-87716464D03*
X80461635Y-81376297D03*
X80592475Y-78879723D03*
X80723315Y-76383149D03*
D32*
X97050000Y-74300000D03*
X95150000Y-74300000D03*
X93500000Y-71000000D03*
X91600000Y-71000000D03*
X93550000Y-68250000D03*
X91650000Y-68250000D03*
X127850000Y-63900000D03*
X129750000Y-63900000D03*
X127550000Y-74000000D03*
X129450000Y-74000000D03*
D33*
X113200000Y-75350000D03*
D34*
X112000000Y-81550000D03*
D22*
X153592227Y-62343240D03*
X146018672Y-66202159D03*
D35*
X119500000Y-52500000D03*
D27*
X129120000Y-56150000D03*
X126580000Y-56150000D03*
X124040000Y-56150000D03*
X121500000Y-56150000D03*
X118960000Y-56150000D03*
X116420000Y-56150000D03*
X113880000Y-56150000D03*
X111340000Y-56150000D03*
X108800000Y-56150000D03*
X106260000Y-56150000D03*
X103720000Y-56150000D03*
X101180000Y-56150000D03*
X98640000Y-56150000D03*
X96100000Y-56150000D03*
X96100000Y-61230000D03*
X96100000Y-63770000D03*
X96100000Y-71390000D03*
X98640000Y-71390000D03*
X101180000Y-71390000D03*
X103720000Y-71390000D03*
X106260000Y-71390000D03*
X108800000Y-71390000D03*
X111340000Y-71390000D03*
X113880000Y-71390000D03*
X116420000Y-71390000D03*
X118960000Y-71390000D03*
X121500000Y-71390000D03*
X124040000Y-71390000D03*
X126580000Y-71390000D03*
X129120000Y-71390000D03*
D36*
X75600000Y-98400000D03*
D28*
X57600000Y-87900000D03*
D37*
X106000000Y-78400000D03*
X119200000Y-78400000D03*
D38*
X159600000Y-68400000D03*
D28*
X167600000Y-87900000D03*
D39*
X60616622Y-67616621D03*
D22*
X167276771Y-70841780D03*
X169044020Y-79156035D03*
D40*
X172400000Y-103400000D03*
D39*
X82183378Y-89183378D03*
D41*
X105800000Y-58500000D03*
X104000000Y-58500000D03*
D32*
X121550000Y-75000000D03*
X123450000Y-75000000D03*
D42*
X93237500Y-77500000D03*
X91412500Y-77500000D03*
X87237500Y-69500000D03*
X85412500Y-69500000D03*
D32*
X113450000Y-53600000D03*
X115350000Y-53600000D03*
D42*
X137325000Y-67000000D03*
X135500000Y-67000000D03*
D43*
X111400000Y-53600000D03*
X108600000Y-53600000D03*
D44*
X129587500Y-77500000D03*
X131412500Y-77500000D03*
X124462500Y-79000000D03*
X126287500Y-79000000D03*
D42*
X134000000Y-66500000D03*
X132175000Y-66500000D03*
D20*
X81725000Y-65000000D03*
X80000000Y-65000000D03*
D44*
X82175000Y-68000000D03*
X84000000Y-68000000D03*
D35*
X83375000Y-95900000D03*
D45*
X80835000Y-95900000D03*
D44*
X83675000Y-65500000D03*
X85500000Y-65500000D03*
D43*
X83800000Y-92800000D03*
X81000000Y-92800000D03*
D46*
X93800000Y-59912500D03*
X93800000Y-58087500D03*
D42*
X137325000Y-65500000D03*
X135500000Y-65500000D03*
D44*
X86087500Y-68000000D03*
X87912500Y-68000000D03*
D35*
X54050000Y-89800000D03*
D45*
X54050000Y-87260000D03*
D35*
X165400000Y-92400000D03*
D45*
X167940000Y-92400000D03*
D47*
X133250000Y-74900000D03*
X141950000Y-74900000D03*
D48*
X140000000Y-63400000D03*
X137600000Y-63400000D03*
X135200000Y-63400000D03*
D47*
X91950000Y-74900000D03*
X83250000Y-74900000D03*
D48*
X90000000Y-63400000D03*
X87600000Y-63400000D03*
X85200000Y-63400000D03*
D49*
X169100000Y-105900000D03*
D50*
X167100000Y-105900000D03*
X165100000Y-105900000D03*
X163100000Y-105900000D03*
D51*
X105600000Y-52900000D03*
D52*
X103600000Y-52900000D03*
X101600000Y-52900000D03*
X99600000Y-52900000D03*
X97600000Y-52900000D03*
X95600000Y-52900000D03*
M02*
