M48
; DRILL file {KiCad (6.0.1)} date Thu Mar 24 20:42:59 2022
; FORMAT={-:-/ absolute / metric / decimal}
; #@! TF.CreationDate,2022-03-24T20:42:59-07:00
; #@! TF.GenerationSoftware,Kicad,Pcbnew,(6.0.1)
; #@! TF.FileFunction,Plated,1,2,PTH
FMAT,2
METRIC
; #@! TA.AperFunction,Plated,PTH,ViaDrill
T1C0.400
; #@! TA.AperFunction,Plated,PTH,ComponentDrill
T2C0.600
; #@! TA.AperFunction,Plated,PTH,ComponentDrill
T3C0.800
; #@! TA.AperFunction,Plated,PTH,ComponentDrill
T4C0.990
; #@! TA.AperFunction,Plated,PTH,ComponentDrill
T5C1.000
; #@! TA.AperFunction,Plated,PTH,ComponentDrill
T6C1.100
; #@! TA.AperFunction,Plated,PTH,ComponentDrill
T7C1.800
%
G90
G05
T1
X53.5Y-83.0
X78.862Y-65.0
X82.4Y-111.4
X85.0Y-67.0
X87.0Y-66.75
X90.3Y-103.5
X90.3Y-119.4
X90.4Y-55.5
X90.45Y-71.0
X91.65Y-68.25
X93.8Y-53.4
X94.0Y-74.3
X98.3Y-111.4
X112.0Y-81.6
X116.9Y-53.6
X123.5Y-76.0
X130.7Y-74.0
X131.0Y-64.0
X134.0Y-68.0
X134.5Y-65.5
X135.0Y-70.0
X141.4Y-89.3
X143.0Y-77.9
X146.1Y-66.2
X153.85Y-82.65
X169.0Y-79.1
X170.2Y-95.4
T2
X60.753Y-79.112
X60.82Y-77.843
X60.886Y-76.575
X70.692Y-67.746
X71.96Y-67.813
X73.228Y-67.879
T3
X85.2Y-63.4
X87.6Y-63.4
X90.0Y-63.4
X135.2Y-63.4
X137.6Y-63.4
X140.0Y-63.4
X163.1Y-105.9
X165.1Y-105.9
X167.1Y-105.9
X169.1Y-105.9
T4
X160.803Y-61.65
X164.7Y-63.9
T5
X54.05Y-87.26
X54.05Y-89.8
X68.427Y-87.455
X70.924Y-87.586
X73.42Y-87.716
X80.462Y-81.376
X80.592Y-78.88
X80.723Y-76.383
X80.835Y-95.9
X83.375Y-95.9
X95.6Y-52.9
X97.6Y-52.9
X99.6Y-52.9
X101.6Y-52.9
X103.6Y-52.9
X105.6Y-52.9
X119.5Y-52.5
X165.4Y-92.4
X167.94Y-92.4
T6
X96.1Y-56.15
X96.1Y-61.23
X96.1Y-63.77
X96.1Y-71.39
X98.64Y-56.15
X98.64Y-71.39
X101.18Y-56.15
X101.18Y-71.39
X103.72Y-56.15
X103.72Y-71.39
X106.26Y-56.15
X106.26Y-71.39
X108.8Y-56.15
X108.8Y-71.39
X111.34Y-56.15
X111.34Y-71.39
X113.88Y-56.15
X113.88Y-71.39
X116.42Y-56.15
X116.42Y-71.39
X118.96Y-56.15
X118.96Y-71.39
X121.5Y-56.15
X121.5Y-71.39
X124.04Y-56.15
X124.04Y-71.39
X126.58Y-56.15
X126.58Y-71.39
X129.12Y-56.15
X129.12Y-71.39
T3
X64.39Y-83.288G85X64.348Y-84.087
G05
X78.462Y-72.71G85X78.421Y-73.509
G05
X83.25Y-75.25G85X83.25Y-74.55
G05
X91.95Y-75.25G85X91.95Y-74.55
G05
X133.25Y-75.25G85X133.25Y-74.55
G05
X141.95Y-75.25G85X141.95Y-74.55
G05
T7
X65.201Y-72.424G85X66.339Y-72.807
G05
X76.471Y-83.99G85X77.609Y-84.372
G05
T0
M30
