%TF.GenerationSoftware,KiCad,Pcbnew,(6.0.1)*%
%TF.CreationDate,2022-03-24T20:43:30-07:00*%
%TF.ProjectId,PhobGCC,50686f62-4743-4432-9e6b-696361645f70,rev?*%
%TF.SameCoordinates,Original*%
%TF.FileFunction,Soldermask,Top*%
%TF.FilePolarity,Negative*%
%FSLAX46Y46*%
G04 Gerber Fmt 4.6, Leading zero omitted, Abs format (unit mm)*
G04 Created by KiCad (PCBNEW (6.0.1)) date 2022-03-24 20:43:30*
%MOMM*%
%LPD*%
G01*
G04 APERTURE LIST*
G04 Aperture macros list*
%AMRoundRect*
0 Rectangle with rounded corners*
0 $1 Rounding radius*
0 $2 $3 $4 $5 $6 $7 $8 $9 X,Y pos of 4 corners*
0 Add a 4 corners polygon primitive as box body*
4,1,4,$2,$3,$4,$5,$6,$7,$8,$9,$2,$3,0*
0 Add four circle primitives for the rounded corners*
1,1,$1+$1,$2,$3*
1,1,$1+$1,$4,$5*
1,1,$1+$1,$6,$7*
1,1,$1+$1,$8,$9*
0 Add four rect primitives between the rounded corners*
20,1,$1+$1,$2,$3,$4,$5,0*
20,1,$1+$1,$4,$5,$6,$7,0*
20,1,$1+$1,$6,$7,$8,$9,0*
20,1,$1+$1,$8,$9,$2,$3,0*%
%AMHorizOval*
0 Thick line with rounded ends*
0 $1 width*
0 $2 $3 position (X,Y) of the first rounded end (center of the circle)*
0 $4 $5 position (X,Y) of the second rounded end (center of the circle)*
0 Add line between two ends*
20,1,$1,$2,$3,$4,$5,0*
0 Add two circle primitives to create the rounded ends*
1,1,$1,$2,$3*
1,1,$1,$4,$5*%
%AMFreePoly0*
4,1,175,0.155291,0.579555,0.300000,0.519615,0.424264,0.424264,0.519615,0.300000,0.579555,0.155291,0.600000,0.000000,0.579555,-0.155291,0.519615,-0.300000,0.493377,-0.334194,0.502024,-0.569707,0.680699,-0.618838,0.680812,-0.618926,0.680955,-0.618916,0.820128,-0.665337,0.820275,-0.665464,0.820471,-0.665465,0.978527,-0.731380,0.978630,-0.731484,0.978774,-0.731492,1.141505,-0.809990,
1.141599,-0.810095,1.141740,-0.810111,1.294939,-0.894281,1.295052,-0.894421,1.295228,-0.894453,1.424686,-0.977385,1.424769,-0.977504,1.424910,-0.977537,1.438978,-0.987664,1.439075,-0.987820,1.439249,-0.987874,1.692796,-1.198206,1.692954,-1.198505,1.693259,-1.198644,1.913133,-1.434386,1.913254,-1.434710,1.913547,-1.434893,2.100356,-1.696852,2.100433,-1.697183,2.100695,-1.697399,
2.255053,-1.986383,2.255078,-1.986637,2.255258,-1.986816,2.328043,-2.161522,2.328043,-2.161686,2.328153,-2.161810,2.355053,-2.239565,2.355047,-2.239658,2.355108,-2.239731,2.384228,-2.334520,2.384222,-2.334583,2.384262,-2.334634,2.412657,-2.435453,2.412650,-2.435512,2.412686,-2.435560,2.437410,-2.531403,2.437399,-2.531482,2.437444,-2.531546,2.455550,-2.611405,2.455522,-2.611569,
2.455610,-2.611712,2.464152,-2.664581,2.464083,-2.664873,2.464211,-2.665145,2.464514,-2.671642,2.464224,-2.672447,2.464313,-2.673298,2.463600,-2.674177,2.463216,-2.675242,2.462440,-2.675607,2.461902,-2.676270,2.454210,-2.680442,2.453335,-2.680534,2.452583,-2.680989,2.428175,-2.684727,2.427981,-2.684680,2.427803,-2.684770,2.384760,-2.688095,2.384682,-2.688069,2.384606,-2.688105,
2.321008,-2.691038,2.320967,-2.691023,2.320927,-2.691041,2.234856,-2.693602,2.234831,-2.693593,2.234807,-2.693603,2.124341,-2.695813,2.124326,-2.695807,2.124310,-2.695814,1.987531,-2.697694,1.987520,-2.697689,1.987509,-2.697694,1.822497,-2.699263,1.822489,-2.699260,1.822482,-2.699263,1.627317,-2.700543,1.627311,-2.700541,1.627306,-2.700543,1.400067,-2.701554,1.400063,-2.701553,
1.400060,-2.701554,1.138828,-2.702318,1.138825,-2.702317,1.138822,-2.702318,0.841677,-2.702853,0.841675,-2.702852,0.841673,-2.702853,0.506697,-2.703182,0.506695,-2.703181,0.506694,-2.703182,0.131965,-2.703324,0.131963,-2.703324,-0.006653,-2.703334,-2.472973,-2.703334,-2.473476,-2.703126,-2.474012,-2.703225,-2.475189,-2.702416,-2.476509,-2.701870,-2.476717,-2.701367,-2.477167,-2.701058,
-2.477428,-2.699652,-2.477973,-2.698334,-2.477765,-2.697831,-2.477864,-2.697295,-2.467742,-2.649669,-2.467690,-2.649594,-2.467704,-2.649504,-2.393038,-2.348902,-2.392906,-2.348724,-2.392921,-2.348503,-2.302471,-2.081505,-2.302293,-2.081301,-2.302283,-2.081033,-2.192527,-1.840726,-2.192308,-1.840522,-2.192264,-1.840227,-2.059679,-1.619696,-2.059442,-1.619520,-2.059365,-1.619233,-1.900428,-1.411562,
-1.900225,-1.411444,-1.900144,-1.411222,-1.757629,-1.255770,-1.757406,-1.255666,-1.757301,-1.255445,-1.587492,-1.101500,-1.587243,-1.101411,-1.587108,-1.101186,-1.392497,-0.957162,-1.392274,-0.957106,-1.392138,-0.956919,-1.182180,-0.828103,-1.181956,-0.828067,-1.181808,-0.827896,-0.965959,-0.719577,-0.965709,-0.719559,-0.965528,-0.719386,-0.753244,-0.636853,-0.752939,-0.636860,-0.752697,-0.636676,
-0.561814,-0.586761,-0.561628,-0.586787,-0.561471,-0.586684,-0.493291,-0.573893,-0.486952,-0.342568,-0.519615,-0.300000,-0.579555,-0.155291,-0.600000,0.000000,-0.579555,0.155291,-0.519615,0.300000,-0.424264,0.424264,-0.300000,0.519615,-0.155291,0.579555,0.000000,0.600000,0.155291,0.579555,0.155291,0.579555,$1*%
%AMFreePoly1*
4,1,174,-0.019208,2.667285,-0.019207,2.667285,0.299634,2.666361,0.299636,2.666360,0.299638,2.666361,0.606649,2.665242,0.606651,2.665241,0.606653,2.665242,0.899182,2.663949,0.899184,2.663948,0.899186,2.663949,1.174582,2.662504,1.174584,2.662503,1.174587,2.662504,1.430197,2.660927,1.430199,2.660926,1.430202,2.660927,1.663376,2.659242,1.663379,2.659241,1.663383,2.659242,
1.871468,2.657470,1.871472,2.657468,1.871476,2.657470,2.051821,2.655631,2.051827,2.655629,2.051833,2.655631,2.201786,2.653749,2.201796,2.653745,2.201804,2.653748,2.318714,2.651843,2.318731,2.651836,2.318749,2.651843,2.399962,2.649938,2.400013,2.649915,2.400065,2.649934,2.442931,2.648049,2.443182,2.647932,2.443453,2.647999,2.449682,2.647066,2.450911,2.646327,
2.452271,2.645853,2.452504,2.645369,2.452962,2.645094,2.453308,2.643703,2.453934,2.642406,2.455454,2.615763,2.455261,2.615210,2.455391,2.614639,2.445459,2.556273,2.445372,2.556135,2.445399,2.555974,2.426284,2.474209,2.426232,2.474137,2.426244,2.474049,2.400212,2.377211,2.400170,2.377156,2.400177,2.377089,2.369499,2.273503,2.369457,2.273451,2.369462,2.273382,
2.336403,2.171372,2.336347,2.171306,2.336351,2.171219,2.303181,2.079110,2.303131,2.079055,2.303132,2.078978,2.295085,2.058467,2.294946,2.058323,2.294935,2.058125,2.162282,1.782502,2.162028,1.782275,2.161965,1.781939,1.992975,1.522794,1.992707,1.522610,1.992608,1.522300,1.791554,1.284146,1.791270,1.283999,1.791137,1.283708,1.562289,1.071060,1.561985,1.070947,
1.561816,1.070672,1.309446,0.888044,1.309130,0.887969,1.308927,0.887715,1.055251,0.748010,1.054994,0.747981,1.054814,0.747797,0.944796,0.700478,0.944675,0.700476,0.944587,0.700394,0.807393,0.648557,0.807306,0.648560,0.807240,0.648502,0.656931,0.597217,0.656850,0.597222,0.656787,0.597170,0.524683,0.556518,0.515492,0.535464,0.505951,0.473111,0.497340,0.373735,
0.495056,0.332006,0.519615,0.300000,0.579555,0.155291,0.600000,0.000000,0.579555,-0.155291,0.519615,-0.300000,0.424264,-0.424264,0.300000,-0.519615,0.155291,-0.579555,0.000000,-0.600000,-0.155291,-0.579555,-0.300000,-0.519615,-0.424264,-0.424264,-0.519615,-0.300000,-0.579555,-0.155291,-0.600000,0.000000,-0.579555,0.155291,-0.519615,0.300000,-0.490233,0.338292,-0.497945,0.551511,
-0.642508,0.589108,-0.642653,0.589218,-0.642835,0.589205,-0.935946,0.687177,-0.936216,0.687411,-0.936574,0.687435,-1.214879,0.824820,-1.215109,0.825082,-1.215452,0.825151,-1.478167,1.001419,-1.478351,1.001695,-1.478665,1.001801,-1.725011,1.216422,-1.725149,1.216699,-1.725429,1.216831,-1.954623,1.469276,-1.954676,1.469424,-1.954814,1.469499,-1.970792,1.489319,-1.970816,1.489402,
-1.970891,1.489446,-2.080076,1.634214,-2.080124,1.634401,-2.080284,1.634511,-2.171751,1.776072,-2.171793,1.776303,-2.171972,1.776451,-2.249338,1.922991,-2.249360,1.923226,-2.249528,1.923393,-2.316403,2.083097,-2.316404,2.083301,-2.316537,2.083455,-2.376536,2.264509,-2.376525,2.264660,-2.376618,2.264781,-2.433355,2.475371,-2.433344,2.475454,-2.433392,2.475520,-2.464817,2.608216,
-2.464813,2.608238,-2.464827,2.608257,-2.478305,2.667376,-2.478206,2.667956,-2.478430,2.668500,-2.477897,2.669778,-2.477664,2.671149,-2.477183,2.671490,-2.476957,2.672032,-2.475673,2.672560,-2.474541,2.673362,-2.473961,2.673263,-2.473417,2.673487,-0.019208,2.667285,-0.019208,2.667285,$1*%
%AMFreePoly2*
4,1,52,0.073905,0.494508,0.209726,0.453889,0.328688,0.376782,0.421226,0.269385,0.479903,0.140333,0.500000,0.000000,0.499851,-0.012216,0.493270,-0.051334,2.240667,-0.051334,2.244203,-0.052798,2.245667,-0.056334,2.245667,-5.115167,2.244203,-5.118703,2.240667,-5.120167,1.669167,-5.120167,1.665631,-5.118703,1.664167,-5.115167,1.664167,-0.632834,0.213667,-0.632834,0.213667,-5.115167,
0.212203,-5.118703,0.208667,-5.120167,-0.384000,-5.120167,-0.387536,-5.118703,-0.389000,-5.115167,-0.389000,-0.632834,-1.860666,-0.632834,-1.860666,-5.115167,-1.862130,-5.118703,-1.865666,-5.120167,-2.437166,-5.120167,-2.440702,-5.118703,-2.442166,-5.115167,-2.442166,-0.056334,-2.440702,-0.052798,-2.437166,-0.051334,-0.540331,-0.051334,-0.516310,0.048800,-0.516081,0.049116,-0.516084,0.049507,
-0.478875,0.141542,-0.478152,0.146186,-0.469840,0.163891,-0.466788,0.171439,-0.466264,0.171972,-0.466055,0.172692,-0.465216,0.173739,-0.417904,0.274511,-0.324060,0.380769,-0.204165,0.456417,-0.067858,0.495374,0.073905,0.494508,0.073905,0.494508,$1*%
%AMFreePoly3*
4,1,74,2.426383,5.069651,2.428131,5.068968,2.428153,5.068918,2.428203,5.068897,2.428915,5.067177,2.429666,5.065462,2.429646,5.065411,2.429667,5.065361,2.429667,0.026500,2.428203,0.022964,2.424667,0.021500,1.697721,0.021500,1.514570,0.021092,1.334660,0.019937,1.164980,0.018134,1.164978,0.018135,1.012625,0.015785,1.012624,0.015784,0.884489,0.012987,0.884488,0.012987,
0.787775,0.009847,0.749088,0.007927,0.530743,-0.005432,0.508394,-0.088993,0.508170,-0.089285,0.508167,-0.089653,0.458855,-0.205995,0.458401,-0.206442,0.458241,-0.207057,0.434305,-0.238758,0.414519,-0.279596,0.319384,-0.384700,0.198574,-0.458877,0.061801,-0.496166,-0.079941,-0.493568,-0.215256,-0.451293,-0.333266,-0.372738,-0.424486,-0.264219,-0.481581,-0.134460,-0.499963,0.006109,
-0.498457,0.015784,-0.497567,0.021500,-2.253166,0.021500,-2.256702,0.022964,-2.258166,0.026500,-2.258166,5.064166,-2.256702,5.067702,-2.253166,5.069166,-1.681666,5.069166,-1.678130,5.067702,-1.676666,5.064166,-1.676666,0.581833,-0.205000,0.581833,-0.205000,5.064166,-0.203536,5.067702,-0.200000,5.069166,0.371500,5.069166,0.375036,5.067702,0.376500,5.064166,0.376500,0.581833,
1.826819,0.581833,1.832195,2.815220,1.837584,5.053595,1.838292,5.055293,1.838977,5.057047,1.839034,5.057072,1.839057,5.057127,1.840742,5.057820,1.842483,5.058582,2.133524,5.064471,2.424566,5.070360,2.424617,5.070340,2.424667,5.070361,2.426383,5.069651,2.426383,5.069651,$1*%
G04 Aperture macros list end*
%ADD10C,3.560000*%
%ADD11C,3.560001*%
%ADD12C,0.010000*%
%ADD13RoundRect,0.150000X0.587500X0.150000X-0.587500X0.150000X-0.587500X-0.150000X0.587500X-0.150000X0*%
%ADD14RoundRect,0.237500X0.237500X-0.300000X0.237500X0.300000X-0.237500X0.300000X-0.237500X-0.300000X0*%
%ADD15RoundRect,0.237500X0.300000X0.237500X-0.300000X0.237500X-0.300000X-0.237500X0.300000X-0.237500X0*%
%ADD16RoundRect,0.237500X-0.300000X-0.237500X0.300000X-0.237500X0.300000X0.237500X-0.300000X0.237500X0*%
%ADD17C,1.524000*%
%ADD18C,1.498000*%
%ADD19FreePoly0,0.000000*%
%ADD20FreePoly1,0.000000*%
%ADD21HorizOval,1.600000X-0.026168X-0.499315X0.026168X0.499315X0*%
%ADD22C,1.600000*%
%ADD23C,2.000000*%
%ADD24HorizOval,2.800000X-0.568661X0.191376X0.568661X-0.191376X0*%
%ADD25HorizOval,0.800000X-0.031402X-0.599178X0.031402X0.599178X0*%
%ADD26HorizOval,0.800000X-0.599178X0.031402X0.599178X-0.031402X0*%
%ADD27R,1.200000X0.750000*%
%ADD28FreePoly2,0.000000*%
%ADD29FreePoly3,0.000000*%
%ADD30R,1.700000X1.700000*%
%ADD31C,5.200000*%
%ADD32C,1.800000*%
%ADD33C,2.400000*%
%ADD34C,2.200000*%
%ADD35O,2.800000X2.200000*%
%ADD36R,1.000000X0.700000*%
%ADD37RoundRect,0.237500X0.250000X0.237500X-0.250000X0.237500X-0.250000X-0.237500X0.250000X-0.237500X0*%
%ADD38R,1.100000X1.100000*%
%ADD39RoundRect,0.237500X-0.250000X-0.237500X0.250000X-0.237500X0.250000X0.237500X-0.250000X0.237500X0*%
%ADD40O,1.700000X1.700000*%
%ADD41RoundRect,0.237500X0.237500X-0.250000X0.237500X0.250000X-0.237500X0.250000X-0.237500X-0.250000X0*%
%ADD42O,1.600000X2.500000*%
%ADD43C,1.400000*%
%ADD44R,1.350000X1.350000*%
%ADD45O,1.350000X1.350000*%
%ADD46R,1.400000X1.400000*%
%ADD47O,1.400000X1.400000*%
G04 APERTURE END LIST*
G36*
X153050000Y-72490000D02*
G01*
X155650000Y-72490000D01*
X155650000Y-75090000D01*
X153050000Y-75090000D01*
X153050000Y-72490000D01*
G37*
G36*
X153050000Y-83890000D02*
G01*
X155650000Y-83890000D01*
X155650000Y-86490000D01*
X153050000Y-86490000D01*
X153050000Y-83890000D01*
G37*
D10*
X155630000Y-78350000D02*
G75*
G03*
X155630000Y-78350000I-1780000J0D01*
G01*
G36*
X134201726Y-82152249D02*
G01*
X136163971Y-80446496D01*
X137869725Y-82408741D01*
X135907480Y-84114494D01*
X134201726Y-82152249D01*
G37*
G36*
X141680799Y-90755938D02*
G01*
X143643044Y-89050185D01*
X145348798Y-91012430D01*
X143386553Y-92718183D01*
X141680799Y-90755938D01*
G37*
D11*
X140430000Y-86050000D02*
G75*
G03*
X140430000Y-86050000I-1780000J0D01*
G01*
D12*
X82604422Y-105956820D02*
X82915949Y-106008021D01*
X82915949Y-106008021D02*
X83095167Y-106056936D01*
X83095167Y-106056936D02*
X83387517Y-106170762D01*
X83387517Y-106170762D02*
X83659270Y-106319569D01*
X83659270Y-106319569D02*
X83908070Y-106500134D01*
X83908070Y-106500134D02*
X84131564Y-106709239D01*
X84131564Y-106709239D02*
X84327396Y-106943661D01*
X84327396Y-106943661D02*
X84493211Y-107200182D01*
X84493211Y-107200182D02*
X84626656Y-107475578D01*
X84626656Y-107475578D02*
X84725376Y-107766631D01*
X84725376Y-107766631D02*
X84787015Y-108070119D01*
X84787015Y-108070119D02*
X84809220Y-108382822D01*
X84809220Y-108382822D02*
X84809248Y-108401490D01*
X84809248Y-108401490D02*
X84787822Y-108717033D01*
X84787822Y-108717033D02*
X84726415Y-109025370D01*
X84726415Y-109025370D02*
X84627016Y-109322500D01*
X84627016Y-109322500D02*
X84491619Y-109604426D01*
X84491619Y-109604426D02*
X84322215Y-109867149D01*
X84322215Y-109867149D02*
X84120796Y-110106670D01*
X84120796Y-110106670D02*
X83889355Y-110318991D01*
X83889355Y-110318991D02*
X83831706Y-110363843D01*
X83831706Y-110363843D02*
X83666869Y-110474550D01*
X83666869Y-110474550D02*
X83475869Y-110580730D01*
X83475869Y-110580730D02*
X83274191Y-110674847D01*
X83274191Y-110674847D02*
X83077322Y-110749371D01*
X83077322Y-110749371D02*
X82978750Y-110778739D01*
X82978750Y-110778739D02*
X82890243Y-110800652D01*
X82890243Y-110800652D02*
X82809591Y-110816450D01*
X82809591Y-110816450D02*
X82726041Y-110827306D01*
X82726041Y-110827306D02*
X82628839Y-110834391D01*
X82628839Y-110834391D02*
X82507233Y-110838876D01*
X82507233Y-110838876D02*
X82407250Y-110841001D01*
X82407250Y-110841001D02*
X82279099Y-110842029D01*
X82279099Y-110842029D02*
X82157529Y-110840760D01*
X82157529Y-110840760D02*
X82052376Y-110837461D01*
X82052376Y-110837461D02*
X81973478Y-110832398D01*
X81973478Y-110832398D02*
X81941584Y-110828405D01*
X81941584Y-110828405D02*
X81781921Y-110792541D01*
X81781921Y-110792541D02*
X81606690Y-110741195D01*
X81606690Y-110741195D02*
X81435209Y-110680598D01*
X81435209Y-110680598D02*
X81287992Y-110617560D01*
X81287992Y-110617560D02*
X81105383Y-110521533D01*
X81105383Y-110521533D02*
X80943301Y-110417332D01*
X80943301Y-110417332D02*
X80787567Y-110294960D01*
X80787567Y-110294960D02*
X80642799Y-110162648D01*
X80642799Y-110162648D02*
X80425358Y-109925163D01*
X80425358Y-109925163D02*
X80244079Y-109666506D01*
X80244079Y-109666506D02*
X80098001Y-109385043D01*
X80098001Y-109385043D02*
X79986166Y-109079142D01*
X79986166Y-109079142D02*
X79967062Y-109012089D01*
X79967062Y-109012089D02*
X79947500Y-108937074D01*
X79947500Y-108937074D02*
X79933140Y-108871161D01*
X79933140Y-108871161D02*
X79923195Y-108805572D01*
X79923195Y-108805572D02*
X79916883Y-108731532D01*
X79916883Y-108731532D02*
X79913417Y-108640262D01*
X79913417Y-108640262D02*
X79912014Y-108522987D01*
X79912014Y-108522987D02*
X79911858Y-108394667D01*
X79911858Y-108394667D02*
X79912400Y-108248502D01*
X79912400Y-108248502D02*
X79914232Y-108135825D01*
X79914232Y-108135825D02*
X79918183Y-108047796D01*
X79918183Y-108047796D02*
X79925080Y-107975571D01*
X79925080Y-107975571D02*
X79935753Y-107910309D01*
X79935753Y-107910309D02*
X79951031Y-107843168D01*
X79951031Y-107843168D02*
X79970383Y-107770250D01*
X79970383Y-107770250D02*
X80073339Y-107471691D01*
X80073339Y-107471691D02*
X80212331Y-107189838D01*
X80212331Y-107189838D02*
X80384258Y-106928306D01*
X80384258Y-106928306D02*
X80586019Y-106690708D01*
X80586019Y-106690708D02*
X80814512Y-106480656D01*
X80814512Y-106480656D02*
X81066636Y-106301763D01*
X81066636Y-106301763D02*
X81339289Y-106157644D01*
X81339289Y-106157644D02*
X81363879Y-106146868D01*
X81363879Y-106146868D02*
X81662509Y-106040682D01*
X81662509Y-106040682D02*
X81972367Y-105973427D01*
X81972367Y-105973427D02*
X82288116Y-105945381D01*
X82288116Y-105945381D02*
X82604422Y-105956820D01*
X82604422Y-105956820D02*
X82604422Y-105956820D01*
G36*
X82604422Y-105956820D02*
G01*
X82915949Y-106008021D01*
X83095167Y-106056936D01*
X83387517Y-106170762D01*
X83659270Y-106319569D01*
X83908070Y-106500134D01*
X84131564Y-106709239D01*
X84327396Y-106943661D01*
X84493211Y-107200182D01*
X84626656Y-107475578D01*
X84725376Y-107766631D01*
X84787015Y-108070119D01*
X84809220Y-108382822D01*
X84809248Y-108401490D01*
X84787822Y-108717033D01*
X84726415Y-109025370D01*
X84627016Y-109322500D01*
X84491619Y-109604426D01*
X84322215Y-109867149D01*
X84120796Y-110106670D01*
X83889355Y-110318991D01*
X83831706Y-110363843D01*
X83666869Y-110474550D01*
X83475869Y-110580730D01*
X83274191Y-110674847D01*
X83077322Y-110749371D01*
X82978750Y-110778739D01*
X82890243Y-110800652D01*
X82809591Y-110816450D01*
X82726041Y-110827306D01*
X82628839Y-110834391D01*
X82507233Y-110838876D01*
X82407250Y-110841001D01*
X82279099Y-110842029D01*
X82157529Y-110840760D01*
X82052376Y-110837461D01*
X81973478Y-110832398D01*
X81941584Y-110828405D01*
X81781921Y-110792541D01*
X81606690Y-110741195D01*
X81435209Y-110680598D01*
X81287992Y-110617560D01*
X81105383Y-110521533D01*
X80943301Y-110417332D01*
X80787567Y-110294960D01*
X80642799Y-110162648D01*
X80425358Y-109925163D01*
X80244079Y-109666506D01*
X80098001Y-109385043D01*
X79986166Y-109079142D01*
X79967062Y-109012089D01*
X79947500Y-108937074D01*
X79933140Y-108871161D01*
X79923195Y-108805572D01*
X79916883Y-108731532D01*
X79913417Y-108640262D01*
X79912014Y-108522987D01*
X79911858Y-108394667D01*
X79912400Y-108248502D01*
X79914232Y-108135825D01*
X79918183Y-108047796D01*
X79925080Y-107975571D01*
X79935753Y-107910309D01*
X79951031Y-107843168D01*
X79970383Y-107770250D01*
X80073339Y-107471691D01*
X80212331Y-107189838D01*
X80384258Y-106928306D01*
X80586019Y-106690708D01*
X80814512Y-106480656D01*
X81066636Y-106301763D01*
X81339289Y-106157644D01*
X81363879Y-106146868D01*
X81662509Y-106040682D01*
X81972367Y-105973427D01*
X82288116Y-105945381D01*
X82604422Y-105956820D01*
G37*
X82604422Y-105956820D02*
X82915949Y-106008021D01*
X83095167Y-106056936D01*
X83387517Y-106170762D01*
X83659270Y-106319569D01*
X83908070Y-106500134D01*
X84131564Y-106709239D01*
X84327396Y-106943661D01*
X84493211Y-107200182D01*
X84626656Y-107475578D01*
X84725376Y-107766631D01*
X84787015Y-108070119D01*
X84809220Y-108382822D01*
X84809248Y-108401490D01*
X84787822Y-108717033D01*
X84726415Y-109025370D01*
X84627016Y-109322500D01*
X84491619Y-109604426D01*
X84322215Y-109867149D01*
X84120796Y-110106670D01*
X83889355Y-110318991D01*
X83831706Y-110363843D01*
X83666869Y-110474550D01*
X83475869Y-110580730D01*
X83274191Y-110674847D01*
X83077322Y-110749371D01*
X82978750Y-110778739D01*
X82890243Y-110800652D01*
X82809591Y-110816450D01*
X82726041Y-110827306D01*
X82628839Y-110834391D01*
X82507233Y-110838876D01*
X82407250Y-110841001D01*
X82279099Y-110842029D01*
X82157529Y-110840760D01*
X82052376Y-110837461D01*
X81973478Y-110832398D01*
X81941584Y-110828405D01*
X81781921Y-110792541D01*
X81606690Y-110741195D01*
X81435209Y-110680598D01*
X81287992Y-110617560D01*
X81105383Y-110521533D01*
X80943301Y-110417332D01*
X80787567Y-110294960D01*
X80642799Y-110162648D01*
X80425358Y-109925163D01*
X80244079Y-109666506D01*
X80098001Y-109385043D01*
X79986166Y-109079142D01*
X79967062Y-109012089D01*
X79947500Y-108937074D01*
X79933140Y-108871161D01*
X79923195Y-108805572D01*
X79916883Y-108731532D01*
X79913417Y-108640262D01*
X79912014Y-108522987D01*
X79911858Y-108394667D01*
X79912400Y-108248502D01*
X79914232Y-108135825D01*
X79918183Y-108047796D01*
X79925080Y-107975571D01*
X79935753Y-107910309D01*
X79951031Y-107843168D01*
X79970383Y-107770250D01*
X80073339Y-107471691D01*
X80212331Y-107189838D01*
X80384258Y-106928306D01*
X80586019Y-106690708D01*
X80814512Y-106480656D01*
X81066636Y-106301763D01*
X81339289Y-106157644D01*
X81363879Y-106146868D01*
X81662509Y-106040682D01*
X81972367Y-105973427D01*
X82288116Y-105945381D01*
X82604422Y-105956820D01*
X90554422Y-98006820D02*
X90865949Y-98058021D01*
X90865949Y-98058021D02*
X91045167Y-98106936D01*
X91045167Y-98106936D02*
X91337517Y-98220762D01*
X91337517Y-98220762D02*
X91609270Y-98369569D01*
X91609270Y-98369569D02*
X91858070Y-98550134D01*
X91858070Y-98550134D02*
X92081564Y-98759239D01*
X92081564Y-98759239D02*
X92277396Y-98993661D01*
X92277396Y-98993661D02*
X92443211Y-99250182D01*
X92443211Y-99250182D02*
X92576656Y-99525578D01*
X92576656Y-99525578D02*
X92675376Y-99816631D01*
X92675376Y-99816631D02*
X92737015Y-100120119D01*
X92737015Y-100120119D02*
X92759220Y-100432822D01*
X92759220Y-100432822D02*
X92759248Y-100451490D01*
X92759248Y-100451490D02*
X92737822Y-100767033D01*
X92737822Y-100767033D02*
X92676415Y-101075370D01*
X92676415Y-101075370D02*
X92577016Y-101372500D01*
X92577016Y-101372500D02*
X92441619Y-101654426D01*
X92441619Y-101654426D02*
X92272215Y-101917149D01*
X92272215Y-101917149D02*
X92070796Y-102156670D01*
X92070796Y-102156670D02*
X91839355Y-102368991D01*
X91839355Y-102368991D02*
X91781706Y-102413843D01*
X91781706Y-102413843D02*
X91616869Y-102524550D01*
X91616869Y-102524550D02*
X91425869Y-102630730D01*
X91425869Y-102630730D02*
X91224191Y-102724847D01*
X91224191Y-102724847D02*
X91027322Y-102799371D01*
X91027322Y-102799371D02*
X90928750Y-102828739D01*
X90928750Y-102828739D02*
X90840243Y-102850652D01*
X90840243Y-102850652D02*
X90759591Y-102866450D01*
X90759591Y-102866450D02*
X90676041Y-102877306D01*
X90676041Y-102877306D02*
X90578839Y-102884391D01*
X90578839Y-102884391D02*
X90457233Y-102888876D01*
X90457233Y-102888876D02*
X90357250Y-102891001D01*
X90357250Y-102891001D02*
X90229099Y-102892029D01*
X90229099Y-102892029D02*
X90107529Y-102890760D01*
X90107529Y-102890760D02*
X90002376Y-102887461D01*
X90002376Y-102887461D02*
X89923478Y-102882398D01*
X89923478Y-102882398D02*
X89891584Y-102878405D01*
X89891584Y-102878405D02*
X89731921Y-102842541D01*
X89731921Y-102842541D02*
X89556690Y-102791195D01*
X89556690Y-102791195D02*
X89385209Y-102730598D01*
X89385209Y-102730598D02*
X89237992Y-102667560D01*
X89237992Y-102667560D02*
X89055383Y-102571533D01*
X89055383Y-102571533D02*
X88893301Y-102467332D01*
X88893301Y-102467332D02*
X88737567Y-102344960D01*
X88737567Y-102344960D02*
X88592799Y-102212648D01*
X88592799Y-102212648D02*
X88375358Y-101975163D01*
X88375358Y-101975163D02*
X88194079Y-101716506D01*
X88194079Y-101716506D02*
X88048001Y-101435043D01*
X88048001Y-101435043D02*
X87936166Y-101129142D01*
X87936166Y-101129142D02*
X87917062Y-101062089D01*
X87917062Y-101062089D02*
X87897500Y-100987074D01*
X87897500Y-100987074D02*
X87883140Y-100921161D01*
X87883140Y-100921161D02*
X87873195Y-100855572D01*
X87873195Y-100855572D02*
X87866883Y-100781532D01*
X87866883Y-100781532D02*
X87863417Y-100690262D01*
X87863417Y-100690262D02*
X87862014Y-100572987D01*
X87862014Y-100572987D02*
X87861858Y-100444667D01*
X87861858Y-100444667D02*
X87862400Y-100298502D01*
X87862400Y-100298502D02*
X87864232Y-100185825D01*
X87864232Y-100185825D02*
X87868183Y-100097796D01*
X87868183Y-100097796D02*
X87875080Y-100025571D01*
X87875080Y-100025571D02*
X87885753Y-99960309D01*
X87885753Y-99960309D02*
X87901031Y-99893168D01*
X87901031Y-99893168D02*
X87920383Y-99820250D01*
X87920383Y-99820250D02*
X88023339Y-99521691D01*
X88023339Y-99521691D02*
X88162331Y-99239838D01*
X88162331Y-99239838D02*
X88334258Y-98978306D01*
X88334258Y-98978306D02*
X88536019Y-98740708D01*
X88536019Y-98740708D02*
X88764512Y-98530656D01*
X88764512Y-98530656D02*
X89016636Y-98351763D01*
X89016636Y-98351763D02*
X89289289Y-98207644D01*
X89289289Y-98207644D02*
X89313879Y-98196868D01*
X89313879Y-98196868D02*
X89612509Y-98090682D01*
X89612509Y-98090682D02*
X89922367Y-98023427D01*
X89922367Y-98023427D02*
X90238116Y-97995381D01*
X90238116Y-97995381D02*
X90554422Y-98006820D01*
X90554422Y-98006820D02*
X90554422Y-98006820D01*
G36*
X90554422Y-98006820D02*
G01*
X90865949Y-98058021D01*
X91045167Y-98106936D01*
X91337517Y-98220762D01*
X91609270Y-98369569D01*
X91858070Y-98550134D01*
X92081564Y-98759239D01*
X92277396Y-98993661D01*
X92443211Y-99250182D01*
X92576656Y-99525578D01*
X92675376Y-99816631D01*
X92737015Y-100120119D01*
X92759220Y-100432822D01*
X92759248Y-100451490D01*
X92737822Y-100767033D01*
X92676415Y-101075370D01*
X92577016Y-101372500D01*
X92441619Y-101654426D01*
X92272215Y-101917149D01*
X92070796Y-102156670D01*
X91839355Y-102368991D01*
X91781706Y-102413843D01*
X91616869Y-102524550D01*
X91425869Y-102630730D01*
X91224191Y-102724847D01*
X91027322Y-102799371D01*
X90928750Y-102828739D01*
X90840243Y-102850652D01*
X90759591Y-102866450D01*
X90676041Y-102877306D01*
X90578839Y-102884391D01*
X90457233Y-102888876D01*
X90357250Y-102891001D01*
X90229099Y-102892029D01*
X90107529Y-102890760D01*
X90002376Y-102887461D01*
X89923478Y-102882398D01*
X89891584Y-102878405D01*
X89731921Y-102842541D01*
X89556690Y-102791195D01*
X89385209Y-102730598D01*
X89237992Y-102667560D01*
X89055383Y-102571533D01*
X88893301Y-102467332D01*
X88737567Y-102344960D01*
X88592799Y-102212648D01*
X88375358Y-101975163D01*
X88194079Y-101716506D01*
X88048001Y-101435043D01*
X87936166Y-101129142D01*
X87917062Y-101062089D01*
X87897500Y-100987074D01*
X87883140Y-100921161D01*
X87873195Y-100855572D01*
X87866883Y-100781532D01*
X87863417Y-100690262D01*
X87862014Y-100572987D01*
X87861858Y-100444667D01*
X87862400Y-100298502D01*
X87864232Y-100185825D01*
X87868183Y-100097796D01*
X87875080Y-100025571D01*
X87885753Y-99960309D01*
X87901031Y-99893168D01*
X87920383Y-99820250D01*
X88023339Y-99521691D01*
X88162331Y-99239838D01*
X88334258Y-98978306D01*
X88536019Y-98740708D01*
X88764512Y-98530656D01*
X89016636Y-98351763D01*
X89289289Y-98207644D01*
X89313879Y-98196868D01*
X89612509Y-98090682D01*
X89922367Y-98023427D01*
X90238116Y-97995381D01*
X90554422Y-98006820D01*
G37*
X90554422Y-98006820D02*
X90865949Y-98058021D01*
X91045167Y-98106936D01*
X91337517Y-98220762D01*
X91609270Y-98369569D01*
X91858070Y-98550134D01*
X92081564Y-98759239D01*
X92277396Y-98993661D01*
X92443211Y-99250182D01*
X92576656Y-99525578D01*
X92675376Y-99816631D01*
X92737015Y-100120119D01*
X92759220Y-100432822D01*
X92759248Y-100451490D01*
X92737822Y-100767033D01*
X92676415Y-101075370D01*
X92577016Y-101372500D01*
X92441619Y-101654426D01*
X92272215Y-101917149D01*
X92070796Y-102156670D01*
X91839355Y-102368991D01*
X91781706Y-102413843D01*
X91616869Y-102524550D01*
X91425869Y-102630730D01*
X91224191Y-102724847D01*
X91027322Y-102799371D01*
X90928750Y-102828739D01*
X90840243Y-102850652D01*
X90759591Y-102866450D01*
X90676041Y-102877306D01*
X90578839Y-102884391D01*
X90457233Y-102888876D01*
X90357250Y-102891001D01*
X90229099Y-102892029D01*
X90107529Y-102890760D01*
X90002376Y-102887461D01*
X89923478Y-102882398D01*
X89891584Y-102878405D01*
X89731921Y-102842541D01*
X89556690Y-102791195D01*
X89385209Y-102730598D01*
X89237992Y-102667560D01*
X89055383Y-102571533D01*
X88893301Y-102467332D01*
X88737567Y-102344960D01*
X88592799Y-102212648D01*
X88375358Y-101975163D01*
X88194079Y-101716506D01*
X88048001Y-101435043D01*
X87936166Y-101129142D01*
X87917062Y-101062089D01*
X87897500Y-100987074D01*
X87883140Y-100921161D01*
X87873195Y-100855572D01*
X87866883Y-100781532D01*
X87863417Y-100690262D01*
X87862014Y-100572987D01*
X87861858Y-100444667D01*
X87862400Y-100298502D01*
X87864232Y-100185825D01*
X87868183Y-100097796D01*
X87875080Y-100025571D01*
X87885753Y-99960309D01*
X87901031Y-99893168D01*
X87920383Y-99820250D01*
X88023339Y-99521691D01*
X88162331Y-99239838D01*
X88334258Y-98978306D01*
X88536019Y-98740708D01*
X88764512Y-98530656D01*
X89016636Y-98351763D01*
X89289289Y-98207644D01*
X89313879Y-98196868D01*
X89612509Y-98090682D01*
X89922367Y-98023427D01*
X90238116Y-97995381D01*
X90554422Y-98006820D01*
X98504422Y-105956820D02*
X98815949Y-106008021D01*
X98815949Y-106008021D02*
X98995167Y-106056936D01*
X98995167Y-106056936D02*
X99287517Y-106170762D01*
X99287517Y-106170762D02*
X99559270Y-106319569D01*
X99559270Y-106319569D02*
X99808070Y-106500134D01*
X99808070Y-106500134D02*
X100031564Y-106709239D01*
X100031564Y-106709239D02*
X100227396Y-106943661D01*
X100227396Y-106943661D02*
X100393211Y-107200182D01*
X100393211Y-107200182D02*
X100526656Y-107475578D01*
X100526656Y-107475578D02*
X100625376Y-107766631D01*
X100625376Y-107766631D02*
X100687015Y-108070119D01*
X100687015Y-108070119D02*
X100709220Y-108382822D01*
X100709220Y-108382822D02*
X100709248Y-108401490D01*
X100709248Y-108401490D02*
X100687822Y-108717033D01*
X100687822Y-108717033D02*
X100626415Y-109025370D01*
X100626415Y-109025370D02*
X100527016Y-109322500D01*
X100527016Y-109322500D02*
X100391619Y-109604426D01*
X100391619Y-109604426D02*
X100222215Y-109867149D01*
X100222215Y-109867149D02*
X100020796Y-110106670D01*
X100020796Y-110106670D02*
X99789355Y-110318991D01*
X99789355Y-110318991D02*
X99731706Y-110363843D01*
X99731706Y-110363843D02*
X99566869Y-110474550D01*
X99566869Y-110474550D02*
X99375869Y-110580730D01*
X99375869Y-110580730D02*
X99174191Y-110674847D01*
X99174191Y-110674847D02*
X98977322Y-110749371D01*
X98977322Y-110749371D02*
X98878750Y-110778739D01*
X98878750Y-110778739D02*
X98790243Y-110800652D01*
X98790243Y-110800652D02*
X98709591Y-110816450D01*
X98709591Y-110816450D02*
X98626041Y-110827306D01*
X98626041Y-110827306D02*
X98528839Y-110834391D01*
X98528839Y-110834391D02*
X98407233Y-110838876D01*
X98407233Y-110838876D02*
X98307250Y-110841001D01*
X98307250Y-110841001D02*
X98179099Y-110842029D01*
X98179099Y-110842029D02*
X98057529Y-110840760D01*
X98057529Y-110840760D02*
X97952376Y-110837461D01*
X97952376Y-110837461D02*
X97873478Y-110832398D01*
X97873478Y-110832398D02*
X97841584Y-110828405D01*
X97841584Y-110828405D02*
X97681921Y-110792541D01*
X97681921Y-110792541D02*
X97506690Y-110741195D01*
X97506690Y-110741195D02*
X97335209Y-110680598D01*
X97335209Y-110680598D02*
X97187992Y-110617560D01*
X97187992Y-110617560D02*
X97005383Y-110521533D01*
X97005383Y-110521533D02*
X96843301Y-110417332D01*
X96843301Y-110417332D02*
X96687567Y-110294960D01*
X96687567Y-110294960D02*
X96542799Y-110162648D01*
X96542799Y-110162648D02*
X96325358Y-109925163D01*
X96325358Y-109925163D02*
X96144079Y-109666506D01*
X96144079Y-109666506D02*
X95998001Y-109385043D01*
X95998001Y-109385043D02*
X95886166Y-109079142D01*
X95886166Y-109079142D02*
X95867062Y-109012089D01*
X95867062Y-109012089D02*
X95847500Y-108937074D01*
X95847500Y-108937074D02*
X95833140Y-108871161D01*
X95833140Y-108871161D02*
X95823195Y-108805572D01*
X95823195Y-108805572D02*
X95816883Y-108731532D01*
X95816883Y-108731532D02*
X95813417Y-108640262D01*
X95813417Y-108640262D02*
X95812014Y-108522987D01*
X95812014Y-108522987D02*
X95811858Y-108394667D01*
X95811858Y-108394667D02*
X95812400Y-108248502D01*
X95812400Y-108248502D02*
X95814232Y-108135825D01*
X95814232Y-108135825D02*
X95818183Y-108047796D01*
X95818183Y-108047796D02*
X95825080Y-107975571D01*
X95825080Y-107975571D02*
X95835753Y-107910309D01*
X95835753Y-107910309D02*
X95851031Y-107843168D01*
X95851031Y-107843168D02*
X95870383Y-107770250D01*
X95870383Y-107770250D02*
X95973339Y-107471691D01*
X95973339Y-107471691D02*
X96112331Y-107189838D01*
X96112331Y-107189838D02*
X96284258Y-106928306D01*
X96284258Y-106928306D02*
X96486019Y-106690708D01*
X96486019Y-106690708D02*
X96714512Y-106480656D01*
X96714512Y-106480656D02*
X96966636Y-106301763D01*
X96966636Y-106301763D02*
X97239289Y-106157644D01*
X97239289Y-106157644D02*
X97263879Y-106146868D01*
X97263879Y-106146868D02*
X97562509Y-106040682D01*
X97562509Y-106040682D02*
X97872367Y-105973427D01*
X97872367Y-105973427D02*
X98188116Y-105945381D01*
X98188116Y-105945381D02*
X98504422Y-105956820D01*
X98504422Y-105956820D02*
X98504422Y-105956820D01*
G36*
X98504422Y-105956820D02*
G01*
X98815949Y-106008021D01*
X98995167Y-106056936D01*
X99287517Y-106170762D01*
X99559270Y-106319569D01*
X99808070Y-106500134D01*
X100031564Y-106709239D01*
X100227396Y-106943661D01*
X100393211Y-107200182D01*
X100526656Y-107475578D01*
X100625376Y-107766631D01*
X100687015Y-108070119D01*
X100709220Y-108382822D01*
X100709248Y-108401490D01*
X100687822Y-108717033D01*
X100626415Y-109025370D01*
X100527016Y-109322500D01*
X100391619Y-109604426D01*
X100222215Y-109867149D01*
X100020796Y-110106670D01*
X99789355Y-110318991D01*
X99731706Y-110363843D01*
X99566869Y-110474550D01*
X99375869Y-110580730D01*
X99174191Y-110674847D01*
X98977322Y-110749371D01*
X98878750Y-110778739D01*
X98790243Y-110800652D01*
X98709591Y-110816450D01*
X98626041Y-110827306D01*
X98528839Y-110834391D01*
X98407233Y-110838876D01*
X98307250Y-110841001D01*
X98179099Y-110842029D01*
X98057529Y-110840760D01*
X97952376Y-110837461D01*
X97873478Y-110832398D01*
X97841584Y-110828405D01*
X97681921Y-110792541D01*
X97506690Y-110741195D01*
X97335209Y-110680598D01*
X97187992Y-110617560D01*
X97005383Y-110521533D01*
X96843301Y-110417332D01*
X96687567Y-110294960D01*
X96542799Y-110162648D01*
X96325358Y-109925163D01*
X96144079Y-109666506D01*
X95998001Y-109385043D01*
X95886166Y-109079142D01*
X95867062Y-109012089D01*
X95847500Y-108937074D01*
X95833140Y-108871161D01*
X95823195Y-108805572D01*
X95816883Y-108731532D01*
X95813417Y-108640262D01*
X95812014Y-108522987D01*
X95811858Y-108394667D01*
X95812400Y-108248502D01*
X95814232Y-108135825D01*
X95818183Y-108047796D01*
X95825080Y-107975571D01*
X95835753Y-107910309D01*
X95851031Y-107843168D01*
X95870383Y-107770250D01*
X95973339Y-107471691D01*
X96112331Y-107189838D01*
X96284258Y-106928306D01*
X96486019Y-106690708D01*
X96714512Y-106480656D01*
X96966636Y-106301763D01*
X97239289Y-106157644D01*
X97263879Y-106146868D01*
X97562509Y-106040682D01*
X97872367Y-105973427D01*
X98188116Y-105945381D01*
X98504422Y-105956820D01*
G37*
X98504422Y-105956820D02*
X98815949Y-106008021D01*
X98995167Y-106056936D01*
X99287517Y-106170762D01*
X99559270Y-106319569D01*
X99808070Y-106500134D01*
X100031564Y-106709239D01*
X100227396Y-106943661D01*
X100393211Y-107200182D01*
X100526656Y-107475578D01*
X100625376Y-107766631D01*
X100687015Y-108070119D01*
X100709220Y-108382822D01*
X100709248Y-108401490D01*
X100687822Y-108717033D01*
X100626415Y-109025370D01*
X100527016Y-109322500D01*
X100391619Y-109604426D01*
X100222215Y-109867149D01*
X100020796Y-110106670D01*
X99789355Y-110318991D01*
X99731706Y-110363843D01*
X99566869Y-110474550D01*
X99375869Y-110580730D01*
X99174191Y-110674847D01*
X98977322Y-110749371D01*
X98878750Y-110778739D01*
X98790243Y-110800652D01*
X98709591Y-110816450D01*
X98626041Y-110827306D01*
X98528839Y-110834391D01*
X98407233Y-110838876D01*
X98307250Y-110841001D01*
X98179099Y-110842029D01*
X98057529Y-110840760D01*
X97952376Y-110837461D01*
X97873478Y-110832398D01*
X97841584Y-110828405D01*
X97681921Y-110792541D01*
X97506690Y-110741195D01*
X97335209Y-110680598D01*
X97187992Y-110617560D01*
X97005383Y-110521533D01*
X96843301Y-110417332D01*
X96687567Y-110294960D01*
X96542799Y-110162648D01*
X96325358Y-109925163D01*
X96144079Y-109666506D01*
X95998001Y-109385043D01*
X95886166Y-109079142D01*
X95867062Y-109012089D01*
X95847500Y-108937074D01*
X95833140Y-108871161D01*
X95823195Y-108805572D01*
X95816883Y-108731532D01*
X95813417Y-108640262D01*
X95812014Y-108522987D01*
X95811858Y-108394667D01*
X95812400Y-108248502D01*
X95814232Y-108135825D01*
X95818183Y-108047796D01*
X95825080Y-107975571D01*
X95835753Y-107910309D01*
X95851031Y-107843168D01*
X95870383Y-107770250D01*
X95973339Y-107471691D01*
X96112331Y-107189838D01*
X96284258Y-106928306D01*
X96486019Y-106690708D01*
X96714512Y-106480656D01*
X96966636Y-106301763D01*
X97239289Y-106157644D01*
X97263879Y-106146868D01*
X97562509Y-106040682D01*
X97872367Y-105973427D01*
X98188116Y-105945381D01*
X98504422Y-105956820D01*
X90554422Y-113906820D02*
X90865949Y-113958021D01*
X90865949Y-113958021D02*
X91045167Y-114006936D01*
X91045167Y-114006936D02*
X91337517Y-114120762D01*
X91337517Y-114120762D02*
X91609270Y-114269569D01*
X91609270Y-114269569D02*
X91858070Y-114450134D01*
X91858070Y-114450134D02*
X92081564Y-114659239D01*
X92081564Y-114659239D02*
X92277396Y-114893661D01*
X92277396Y-114893661D02*
X92443211Y-115150182D01*
X92443211Y-115150182D02*
X92576656Y-115425578D01*
X92576656Y-115425578D02*
X92675376Y-115716631D01*
X92675376Y-115716631D02*
X92737015Y-116020119D01*
X92737015Y-116020119D02*
X92759220Y-116332822D01*
X92759220Y-116332822D02*
X92759248Y-116351490D01*
X92759248Y-116351490D02*
X92737822Y-116667033D01*
X92737822Y-116667033D02*
X92676415Y-116975370D01*
X92676415Y-116975370D02*
X92577016Y-117272500D01*
X92577016Y-117272500D02*
X92441619Y-117554426D01*
X92441619Y-117554426D02*
X92272215Y-117817149D01*
X92272215Y-117817149D02*
X92070796Y-118056670D01*
X92070796Y-118056670D02*
X91839355Y-118268991D01*
X91839355Y-118268991D02*
X91781706Y-118313843D01*
X91781706Y-118313843D02*
X91616869Y-118424550D01*
X91616869Y-118424550D02*
X91425869Y-118530730D01*
X91425869Y-118530730D02*
X91224191Y-118624847D01*
X91224191Y-118624847D02*
X91027322Y-118699371D01*
X91027322Y-118699371D02*
X90928750Y-118728739D01*
X90928750Y-118728739D02*
X90840243Y-118750652D01*
X90840243Y-118750652D02*
X90759591Y-118766450D01*
X90759591Y-118766450D02*
X90676041Y-118777306D01*
X90676041Y-118777306D02*
X90578839Y-118784391D01*
X90578839Y-118784391D02*
X90457233Y-118788876D01*
X90457233Y-118788876D02*
X90357250Y-118791001D01*
X90357250Y-118791001D02*
X90229099Y-118792029D01*
X90229099Y-118792029D02*
X90107529Y-118790760D01*
X90107529Y-118790760D02*
X90002376Y-118787461D01*
X90002376Y-118787461D02*
X89923478Y-118782398D01*
X89923478Y-118782398D02*
X89891584Y-118778405D01*
X89891584Y-118778405D02*
X89731921Y-118742541D01*
X89731921Y-118742541D02*
X89556690Y-118691195D01*
X89556690Y-118691195D02*
X89385209Y-118630598D01*
X89385209Y-118630598D02*
X89237992Y-118567560D01*
X89237992Y-118567560D02*
X89055383Y-118471533D01*
X89055383Y-118471533D02*
X88893301Y-118367332D01*
X88893301Y-118367332D02*
X88737567Y-118244960D01*
X88737567Y-118244960D02*
X88592799Y-118112648D01*
X88592799Y-118112648D02*
X88375358Y-117875163D01*
X88375358Y-117875163D02*
X88194079Y-117616506D01*
X88194079Y-117616506D02*
X88048001Y-117335043D01*
X88048001Y-117335043D02*
X87936166Y-117029142D01*
X87936166Y-117029142D02*
X87917062Y-116962089D01*
X87917062Y-116962089D02*
X87897500Y-116887074D01*
X87897500Y-116887074D02*
X87883140Y-116821161D01*
X87883140Y-116821161D02*
X87873195Y-116755572D01*
X87873195Y-116755572D02*
X87866883Y-116681532D01*
X87866883Y-116681532D02*
X87863417Y-116590262D01*
X87863417Y-116590262D02*
X87862014Y-116472987D01*
X87862014Y-116472987D02*
X87861858Y-116344667D01*
X87861858Y-116344667D02*
X87862400Y-116198502D01*
X87862400Y-116198502D02*
X87864232Y-116085825D01*
X87864232Y-116085825D02*
X87868183Y-115997796D01*
X87868183Y-115997796D02*
X87875080Y-115925571D01*
X87875080Y-115925571D02*
X87885753Y-115860309D01*
X87885753Y-115860309D02*
X87901031Y-115793168D01*
X87901031Y-115793168D02*
X87920383Y-115720250D01*
X87920383Y-115720250D02*
X88023339Y-115421691D01*
X88023339Y-115421691D02*
X88162331Y-115139838D01*
X88162331Y-115139838D02*
X88334258Y-114878306D01*
X88334258Y-114878306D02*
X88536019Y-114640708D01*
X88536019Y-114640708D02*
X88764512Y-114430656D01*
X88764512Y-114430656D02*
X89016636Y-114251763D01*
X89016636Y-114251763D02*
X89289289Y-114107644D01*
X89289289Y-114107644D02*
X89313879Y-114096868D01*
X89313879Y-114096868D02*
X89612509Y-113990682D01*
X89612509Y-113990682D02*
X89922367Y-113923427D01*
X89922367Y-113923427D02*
X90238116Y-113895381D01*
X90238116Y-113895381D02*
X90554422Y-113906820D01*
X90554422Y-113906820D02*
X90554422Y-113906820D01*
G36*
X90554422Y-113906820D02*
G01*
X90865949Y-113958021D01*
X91045167Y-114006936D01*
X91337517Y-114120762D01*
X91609270Y-114269569D01*
X91858070Y-114450134D01*
X92081564Y-114659239D01*
X92277396Y-114893661D01*
X92443211Y-115150182D01*
X92576656Y-115425578D01*
X92675376Y-115716631D01*
X92737015Y-116020119D01*
X92759220Y-116332822D01*
X92759248Y-116351490D01*
X92737822Y-116667033D01*
X92676415Y-116975370D01*
X92577016Y-117272500D01*
X92441619Y-117554426D01*
X92272215Y-117817149D01*
X92070796Y-118056670D01*
X91839355Y-118268991D01*
X91781706Y-118313843D01*
X91616869Y-118424550D01*
X91425869Y-118530730D01*
X91224191Y-118624847D01*
X91027322Y-118699371D01*
X90928750Y-118728739D01*
X90840243Y-118750652D01*
X90759591Y-118766450D01*
X90676041Y-118777306D01*
X90578839Y-118784391D01*
X90457233Y-118788876D01*
X90357250Y-118791001D01*
X90229099Y-118792029D01*
X90107529Y-118790760D01*
X90002376Y-118787461D01*
X89923478Y-118782398D01*
X89891584Y-118778405D01*
X89731921Y-118742541D01*
X89556690Y-118691195D01*
X89385209Y-118630598D01*
X89237992Y-118567560D01*
X89055383Y-118471533D01*
X88893301Y-118367332D01*
X88737567Y-118244960D01*
X88592799Y-118112648D01*
X88375358Y-117875163D01*
X88194079Y-117616506D01*
X88048001Y-117335043D01*
X87936166Y-117029142D01*
X87917062Y-116962089D01*
X87897500Y-116887074D01*
X87883140Y-116821161D01*
X87873195Y-116755572D01*
X87866883Y-116681532D01*
X87863417Y-116590262D01*
X87862014Y-116472987D01*
X87861858Y-116344667D01*
X87862400Y-116198502D01*
X87864232Y-116085825D01*
X87868183Y-115997796D01*
X87875080Y-115925571D01*
X87885753Y-115860309D01*
X87901031Y-115793168D01*
X87920383Y-115720250D01*
X88023339Y-115421691D01*
X88162331Y-115139838D01*
X88334258Y-114878306D01*
X88536019Y-114640708D01*
X88764512Y-114430656D01*
X89016636Y-114251763D01*
X89289289Y-114107644D01*
X89313879Y-114096868D01*
X89612509Y-113990682D01*
X89922367Y-113923427D01*
X90238116Y-113895381D01*
X90554422Y-113906820D01*
G37*
X90554422Y-113906820D02*
X90865949Y-113958021D01*
X91045167Y-114006936D01*
X91337517Y-114120762D01*
X91609270Y-114269569D01*
X91858070Y-114450134D01*
X92081564Y-114659239D01*
X92277396Y-114893661D01*
X92443211Y-115150182D01*
X92576656Y-115425578D01*
X92675376Y-115716631D01*
X92737015Y-116020119D01*
X92759220Y-116332822D01*
X92759248Y-116351490D01*
X92737822Y-116667033D01*
X92676415Y-116975370D01*
X92577016Y-117272500D01*
X92441619Y-117554426D01*
X92272215Y-117817149D01*
X92070796Y-118056670D01*
X91839355Y-118268991D01*
X91781706Y-118313843D01*
X91616869Y-118424550D01*
X91425869Y-118530730D01*
X91224191Y-118624847D01*
X91027322Y-118699371D01*
X90928750Y-118728739D01*
X90840243Y-118750652D01*
X90759591Y-118766450D01*
X90676041Y-118777306D01*
X90578839Y-118784391D01*
X90457233Y-118788876D01*
X90357250Y-118791001D01*
X90229099Y-118792029D01*
X90107529Y-118790760D01*
X90002376Y-118787461D01*
X89923478Y-118782398D01*
X89891584Y-118778405D01*
X89731921Y-118742541D01*
X89556690Y-118691195D01*
X89385209Y-118630598D01*
X89237992Y-118567560D01*
X89055383Y-118471533D01*
X88893301Y-118367332D01*
X88737567Y-118244960D01*
X88592799Y-118112648D01*
X88375358Y-117875163D01*
X88194079Y-117616506D01*
X88048001Y-117335043D01*
X87936166Y-117029142D01*
X87917062Y-116962089D01*
X87897500Y-116887074D01*
X87883140Y-116821161D01*
X87873195Y-116755572D01*
X87866883Y-116681532D01*
X87863417Y-116590262D01*
X87862014Y-116472987D01*
X87861858Y-116344667D01*
X87862400Y-116198502D01*
X87864232Y-116085825D01*
X87868183Y-115997796D01*
X87875080Y-115925571D01*
X87885753Y-115860309D01*
X87901031Y-115793168D01*
X87920383Y-115720250D01*
X88023339Y-115421691D01*
X88162331Y-115139838D01*
X88334258Y-114878306D01*
X88536019Y-114640708D01*
X88764512Y-114430656D01*
X89016636Y-114251763D01*
X89289289Y-114107644D01*
X89313879Y-114096868D01*
X89612509Y-113990682D01*
X89922367Y-113923427D01*
X90238116Y-113895381D01*
X90554422Y-113906820D01*
X115356000Y-81481167D02*
X112607861Y-81481167D01*
X112607861Y-81481167D02*
X112270182Y-81481060D01*
X112270182Y-81481060D02*
X111944207Y-81480749D01*
X111944207Y-81480749D02*
X111632441Y-81480245D01*
X111632441Y-81480245D02*
X111337387Y-81479562D01*
X111337387Y-81479562D02*
X111061550Y-81478713D01*
X111061550Y-81478713D02*
X110807435Y-81477710D01*
X110807435Y-81477710D02*
X110577544Y-81476566D01*
X110577544Y-81476566D02*
X110374382Y-81475295D01*
X110374382Y-81475295D02*
X110200453Y-81473907D01*
X110200453Y-81473907D02*
X110058261Y-81472418D01*
X110058261Y-81472418D02*
X109950310Y-81470838D01*
X109950310Y-81470838D02*
X109879105Y-81469182D01*
X109879105Y-81469182D02*
X109847149Y-81467462D01*
X109847149Y-81467462D02*
X109845611Y-81467056D01*
X109845611Y-81467056D02*
X109843949Y-81444602D01*
X109843949Y-81444602D02*
X109842342Y-81382214D01*
X109842342Y-81382214D02*
X109840802Y-81282290D01*
X109840802Y-81282290D02*
X109839341Y-81147229D01*
X109839341Y-81147229D02*
X109837969Y-80979430D01*
X109837969Y-80979430D02*
X109836697Y-80781290D01*
X109836697Y-80781290D02*
X109835538Y-80555210D01*
X109835538Y-80555210D02*
X109834502Y-80303587D01*
X109834502Y-80303587D02*
X109833600Y-80028820D01*
X109833600Y-80028820D02*
X109832844Y-79733308D01*
X109832844Y-79733308D02*
X109832246Y-79419450D01*
X109832246Y-79419450D02*
X109831815Y-79089644D01*
X109831815Y-79089644D02*
X109831564Y-78746290D01*
X109831564Y-78746290D02*
X109831500Y-78461389D01*
X109831500Y-78461389D02*
X109831500Y-75469834D01*
X109831500Y-75469834D02*
X115356000Y-75469834D01*
X115356000Y-75469834D02*
X115356000Y-81481167D01*
X115356000Y-81481167D02*
X115356000Y-81481167D01*
G36*
X115356000Y-81481167D02*
G01*
X112607861Y-81481167D01*
X112270182Y-81481060D01*
X111944207Y-81480749D01*
X111632441Y-81480245D01*
X111337387Y-81479562D01*
X111061550Y-81478713D01*
X110807435Y-81477710D01*
X110577544Y-81476566D01*
X110374382Y-81475295D01*
X110200453Y-81473907D01*
X110058261Y-81472418D01*
X109950310Y-81470838D01*
X109879105Y-81469182D01*
X109847149Y-81467462D01*
X109845611Y-81467056D01*
X109843949Y-81444602D01*
X109842342Y-81382214D01*
X109840802Y-81282290D01*
X109839341Y-81147229D01*
X109837969Y-80979430D01*
X109836697Y-80781290D01*
X109835538Y-80555210D01*
X109834502Y-80303587D01*
X109833600Y-80028820D01*
X109832844Y-79733308D01*
X109832246Y-79419450D01*
X109831815Y-79089644D01*
X109831564Y-78746290D01*
X109831500Y-78461389D01*
X109831500Y-75469834D01*
X115356000Y-75469834D01*
X115356000Y-81481167D01*
G37*
X115356000Y-81481167D02*
X112607861Y-81481167D01*
X112270182Y-81481060D01*
X111944207Y-81480749D01*
X111632441Y-81480245D01*
X111337387Y-81479562D01*
X111061550Y-81478713D01*
X110807435Y-81477710D01*
X110577544Y-81476566D01*
X110374382Y-81475295D01*
X110200453Y-81473907D01*
X110058261Y-81472418D01*
X109950310Y-81470838D01*
X109879105Y-81469182D01*
X109847149Y-81467462D01*
X109845611Y-81467056D01*
X109843949Y-81444602D01*
X109842342Y-81382214D01*
X109840802Y-81282290D01*
X109839341Y-81147229D01*
X109837969Y-80979430D01*
X109836697Y-80781290D01*
X109835538Y-80555210D01*
X109834502Y-80303587D01*
X109833600Y-80028820D01*
X109832844Y-79733308D01*
X109832246Y-79419450D01*
X109831815Y-79089644D01*
X109831564Y-78746290D01*
X109831500Y-78461389D01*
X109831500Y-75469834D01*
X115356000Y-75469834D01*
X115356000Y-81481167D01*
G36*
X154708106Y-60876810D02*
G01*
X155888481Y-63193427D01*
X153571864Y-64373803D01*
X152391489Y-62057186D01*
X154708106Y-60876810D01*
G37*
G36*
X144550631Y-66052302D02*
G01*
X145731007Y-68368919D01*
X143414390Y-69549294D01*
X142234014Y-67232677D01*
X144550631Y-66052302D01*
G37*
D10*
X151630000Y-64250000D02*
G75*
G03*
X151630000Y-64250000I-1780000J0D01*
G01*
G36*
X168519313Y-80535267D02*
G01*
X171062496Y-79994697D01*
X171603067Y-82537880D01*
X169059883Y-83078451D01*
X168519313Y-80535267D01*
G37*
G36*
X166149119Y-69384384D02*
G01*
X168692303Y-68843814D01*
X169232874Y-71386998D01*
X166689690Y-71927568D01*
X166149119Y-69384384D01*
G37*
X169930000Y-74950000D02*
G75*
G03*
X169930000Y-74950000I-1780000J0D01*
G01*
D13*
X93787500Y-56450000D03*
X93787500Y-54550000D03*
X91912500Y-55500000D03*
D14*
X170200000Y-98512500D03*
X170200000Y-96787500D03*
D15*
X54862500Y-84400000D03*
X53137500Y-84400000D03*
X146112500Y-77900000D03*
X144387500Y-77900000D03*
D16*
X131787500Y-71400000D03*
X133512500Y-71400000D03*
D17*
X153850000Y-74150000D03*
X153850000Y-82650000D03*
X135894552Y-82880220D03*
X141471054Y-89295251D03*
D18*
X160802886Y-61650000D03*
X164700000Y-63900000D03*
D19*
X82350000Y-105400000D03*
D20*
X82350000Y-111400000D03*
D19*
X90300000Y-97450000D03*
D20*
X90300000Y-103450000D03*
D19*
X98250000Y-105400000D03*
D20*
X98250000Y-111400000D03*
D19*
X90300000Y-113350000D03*
D20*
X90300000Y-119350000D03*
D21*
X64368635Y-83687221D03*
X78441531Y-73109243D03*
D22*
X71131628Y-83616071D03*
D23*
X71261159Y-81144463D03*
D24*
X65770011Y-72615390D03*
D22*
X71678538Y-73180393D03*
D24*
X77040155Y-84181074D03*
D23*
X71549007Y-75652001D03*
D25*
X73228104Y-67879226D03*
X71959844Y-67812759D03*
X70691585Y-67746292D03*
D26*
X60886077Y-76575211D03*
X60819610Y-77843471D03*
X60753143Y-79111730D03*
D22*
X68427018Y-87454784D03*
X70923592Y-87585624D03*
X73420166Y-87716464D03*
X80461635Y-81376297D03*
X80592475Y-78879723D03*
X80723315Y-76383149D03*
D27*
X97050000Y-74300000D03*
X95150000Y-74300000D03*
X93500000Y-71000000D03*
X91600000Y-71000000D03*
X93550000Y-68250000D03*
X91650000Y-68250000D03*
X127850000Y-63900000D03*
X129750000Y-63900000D03*
X127550000Y-74000000D03*
X129450000Y-74000000D03*
D28*
X113200000Y-75350000D03*
D29*
X112000000Y-81550000D03*
D17*
X153592227Y-62343240D03*
X146018672Y-66202159D03*
D30*
X119500000Y-52500000D03*
D22*
X129120000Y-56150000D03*
X126580000Y-56150000D03*
X124040000Y-56150000D03*
X121500000Y-56150000D03*
X118960000Y-56150000D03*
X116420000Y-56150000D03*
X113880000Y-56150000D03*
X111340000Y-56150000D03*
X108800000Y-56150000D03*
X106260000Y-56150000D03*
X103720000Y-56150000D03*
X101180000Y-56150000D03*
X98640000Y-56150000D03*
X96100000Y-56150000D03*
X96100000Y-61230000D03*
X96100000Y-63770000D03*
X96100000Y-71390000D03*
X98640000Y-71390000D03*
X101180000Y-71390000D03*
X103720000Y-71390000D03*
X106260000Y-71390000D03*
X108800000Y-71390000D03*
X111340000Y-71390000D03*
X113880000Y-71390000D03*
X116420000Y-71390000D03*
X118960000Y-71390000D03*
X121500000Y-71390000D03*
X124040000Y-71390000D03*
X126580000Y-71390000D03*
X129120000Y-71390000D03*
D31*
X75600000Y-98400000D03*
D23*
X57600000Y-87900000D03*
D32*
X106000000Y-78400000D03*
X119200000Y-78400000D03*
D33*
X159600000Y-68400000D03*
D23*
X167600000Y-87900000D03*
D34*
X60616622Y-67616621D03*
D17*
X167276771Y-70841780D03*
X169044020Y-79156035D03*
D35*
X172400000Y-103400000D03*
D34*
X82183378Y-89183378D03*
D36*
X105800000Y-58500000D03*
X104000000Y-58500000D03*
D27*
X121550000Y-75000000D03*
X123450000Y-75000000D03*
D37*
X93237500Y-77500000D03*
X91412500Y-77500000D03*
X87237500Y-69500000D03*
X85412500Y-69500000D03*
D27*
X113450000Y-53600000D03*
X115350000Y-53600000D03*
D37*
X137325000Y-67000000D03*
X135500000Y-67000000D03*
D38*
X111400000Y-53600000D03*
X108600000Y-53600000D03*
D39*
X129587500Y-77500000D03*
X131412500Y-77500000D03*
X124462500Y-79000000D03*
X126287500Y-79000000D03*
D37*
X134000000Y-66500000D03*
X132175000Y-66500000D03*
D15*
X81725000Y-65000000D03*
X80000000Y-65000000D03*
D39*
X82175000Y-68000000D03*
X84000000Y-68000000D03*
D30*
X83375000Y-95900000D03*
D40*
X80835000Y-95900000D03*
D39*
X83675000Y-65500000D03*
X85500000Y-65500000D03*
D38*
X83800000Y-92800000D03*
X81000000Y-92800000D03*
D41*
X93800000Y-59912500D03*
X93800000Y-58087500D03*
D37*
X137325000Y-65500000D03*
X135500000Y-65500000D03*
D39*
X86087500Y-68000000D03*
X87912500Y-68000000D03*
D30*
X54050000Y-89800000D03*
D40*
X54050000Y-87260000D03*
D30*
X165400000Y-92400000D03*
D40*
X167940000Y-92400000D03*
D42*
X133250000Y-74900000D03*
X141950000Y-74900000D03*
D43*
X140000000Y-63400000D03*
X137600000Y-63400000D03*
X135200000Y-63400000D03*
D42*
X91950000Y-74900000D03*
X83250000Y-74900000D03*
D43*
X90000000Y-63400000D03*
X87600000Y-63400000D03*
X85200000Y-63400000D03*
D44*
X169100000Y-105900000D03*
D45*
X167100000Y-105900000D03*
X165100000Y-105900000D03*
X163100000Y-105900000D03*
D46*
X105600000Y-52900000D03*
D47*
X103600000Y-52900000D03*
X101600000Y-52900000D03*
X99600000Y-52900000D03*
X97600000Y-52900000D03*
X95600000Y-52900000D03*
M02*
