<?xml version="1.0" encoding="utf-8"?>
<!-- Generator: Adobe Illustrator 26.0.2, SVG Export Plug-In . SVG Version: 6.00 Build 0)  -->
<svg version="1.1"
	 id="svg5" xmlns:inkscape="http://www.inkscape.org/namespaces/inkscape" xmlns:sodipodi="http://sodipodi.sourceforge.net/DTD/sodipodi-0.dtd" xmlns:svg="http://www.w3.org/2000/svg"
	 xmlns="http://www.w3.org/2000/svg" xmlns:xlink="http://www.w3.org/1999/xlink" x="0px" y="0px" viewBox="0 0 283.5 283.5"
	 style="enable-background:new 0 0 283.5 283.5;" xml:space="preserve">
<style type="text/css">
	.st0{fill:#FFFFFF;}
</style>
<sodipodi:namedview  bordercolor="#666666" borderlayer="true" borderopacity="1.0" id="namedview7" inkscape:current-layer="g25" inkscape:cx="140.9315" inkscape:cy="165.44132" inkscape:document-units="mm" inkscape:pagecheckerboard="0" inkscape:pageopacity="0.0" inkscape:pageshadow="2" inkscape:window-height="1027" inkscape:window-maximized="1" inkscape:window-width="1920" inkscape:window-x="1912" inkscape:window-y="-8" inkscape:zoom="1.060799" pagecolor="#ffffff" showgrid="true">
	<inkscape:grid  empspacing="1" id="grid13" spacingx="2.54" spacingy="2.54" type="xygrid" units="mm"></inkscape:grid>
</sodipodi:namedview>
<g id="g19" inkscape:groupmode="layer" inkscape:label="[fixed] BG" sodipodi:insensitive="true">
	<rect id="rect17" class="st0" width="283.5" height="283.5"/>
</g>
<g id="g25" inkscape:groupmode="layer" inkscape:label="F.SilkS">
</g>
<g>
	<path d="M142.8,147.3c2.5-0.1,4.3,0.1,6.6,0.5c1,0.2,1.3,0.2,1.7-0.1c0.2-0.1,0.5-0.6,0.5-0.9c0.1-0.6-0.3-1.3-1-1.5
		c-0.5-0.1-2.2-0.4-3.5-0.6c-1.3-0.2-4.6-0.2-6-0.1c-2.2,0.2-4.7,0.6-6.8,1.2c-0.5,0.1-1,0.2-1.1,0.2c-0.6,0-1.1-0.3-1.4-0.8
		c-0.1-0.3-0.2-0.4-0.2-1.5c0-1.4,0.1-2.2,0.5-3.3c0.9-3.1,3.1-5.7,5.9-7.2v1.2c0,0.6,0.4,1,1,1h3.6c0,0.7,0,0.8-0.2,0.9
		c-0.1,0.2-0.2,0.2-0.7,0.2c-0.4,0-0.6,0.1-0.7,0.2c-0.2,0.2-0.2,0.2-0.2,1.1c0,1.1,0,1.2,0.5,1.3c0.3,0.1,4.1,0.1,4.5,0
		c0.4-0.1,0.5-0.3,0.5-1.3c0-0.5,0-1-0.1-1.1c-0.1-0.2-0.5-0.3-0.9-0.3c-0.3,0-0.4,0-0.5-0.2c-0.2-0.2-0.3-0.4-0.3-1h3.7
		c0.6,0,1-0.4,1-1v-6.5c0-0.6-0.4-1-1-1h-9.3c-0.6,0-1,0.4-1,1v3.9c-5.4,2.5-8.6,8.3-7.5,14.4c0.1,0.5,0.1,1,0.1,1.2
		c-0.1,0.7,0.3,1.4,0.9,1.7c0.5,0.2,0.8,0.2,2.1-0.2c2-0.6,4.2-1.1,6.3-1.4C140.6,147.4,141.8,147.3,142.8,147.3z"/>
	<path d="M157,141.6c-0.1-0.4-0.1-1-0.1-1.3c0-0.7-0.1-1-0.6-1.4c-0.3-0.3-0.7-0.4-1-0.4c-0.1,0-0.7,0.1-1.2,0.3
		c-3,1-5.5,1.4-8.6,1.6c-2.3,0.1-5-0.1-7.2-0.5c-0.4-0.1-0.9-0.1-1.1-0.1c-0.5,0-0.9,0.3-1.1,0.7c-0.2,0.5-0.2,0.7,0,1.2
		c0.3,0.5,0.5,0.7,1.8,0.9c2.3,0.4,3.8,0.6,6.2,0.6c3.2,0,5.9-0.4,9-1.2c0.6-0.2,1.2-0.3,1.3-0.3c0.5,0,1.2,0.4,1.4,0.9
		c0.2,0.6,0.2,2.5-0.1,3.9c-0.8,3.7-3.2,6.8-6.7,8.4c-1.1,0.5-1.9,0.8-2.3,0.7c-0.4,0-0.8-0.3-1.1-0.7c-0.1-0.1-0.3-0.4-0.4-0.5
		c-0.1-0.2-0.3-0.4-0.3-0.6c-0.1-0.4-0.1-1.6,0-2c0.1-0.4,0.4-0.5,0.9-0.5c0.3,0,0.4,0,0.6-0.2l0.2-0.2v-1c0-1,0-1-0.2-1.2l-0.2-0.2
		h-2.3c-1.5,0-2.4,0-2.5,0.1c-0.3,0.1-0.3,0.4-0.3,1.2c0,1.1,0.2,1.4,0.9,1.4c0.4,0,0.6,0.1,0.8,0.3c0.1,0.1,0.1,0.3,0.1,1.2
		c0,1.2,0,1.3-0.5,1.8c-0.9,1-0.6,2.5,0.5,3.2c0,0.1,0,0.2,0,0.3h-3.7c-0.6,0-1,0.4-1,1v6.5c0,0.6,0.4,1,1,1h9.3c0.6,0,1-0.4,1-1
		l0-6.5c0-0.6-0.4-1-1-1h-3.7c0-0.1,0-0.2,0-0.4c0.1-0.1,0.2-0.1,0.3-0.2c0.4-0.3,0.6-0.3,1.3-0.5c4.8-1,8.6-4.3,10.1-8.9
		C157.2,145.9,157.4,143.8,157,141.6z"/>
</g>
<path d="M148.1,158c3.9-1.2,7.1-3.9,9-7.6c2-4.1,2-8.7,0.1-12.8c-1.6-3.3-4.3-5.9-7.7-7.3v4.1c0,0.6-0.4,1-1,1h-9.3
	c-0.6,0-1-0.4-1-1v-4.1c-2.2,0.9-4.1,2.3-5.7,4.2c-3,3.6-4.1,8.4-3,12.9c1.3,5.2,5.1,9.2,10.1,10.7L148.1,158z"/>
</svg>
