<?xml version="1.0" encoding="utf-8"?>
<!-- Generator: Adobe Illustrator 26.0.2, SVG Export Plug-In . SVG Version: 6.00 Build 0)  -->
<svg version="1.1"
	 id="svg5" xmlns:inkscape="http://www.inkscape.org/namespaces/inkscape" xmlns:sodipodi="http://sodipodi.sourceforge.net/DTD/sodipodi-0.dtd" xmlns:svg="http://www.w3.org/2000/svg"
	 xmlns="http://www.w3.org/2000/svg" xmlns:xlink="http://www.w3.org/1999/xlink" x="0px" y="0px" viewBox="0 0 283.5 283.5"
	 style="enable-background:new 0 0 283.5 283.5;" xml:space="preserve">
<style type="text/css">
	.st0{fill:#FFFFFF;}
</style>
<sodipodi:namedview  bordercolor="#666666" borderlayer="true" borderopacity="1.0" id="namedview7" inkscape:current-layer="g23" inkscape:cx="191.28746" inkscape:cy="192.03736" inkscape:document-units="mm" inkscape:pagecheckerboard="0" inkscape:pageopacity="0.0" inkscape:pageshadow="2" inkscape:window-height="1017" inkscape:window-maximized="1" inkscape:window-width="1920" inkscape:window-x="-8" inkscape:window-y="-8" inkscape:zoom="24.003141" pagecolor="#ffffff" showgrid="true">
	<inkscape:grid  empspacing="1" id="grid13" spacingx="2.54" spacingy="2.54" type="xygrid" units="mm"></inkscape:grid>
</sodipodi:namedview>
<g id="g19" inkscape:groupmode="layer" inkscape:label="[fixed] BG" sodipodi:insensitive="true">
	<rect id="rect17" x="0" y="0" class="st0" width="283.5" height="283.5"/>
</g>
<g id="g25" inkscape:groupmode="layer" inkscape:label="F.SilkS">
</g>
<g>
	<path id="XMLID_00000035523987736898608170000005495280676828631727_" d="M142.8,147.3c1,0,4.3,0.1,6.6,0.5c1,0.2,1.3,0.2,1.7-0.1
		c0.2-0.1,0.5-0.6,0.5-0.9c0.1-0.6-0.3-1.3-1-1.5c-0.5-0.1-2.2-0.4-3.5-0.6c-1.3-0.2-4.6-0.2-6-0.1c-2.2,0.2-4.7,0.6-6.8,1.2
		c-0.5,0.1-1,0.2-1.1,0.2c-0.6,0-1.1-0.3-1.4-0.8c-0.1-0.3-0.2-0.4-0.2-1.5c0-1.4,0.1-2.2,0.5-3.3c0.9-3.1,3-5.7,5.8-7.2v1.2
		c0,0.6,0.5,1,1.1,1h3.6c0,0.7-0.1,0.8-0.1,0.9c-0.1,0.1-0.3,0.2-0.8,0.2c-0.4,0-0.6,0.1-0.7,0.2c-0.2,0.2-0.2,0.2-0.2,1.1
		c0,1.1,0,1.2,0.5,1.3c0.3,0.1,4.1,0.1,4.5,0s0.5-0.3,0.5-1.3c0-0.5,0-1-0.1-1.1c-0.1-0.2-0.5-0.3-0.9-0.3c-0.3,0-0.4-0.1-0.5-0.2
		c-0.1-0.1-0.3-0.2-0.3-0.8h3.7c0.6,0,1-0.4,1-1v-6.7c0-0.6-0.4-1-1-1h-9.3c-0.6,0-1,0.4-1,1v3.9c-5.4,2.5-8.6,8.3-7.5,14.4
		c0.1,0.5,0.1,1,0.1,1.2c-0.1,0.7,0.3,1.4,0.9,1.7c0.5,0.2,0.8,0.2,2.1-0.2c2-0.6,5-1.1,6.1-1.3
		C140.7,147.3,141.8,147.3,142.8,147.3z"/>
	<path d="M156.7,141.6c-0.1-0.4-0.1-1-0.1-1.3c0-0.7-0.1-1-0.6-1.4c-0.3-0.3-0.7-0.4-1-0.4c-0.1,0-0.7,0.1-1.2,0.3
		c-3,1-5.5,1.4-8.6,1.6c-2.3,0.1-5-0.1-7.2-0.5c-0.4-0.1-0.9-0.1-1.1-0.1c-0.5,0-0.9,0.3-1.1,0.7c-0.2,0.5-0.2,0.7,0,1.2
		c0.3,0.5,0.5,0.7,1.8,0.9c2.3,0.4,3.8,0.6,6.2,0.6c3.2,0,5.9-0.4,9-1.2c0.6-0.2,1.2-0.3,1.3-0.3c0.5,0,1.2,0.4,1.4,0.9
		c0.2,0.6,0.2,2.5-0.1,3.9c-0.8,3.7-3.2,6.8-6.7,8.4c-1.1,0.5-1.9,0.8-2.3,0.7c-0.4,0-0.8-0.3-1.1-0.7c-0.1-0.1-0.3-0.4-0.4-0.5
		c-0.1-0.2-0.3-0.4-0.3-0.6c-0.1-0.4-0.1-1.6,0-2s0.4-0.5,0.9-0.5c0.3,0,0.4,0,0.6-0.2l0.2-0.2v-1c0-1,0-1-0.2-1.2l-0.2-0.2h-2.3
		c-1.5,0-2.4,0-2.5,0.1c-0.3,0.1-0.3,0.4-0.3,1.2c0,1.1,0.2,1.4,0.9,1.4c0.4,0,0.6,0.1,0.8,0.3c0.1,0.1,0.1,0.3,0.1,1.2
		c0,1.2,0,1.3-0.5,1.8c-0.9,1-0.6,2.5,0.5,3.2c0,0.1,0,0.2,0,0.3h-3.7c-0.6,0-1,0.4-1,1v6.5c0,0.6,0.4,1,1,1h9.3c0.6,0,1-0.4,1-1
		V159c0-0.6-0.4-1-1-1h-3.7c0-0.1,0-0.2,0-0.4c0.1-0.1,0.2-0.1,0.3-0.2c0.4-0.3,0.6-0.3,1.3-0.5c4.8-1,8.6-4.3,10.1-8.9
		C156.9,145.9,157.1,143.8,156.7,141.6z"/>
</g>
<g>
	<path d="M154.1,139c-1-2.2-2.8-4-4.9-5.1v-6.2c0-0.6-0.4-1-1-1h-9.3c-0.6,0-1,0.4-1,1v3.9v1.6v1c-1,0.6-2,1.4-2.8,2.4
		c-2.3,2.7-3.1,6.4-2.3,9.9c1.1,4.7,5,8.1,9.8,8.6v0c0.6,0.1,2.4,0,3-0.1c3.7-0.6,6.7-2.9,8.4-6.2
		C155.6,145.8,155.6,142.2,154.1,139z"/>
	<path d="M148.2,158h-3.7h-1.9h-3.7c-0.6,0-1,0.4-1,1v6.5c0,0.6,0.4,1,1,1h9.3c0.6,0,1-0.4,1-1V159C149.2,158.4,148.8,158,148.2,158
		z"/>
</g>
</svg>
